M48
; DRILL file {KiCad 7.99.0-1990-g812c56bdc7} date 2023-08-03T23:21:48+0200
; FORMAT={-:-/ absolute / inch / decimal}
; #@! TF.CreationDate,2023-08-03T23:21:48+02:00
; #@! TF.GenerationSoftware,Kicad,Pcbnew,7.99.0-1990-g812c56bdc7
; #@! TF.FileFunction,Plated,1,2,PTH
FMAT,2
INCH
; #@! TA.AperFunction,Plated,PTH,ViaDrill
T1C0.0157
; #@! TA.AperFunction,Plated,PTH,ComponentDrill
T2C0.0236
; #@! TA.AperFunction,Plated,PTH,ComponentDrill
T3C0.0236
; #@! TA.AperFunction,Plated,PTH,ComponentDrill
T4C0.0256
; #@! TA.AperFunction,Plated,PTH,ComponentDrill
T5C0.0315
; #@! TA.AperFunction,Plated,PTH,ComponentDrill
T6C0.0335
; #@! TA.AperFunction,Plated,PTH,ComponentDrill
T7C0.0394
; #@! TA.AperFunction,Plated,PTH,ComponentDrill
T8C0.0433
; #@! TA.AperFunction,Plated,PTH,ComponentDrill
T9C0.0472
; #@! TA.AperFunction,Plated,PTH,ComponentDrill
T10C0.0669
; #@! TA.AperFunction,Plated,PTH,ComponentDrill
T11C0.1575
%
G90
G05
T1
X6.7569Y-4.1594
X6.7598Y-4.4262
X6.7677Y-4.6516
X6.7726Y-4.8081
X6.7736Y-3.9291
X6.7785Y-3.2303
X6.7953Y-2.6073
X6.7953Y-2.9537
X6.8061Y-11.1565
X6.814Y-8.25
X6.8258Y-2.2372
X6.8278Y-1.8986
X6.8327Y-13.0719
X6.8337Y-6.9055
X6.8337Y-10.5246
X6.8356Y-2.1211
X6.8406Y-2.4242
X6.8425Y-9.4439
X6.8474Y-6.5689
X6.8474Y-8.6358
X6.8494Y-1.1102
X6.8593Y-1.5541
X6.8602Y-9.0896
X6.8614Y-8.8072
X6.8632Y-12.6929
X6.8711Y-10.1122
X6.873Y-12.0738
X6.8829Y-4.8278
X6.8852Y-7.0927
X6.8858Y-1.3327
X6.8868Y-4.3799
X6.8907Y-5.1998
X6.8986Y-11.8415
X6.9026Y-4.2283
X6.9094Y-3.9606
X6.9114Y-13.3504
X6.9144Y-8.9262
X6.9203Y-7.9833
X6.9242Y-3.2392
X6.9242Y-11.0157
X6.9291Y-8.1033
X6.94Y-5.7648
X6.9439Y-3.5354
X6.9449Y-4.0955
X6.9547Y-1.6191
X6.9587Y-8.8504
X6.9636Y-3.0148
X6.9693Y-4.5878
X6.9744Y-3.3927
X6.9753Y-2.3968
X6.9774Y-6.0266
X6.9862Y-8.6378
X6.9941Y-6.5955
X7.0059Y-6.8376
X7.0118Y-9.6457
X7.0148Y-4.9281
X7.0187Y-9.3327
X7.0226Y-9.4734
X7.0236Y-9.1211
X7.0374Y-8.4173
X7.0384Y-13.44
X7.0463Y-5.1437
X7.0512Y-4.3583
X7.0669Y-1.311
X7.0669Y-3.9685
X7.0669Y-6.9626
X7.0709Y-8.8888
X7.0738Y-8.2707
X7.0768Y-7.9724
X7.0778Y-7.872
X7.0807Y-13.7972
X7.0906Y-4.2411
X7.0955Y-14.5187
X7.1004Y-4.5531
X7.1011Y-9.6217
X7.1109Y-2.3982
X7.122Y-5.0423
X7.1388Y-6.8799
X7.1447Y-11.4646
X7.1476Y-4.939
X7.153Y-2.3295
X7.1575Y-12.2894
X7.1624Y-3.249
X7.1654Y-1.0748
X7.1677Y-5.1941
X7.1693Y-3.4567
X7.1791Y-4.1319
X7.1978Y-12.9764
X7.198Y-9.6646
X7.2028Y-2.9232
X7.2057Y-9.3169
X7.2106Y-0.9094
X7.2126Y-11.8209
X7.2244Y-12.312
X7.2268Y-2.5895
X7.2276Y-2.2185
X7.2333Y-5.9449
X7.2372Y-4.5335
X7.2372Y-7.872
X7.2392Y-9.4469
X7.2431Y-6.1919
X7.2441Y-4.2874
X7.252Y-6.8819
X7.2559Y-6.9951
X7.2569Y-8.7215
X7.2571Y-8.0328
X7.2572Y-6.3043
X7.2628Y-8.8514
X7.2638Y-4.063
X7.2657Y-2.2884
X7.2667Y-5.1654
X7.2717Y-6.5856
X7.2736Y-4.4301
X7.2854Y-9.0433
X7.2864Y-8.4862
X7.2884Y-6.7362
X7.2933Y-2.1663
X7.3031Y-2.4674
X7.3071Y-4.5925
X7.311Y-10.1919
X7.3219Y-9.3681
X7.3228Y-1.6358
X7.3228Y-5.1112
X7.3238Y-3.4715
X7.3248Y-8.5817
X7.3317Y-2.253
X7.3356Y-9.2234
X7.3366Y-9.1102
X7.3533Y-11.0157
X7.3573Y-3.9478
X7.3652Y-4.1663
X7.376Y-5.2372
X7.3799Y-4.2913
X7.3799Y-5.6821
X7.38Y-3.3983
X7.3804Y-5.9489
X7.3967Y-8.7372
X7.3976Y-8.2126
X7.3986Y-2.3248
X7.4006Y-2.8986
X7.4006Y-3.5591
X7.4013Y-9.2857
X7.4026Y-8.8337
X7.4065Y-4.8317
X7.4075Y-1.8878
X7.4075Y-4.4173
X7.4082Y-6.187
X7.4094Y-9.4882
X7.4134Y-9.6392
X7.4138Y-7.5572
X7.4177Y-8.6567
X7.4193Y-1.9478
X7.4252Y-3.1526
X7.4282Y-5.1817
X7.435Y-13.1919
X7.437Y-4.9075
X7.4409Y-12.5945
X7.4419Y-2.5246
X7.4469Y-12.0364
X7.4474Y-6.9315
X7.4508Y-4.5719
X7.4518Y-12.9439
X7.4545Y-2.4626
X7.4616Y-2.1683
X7.4636Y-0.6781
X7.4665Y-6.7561
X7.4665Y-6.8356
X7.4667Y-8.6143
X7.4673Y-6.0481
X7.4685Y-7.3789
X7.4744Y-2.9754
X7.4744Y-9.0167
X7.4779Y-7.7489
X7.4872Y-9.2156
X7.4882Y-10.3907
X7.4902Y-2.6811
X7.4911Y-3.2087
X7.4941Y-6.501
X7.4941Y-6.6289
X7.497Y-1.6378
X7.497Y-2.3287
X7.498Y-4.2953
X7.5Y-12.2904
X7.5118Y-2.5669
X7.5138Y-11.8386
X7.5202Y-6.1515
X7.5263Y-2.4554
X7.5365Y-4.7794
X7.5374Y-9.4498
X7.5423Y-11.2081
X7.5432Y-12.0415
X7.5443Y-4.2657
X7.5443Y-5.249
X7.5462Y-5.0031
X7.5463Y-3.1152
X7.5502Y-8.6693
X7.5522Y-4.4262
X7.5561Y-10.1722
X7.561Y-7.0226
X7.563Y-2.7451
X7.564Y-8.5566
X7.5689Y-1.1624
X7.5689Y-3.6427
X7.5778Y-9.6132
X7.5797Y-8.8563
X7.5817Y-3.7874
X7.5837Y-5.8169
X7.5837Y-7.1791
X7.5837Y-9.5098
X7.5871Y-7.7233
X7.5876Y-1.3209
X7.5896Y-3.5093
X7.5925Y-9.2175
X7.5935Y-6.8809
X7.5965Y-4.311
X7.5984Y-13.4373
X7.5992Y-1.9371
X7.6014Y-6.7992
X7.6024Y-6.1083
X7.6024Y-6.3366
X7.604Y-4.5852
X7.6043Y-2.377
X7.6161Y-1.4616
X7.622Y-8.6555
X7.624Y-3.8327
X7.6296Y-10.4013
X7.6358Y-6.499
X7.6407Y-9.4498
X7.6437Y-8.2057
X7.6614Y-3.5571
X7.6644Y-9.0787
X7.6683Y-4.0512
X7.6732Y-8.4045
X7.6748Y-1.907
X7.6772Y-9.3307
X7.6781Y-3.4173
X7.6831Y-5.249
X7.686Y-11.5236
X7.6865Y-6.2828
X7.69Y-5.6742
X7.6909Y-5.128
X7.6919Y-2.3051
X7.6919Y-8.5581
X7.6949Y-3.0955
X7.6949Y-13.7687
X7.6959Y-12.8848
X7.6959Y-5.0103
X7.6959Y-9.2303
X7.6996Y-9.6259
X7.7047Y-6.8799
X7.7077Y-2.9114
X7.7087Y-3.1604
X7.7123Y-4.4309
X7.7165Y-6.7854
X7.7175Y-7.7608
X7.7195Y-2.1693
X7.7244Y-4.5896
X7.7274Y-12.0315
X7.7283Y-5.8937
X7.7328Y-11.9143
X7.7382Y-6.0522
X7.7402Y-10.3612
X7.7402Y-11.7402
X7.747Y-12.6122
X7.75Y-7.3543
X7.7536Y-1.4648
X7.7536Y-1.6961
X7.7539Y-2.4843
X7.7569Y-2.377
X7.7677Y-4.5925
X7.7692Y-7.9131
X7.7736Y-7.1516
X7.7783Y-6.2217
X7.7785Y-4.3284
X7.7785Y-4.4439
X7.7795Y-6.9803
X7.781Y-2.6901
X7.7864Y-1.7923
X7.7889Y-9.6412
X7.7923Y-13.0945
X7.7933Y-8.6526
X7.7953Y-8.5482
X7.8061Y-13.3829
X7.8071Y-10.9764
X7.8091Y-4.1663
X7.8091Y-5.6565
X7.8091Y-5.9134
X7.8179Y-10.1811
X7.8189Y-5.2579
X7.8219Y-6.5817
X7.8228Y-6.0738
X7.8278Y-3.0591
X7.8307Y-4.0512
X7.8346Y-4.3376
X7.8366Y-6.873
X7.8376Y-7.7028
X7.8465Y-8.2352
X7.8484Y-3.3848
X7.8485Y-1.7361
X7.8494Y-3.2579
X7.8494Y-4.9488
X7.8543Y-3.5512
X7.8583Y-0.9466
X7.8583Y-5.125
X7.8602Y-9.0207
X7.8606Y-2.377
X7.8652Y-1.1368
X7.8652Y-9.1644
X7.878Y-8.5472
X7.8809Y-9.2766
X7.8839Y-3.4547
X7.8868Y-4.5728
X7.8868Y-5.252
X7.8873Y-6.48
X7.8878Y-8.6496
X7.8937Y-3.1191
X7.8945Y-1.9849
X7.8957Y-2.876
X7.8967Y-7.4665
X7.9006Y-4.4429
X7.9016Y-2.1722
X7.9016Y-5.7254
X7.9035Y-8.373
X7.9117Y-2.3018
X7.9134Y-1.8061
X7.9154Y-2.4754
X7.9163Y-4.689
X7.9173Y-4.5492
X7.9183Y-6.7598
X7.9186Y-6.8362
X7.9193Y-1.4262
X7.9193Y-3.6476
X7.9232Y-3.8091
X7.9261Y-2.3731
X7.9272Y-4.5994
X7.9341Y-7.6535
X7.939Y-14.5148
X7.9439Y-5.5571
X7.9573Y-2.398
X7.9715Y-2.9203
X7.9715Y-4.3219
X7.9724Y-9.3652
X7.9744Y-8.0915
X7.9744Y-8.5413
X7.9843Y-1.1988
X7.9887Y-1.6905
X7.9892Y-3.1811
X7.9911Y-4.1929
X7.992Y-6.8783
X7.9944Y-4.5544
X7.9951Y-3.4331
X8.0059Y-1.2864
X8.0089Y-5.9852
X8.0098Y-2.6781
X8.0148Y-5.1132
X8.0183Y-1.4834
X8.0207Y-12.3297
X8.0256Y-6.752
X8.0295Y-1.8118
X8.0305Y-10.6201
X8.0325Y-2.8691
X8.035Y-7.5372
X8.0413Y-11.4626
X8.0418Y-7.6335
X8.0452Y-1.9499
X8.0502Y-4.3258
X8.0502Y-4.686
X8.0531Y-8.0955
X8.061Y-5.5502
X8.0738Y-6.622
X8.0813Y-2.2306
X8.0817Y-8.5512
X8.0843Y-1.8451
X8.0856Y-5.9852
X8.0856Y-8.378
X8.0866Y-3.8832
X8.0876Y-4.686
X8.0906Y-3.0531
X8.0925Y-3.3898
X8.0925Y-9.2785
X8.0935Y-9.1742
X8.0955Y-3.4577
X8.0974Y-13.0
X8.0994Y-11.7864
X8.1043Y-3.6447
X8.1073Y-3.8091
X8.1339Y-9.3632
X8.1358Y-13.4843
X8.1407Y-1.3055
X8.1457Y-4.0551
X8.1496Y-6.872
X8.1506Y-4.9537
X8.152Y-2.3455
X8.1545Y-0.5807
X8.1693Y-4.8091
X8.1722Y-3.7697
X8.1722Y-4.19
X8.1752Y-8.6082
X8.1762Y-6.6949
X8.1811Y-0.7815
X8.1811Y-3.1417
X8.1831Y-12.1407
X8.185Y-8.5453
X8.1909Y-10.4695
X8.1919Y-3.3465
X8.1939Y-13.0945
X8.1963Y-5.8482
X8.1964Y-5.0618
X8.1964Y-9.2627
X8.2018Y-6.501
X8.2047Y-2.377
X8.2047Y-9.0256
X8.2064Y-1.7173
X8.2067Y-2.3189
X8.2077Y-8.0021
X8.2096Y-3.9528
X8.2175Y-12.6122
X8.2215Y-15.3848
X8.2224Y-7.4783
X8.2264Y-8.6437
X8.2293Y-4.4331
X8.2293Y-8.1841
X8.2333Y-5.4646
X8.2357Y-9.7346
X8.2372Y-6.404
X8.2372Y-7.2528
X8.2388Y-9.5941
X8.253Y-12.9035
X8.2568Y-2.5851
X8.2579Y-8.8494
X8.2598Y-9.1358
X8.2677Y-6.1033
X8.2785Y-1.2224
X8.2795Y-3.7657
X8.2815Y-2.1575
X8.3031Y-2.3366
X8.3031Y-10.187
X8.3061Y-10.9921
X8.3071Y-9.0246
X8.3081Y-2.7618
X8.3091Y-5.7077
X8.312Y-0.7766
X8.3128Y-4.7937
X8.3128Y-5.0439
X8.3146Y-5.2492
X8.3146Y-5.4127
X8.3159Y-2.8868
X8.3209Y-7.3681
X8.3248Y-4.4222
X8.3307Y-1.7037
X8.3307Y-3.9439
X8.3317Y-6.0728
X8.3465Y-3.06
X8.3484Y-11.7933
X8.3508Y-6.9411
X8.3509Y-1.7921
X8.3509Y-1.9765
X8.3509Y-3.3492
X8.3509Y-9.4679
X8.3509Y-11.9143
X8.3533Y-11.6368
X8.3543Y-8.3209
X8.3553Y-6.499
X8.3602Y-4.6064
X8.3613Y-11.3187
X8.3622Y-8.6467
X8.3691Y-8.2018
X8.373Y-4.0344
X8.373Y-6.1152
X8.376Y-3.19
X8.377Y-6.626
X8.3794Y-4.4582
X8.3794Y-9.7679
X8.3819Y-13.252
X8.3858Y-7.0404
X8.3878Y-3.7913
X8.3887Y-5.9849
X8.3887Y-9.4923
X8.3905Y-7.745
X8.3927Y-13.8071
X8.3937Y-1.1654
X8.3964Y-8.5502
X8.4019Y-8.4778
X8.4055Y-1.498
X8.4055Y-3.6191
X8.4064Y-10.422
X8.4065Y-14.5285
X8.4085Y-1.8622
X8.4124Y-1.5482
X8.4126Y-5.9509
X8.4134Y-5.4321
X8.4144Y-8.8425
X8.4173Y-2.94
X8.437Y-4.0276
X8.437Y-6.7274
X8.4469Y-8.6831
X8.4508Y-3.8514
X8.4587Y-4.2895
X8.46Y-3.4936
X8.4636Y-3.7923
X8.4646Y-5.0482
X8.4646Y-12.1146
X8.4665Y-13.4232
X8.4685Y-7.6665
X8.4685Y-6.9671
X8.4705Y-8.4744
X8.4724Y-10.422
X8.4724Y-11.3083
X8.4744Y-3.1053
X8.4783Y-3.6152
X8.4813Y-3.4237
X8.4838Y-5.3126
X8.4838Y-7.0433
X8.4853Y-2.6231
X8.4862Y-2.461
X8.4862Y-12.685
X8.4872Y-4.9882
X8.4882Y-7.4459
X8.4911Y-8.3278
X8.4951Y-3.0266
X8.497Y-4.7766
X8.498Y-3.9429
X8.4981Y-9.6348
X8.4995Y-5.2003
X8.5Y-12.8632
X8.5039Y-9.1407
X8.5059Y-2.3002
X8.5069Y-9.0364
X8.5157Y-1.1339
X8.5157Y-8.5866
X8.5177Y-7.3661
X8.5261Y-2.5156
X8.5285Y-9.2528
X8.5285Y-7.7343
X8.5295Y-0.7598
X8.5334Y-6.9052
X8.5339Y-11.139
X8.5354Y-8.2215
X8.5364Y-6.5177
X8.5404Y-5.8937
X8.5413Y-8.4476
X8.5418Y-1.7468
X8.5423Y-4.2913
X8.5443Y-5.7244
X8.5443Y-3.5423
X8.5448Y-13.0333
X8.5482Y-8.8425
X8.5531Y-9.3919
X8.557Y-4.2347
X8.5571Y-1.2352
X8.5581Y-2.6083
X8.5587Y-7.6304
X8.561Y-4.414
X8.5709Y-9.6575
X8.5728Y-6.7067
X8.5758Y-5.439
X8.5768Y-11.9724
X8.5871Y-5.2318
X8.5955Y-2.3209
X8.5965Y-12.128
X8.5974Y-9.501
X8.5994Y-10.3681
X8.5999Y-7.5893
X8.6033Y-4.4144
X8.6073Y-6.5689
X8.6073Y-8.5817
X8.6083Y-2.0138
X8.6107Y-7.7269
X8.6122Y-2.7953
X8.6132Y-6.1951
X8.6159Y-5.848
X8.6181Y-9.2087
X8.6191Y-1.2224
X8.6208Y-8.4474
X8.6216Y-4.2367
X8.622Y-3.6695
X8.623Y-8.2234
X8.625Y-10.0069
X8.626Y-4.4933
X8.626Y-4.6625
X8.627Y-1.7854
X8.628Y-2.1427
X8.6286Y-2.9178
X8.6289Y-2.6112
X8.6329Y-7.9449
X8.6363Y-2.4506
X8.6407Y-2.5207
X8.6417Y-1.6257
X8.6417Y-8.311
X8.6437Y-11.6703
X8.6457Y-11.2608
X8.6525Y-6.2783
X8.6526Y-7.6663
X8.6599Y-4.774
X8.6599Y-5.2343
X8.66Y-6.9315
X8.6683Y-0.7598
X8.6683Y-10.1457
X8.6703Y-9.4104
X8.6706Y-6.824
X8.6713Y-10.9813
X8.6732Y-7.7156
X8.6752Y-1.1841
X8.6811Y-5.9616
X8.6811Y-6.0199
X8.6831Y-2.3189
X8.6831Y-13.1368
X8.6841Y-8.5007
X8.6881Y-9.7014
X8.6978Y-4.4173
X8.6978Y-12.6004
X8.7037Y-11.8022
X8.7047Y-4.2864
X8.7076Y-2.493
X8.7116Y-7.5846
X8.7126Y-10.4518
X8.7136Y-3.9862
X8.7136Y-5.875
X8.7146Y-4.9429
X8.7147Y-5.1884
X8.7205Y-3.3317
X8.7235Y-3.9222
X8.7254Y-9.5
X8.7264Y-4.1919
X8.7264Y-8.6033
X8.7343Y-1.6102
X8.7352Y-3.4833
X8.7362Y-6.0837
X8.7362Y-9.3287
X8.7392Y-9.0148
X8.7402Y-12.9252
X8.7441Y-7.7067
X8.7483Y-7.8507
X8.751Y-3.2126
X8.751Y-8.6535
X8.7539Y-6.7667
X8.7539Y-7.0098
X8.7544Y-8.0718
X8.7559Y-6.9045
X8.7589Y-3.1004
X8.7598Y-9.1978
X8.7618Y-6.1939
X8.7628Y-4.0541
X8.7657Y-7.2195
X8.7677Y-1.1594
X8.7677Y-9.686
X8.7756Y-4.7579
X8.7766Y-8.4085
X8.7835Y-8.8533
X8.7864Y-5.1073
X8.7953Y-4.501
X8.8002Y-6.6289
X8.8031Y-5.7549
X8.8051Y-7.4685
X8.814Y-9.375
X8.8145Y-4.1335
X8.8189Y-5.5413
X8.8212Y-9.2873
X8.8317Y-6.7234
X8.8425Y-2.3228
X8.8445Y-6.877
X8.8494Y-11.4862
X8.8524Y-3.4744
X8.8553Y-14.5433
X8.8563Y-7.6998
X8.8642Y-1.8287
X8.8661Y-1.1949
X8.8681Y-3.1142
X8.8681Y-3.3317
X8.8829Y-11.0069
X8.8976Y-3.2096
X8.9006Y-8.5679
X8.9026Y-0.7933
X8.913Y-6.8844
X8.9203Y-1.815
X8.9213Y-9.3376
X8.9222Y-10.6142
X8.9281Y-8.9843
X8.9291Y-5.562
X8.937Y-8.4026
X8.937Y-8.8376
X8.94Y-2.8661
X8.9439Y-8.2451
X8.9449Y-3.0374
X8.9459Y-7.0226
X8.9547Y-4.7677
X8.9547Y-9.5364
X8.9578Y-3.4974
X8.9587Y-12.9488
X8.9675Y-13.8219
X8.9685Y-7.5846
X8.9705Y-6.5581
X8.9715Y-13.3524
X8.9793Y-6.7421
X8.9813Y-5.9596
X8.9833Y-5.1102
X8.9911Y-1.0935
X8.9911Y-4.9508
X8.9951Y-9.1102
X9.0148Y-8.626
X9.0148Y-10.4488
X9.0157Y-1.4331
X9.0246Y-4.2047
X9.0271Y-1.7939
X9.0271Y-2.4499
X9.0285Y-3.4715
X9.0285Y-6.9222
X9.0295Y-3.8898
X9.0335Y-13.123
X9.0354Y-5.9419
X9.0391Y-2.0593
X9.0551Y-7.7234
X9.0554Y-6.0239
X9.0581Y-10.9587
X9.061Y-7.8159
X9.062Y-10.1713
X9.065Y-1.1102
X9.0709Y-3.2175
X9.0724Y-2.151
X9.0748Y-11.7835
X9.0768Y-4.0295
X9.0787Y-1.3593
X9.0787Y-3.9882
X9.0827Y-3.0965
X9.0846Y-2.6545
X9.0876Y-2.2825
X9.0906Y-2.9793
X9.0915Y-9.3524
X9.0925Y-1.2559
X9.0935Y-2.8711
X9.0955Y-3.4941
X9.1033Y-15.3652
X9.1043Y-7.3996
X9.1043Y-10.3356
X9.1093Y-5.7618
X9.1115Y-2.4463
X9.1161Y-12.6073
X9.1187Y-4.5672
X9.1241Y-8.5576
X9.128Y-7.4813
X9.1309Y-9.999
X9.1319Y-2.3313
X9.1319Y-8.8396
X9.1339Y-2.1585
X9.1348Y-8.2431
X9.1437Y-9.375
X9.1535Y-11.9646
X9.1585Y-8.3583
X9.1594Y-12.8809
X9.1664Y-5.1801
X9.1673Y-6.9222
X9.1683Y-11.7638
X9.1693Y-1.1211
X9.1693Y-9.6585
X9.1713Y-4.4141
X9.1722Y-8.623
X9.1728Y-4.3417
X9.1742Y-6.0925
X9.1767Y-8.5178
X9.1844Y-3.4967
X9.1939Y-6.6486
X9.1988Y-0.7746
X9.2037Y-11.5384
X9.2047Y-9.2264
X9.2057Y-4.7844
X9.2106Y-1.5266
X9.2116Y-5.4183
X9.2146Y-7.5846
X9.2205Y-6.7628
X9.2215Y-5.0167
X9.2215Y-7.7224
X9.2224Y-10.1811
X9.2254Y-1.9331
X9.2303Y-9.3533
X9.2352Y-2.7185
X9.2359Y-9.4646
X9.2372Y-4.0236
X9.2384Y-11.261
X9.2411Y-15.377
X9.2421Y-2.9478
X9.2461Y-4.5453
X9.247Y-9.6161
X9.2485Y-12.9872
X9.249Y-3.2156
X9.249Y-9.065
X9.2589Y-2.5187
X9.2598Y-6.5482
X9.2707Y-1.5492
X9.2726Y-3.5984
X9.2739Y-4.2465
X9.2766Y-6.2392
X9.278Y-7.0002
X9.278Y-10.3569
X9.279Y-12.0385
X9.2795Y-3.1112
X9.2805Y-6.1167
X9.2815Y-6.378
X9.2835Y-1.997
X9.2844Y-2.2392
X9.2844Y-14.5384
X9.2884Y-4.3622
X9.2923Y-8.6368
X9.2992Y-8.2323
X9.3022Y-9.6969
X9.3051Y-5.2863
X9.314Y-10.7864
X9.3156Y-6.7826
X9.3159Y-1.7421
X9.3179Y-10.5463
X9.3189Y-1.8632
X9.3189Y-2.5827
X9.3199Y-3.2047
X9.3199Y-5.9183
X9.3238Y-3.311
X9.3258Y-7.3583
X9.3268Y-11.4643
X9.3268Y-12.2441
X9.3287Y-2.8022
X9.3327Y-7.4331
X9.3396Y-9.2264
X9.3406Y-1.1112
X9.3435Y-12.0385
X9.3453Y-5.272
X9.3494Y-3.4508
X9.3533Y-2.0295
X9.3583Y-13.1604
X9.3602Y-9.065
X9.3632Y-12.6683
X9.3642Y-2.623
X9.3652Y-3.1093
X9.3661Y-0.7667
X9.3799Y-2.2116
X9.3829Y-13.2864
X9.3848Y-1.2736
X9.3947Y-2.31
X9.404Y-1.3091
X9.4051Y-1.4759
X9.4055Y-1.5
X9.4075Y-2.8602
X9.4104Y-12.8691
X9.4173Y-5.7667
X9.4193Y-6.9272
X9.4262Y-4.3612
X9.4291Y-1.7431
X9.4294Y-9.8928
X9.4321Y-8.5728
X9.4326Y-1.1701
X9.4339Y-6.7531
X9.4339Y-7.5555
X9.437Y-1.8583
X9.4419Y-3.3189
X9.4478Y-13.1526
X9.4498Y-4.2392
X9.4508Y-4.001
X9.4537Y-3.4281
X9.4547Y-9.189
X9.4587Y-9.1152
X9.4606Y-2.0187
X9.4611Y-4.7903
X9.4636Y-5.435
X9.4646Y-4.5994
X9.4646Y-8.9958
X9.4687Y-9.5894
X9.469Y-7.7234
X9.4715Y-10.3268
X9.4803Y-8.5728
X9.4818Y-9.8837
X9.4852Y-12.0167
X9.4872Y-9.3912
X9.4882Y-8.2451
X9.4882Y-10.1811
X9.4921Y-3.9577
X9.4951Y-0.685
X9.498Y-3.2224
X9.4983Y-5.1619
X9.5059Y-11.8386
X9.5108Y-8.2835
X9.5118Y-4.3543
X9.5148Y-1.1093
X9.5157Y-6.1073
X9.5187Y-13.8415
X9.5207Y-12.1594
X9.5315Y-1.9528
X9.5325Y-10.0817
X9.5354Y-10.439
X9.5394Y-5.9144
X9.5404Y-9.3425
X9.5413Y-7.3327
X9.5502Y-4.2018
X9.5591Y-4.0463
X9.5659Y-7.7126
X9.5679Y-1.5472
X9.5719Y-5.0217
X9.5758Y-9.0581
X9.5797Y-7.5945
X9.5837Y-9.9114
X9.5846Y-9.2077
X9.5866Y-3.4596
X9.5871Y-6.7776
X9.5945Y-6.6191
X9.5955Y-4.6004
X9.6112Y-3.0541
X9.6348Y-2.1742
X9.6398Y-2.7677
X9.6398Y-5.5512
X9.6447Y-6.9124
X9.6467Y-7.4813
X9.6476Y-1.1565
X9.6506Y-2.6683
X9.6506Y-11.0295
X9.6506Y-13.1073
X9.6516Y-4.3543
X9.6565Y-9.3593
X9.6634Y-3.3937
X9.6644Y-5.8012
X9.6663Y-0.7697
X9.6703Y-10.2008
X9.6732Y-3.1112
X9.6821Y-4.2254
X9.686Y-10.5837
X9.687Y-5.122
X9.687Y-6.1995
X9.6939Y-12.94
X9.6959Y-1.3376
X9.7087Y-1.2805
X9.7096Y-2.3031
X9.7096Y-2.4843
X9.7205Y-9.2096
X9.7264Y-2.0315
X9.7264Y-10.0591
X9.7352Y-6.0404
X9.7359Y-4.6729
X9.7416Y-9.2806
X9.7421Y-3.1821
X9.7441Y-9.0994
X9.7451Y-3.1004
X9.75Y-9.3563
X9.7648Y-12.6299
X9.7726Y-7.7067
X9.7726Y-14.5433
X9.7736Y-6.623
X9.7785Y-1.9783
X9.7815Y-2.2244
X9.7874Y-6.9035
X9.7913Y-6.9803
X9.7933Y-8.5669
X9.8022Y-7.1319
X9.8041Y-2.6654
X9.812Y-10.1585
X9.8268Y-13.6398
X9.8297Y-5.0226
X9.8297Y-8.374
X9.8425Y-3.2746
X9.8504Y-12.1437
X9.8533Y-3.2195
X9.8573Y-2.9291
X9.8622Y-1.437
X9.8652Y-0.9744
X9.8652Y-4.3661
X9.8681Y-13.1122
X9.8701Y-7.3927
X9.873Y-7.7146
X9.876Y-5.1319
X9.878Y-1.0748
X9.878Y-2.999
X9.8818Y-1.794
X9.8819Y-10.9272
X9.882Y-1.7332
X9.8829Y-4.2362
X9.8829Y-10.3366
X9.8839Y-3.0512
X9.8907Y-10.4724
X9.8932Y-9.8801
X9.8947Y-9.0354
X9.8961Y-2.1385
X9.8961Y-11.311
X9.8986Y-9.6919
X9.8996Y-1.5236
X9.8996Y-10.063
X9.9045Y-2.6634
X9.9094Y-1.2697
X9.9114Y-3.2766
X9.9119Y-9.2806
X9.9124Y-9.1919
X9.9134Y-3.3701
X9.9173Y-2.3366
X9.9183Y-1.4193
X9.9222Y-2.0099
X9.9225Y-10.2105
X9.9252Y-12.5797
X9.9262Y-1.3317
X9.9281Y-11.8494
X9.9291Y-1.4803
X9.9291Y-3.5531
X9.9301Y-5.9154
X9.9335Y-6.3533
X9.935Y-7.5128
X9.936Y-9.8258
X9.936Y-12.8081
X9.94Y-9.4754
X9.9469Y-7.7234
X9.9488Y-2.7746
X9.9498Y-5.69
X9.9518Y-6.7561
X9.9533Y-6.5167
X9.9547Y-2.4872
X9.9705Y-12.0315
X9.9774Y-8.4193
X9.9783Y-6.064
X9.9808Y-2.9725
X9.9813Y-4.2343
X9.9904Y-3.2514
X9.9931Y-2.2421
X9.9941Y-13.0827
X9.9962Y-3.0417
X10.0Y-9.3337
X10.001Y-15.377
X10.0014Y-11.9604
X10.0049Y-6.7776
X10.0074Y-9.7065
X10.0079Y-6.6201
X10.0098Y-9.8415
X10.0197Y-9.1024
X10.0207Y-1.1447
X10.023Y-10.3342
X10.0236Y-5.7057
X10.0246Y-7.125
X10.0256Y-8.2126
X10.028Y-2.1421
X10.0305Y-3.19
X10.0315Y-7.6575
X10.0329Y-8.6495
X10.0364Y-4.3642
X10.0369Y-8.5696
X10.0394Y-10.2047
X10.0448Y-12.7787
X10.0482Y-8.7245
X10.0507Y-10.9963
X10.0512Y-9.9921
X10.0528Y-6.519
X10.0548Y-2.3748
X10.0551Y-3.5787
X10.0561Y-9.4787
X10.0565Y-12.0763
X10.0585Y-12.878
X10.0679Y-0.7411
X10.0689Y-4.7549
X10.0689Y-5.0285
X10.0698Y-2.3041
X10.0719Y-13.6398
X10.0738Y-5.4498
X10.0778Y-6.1085
X10.0778Y-6.626
X10.0787Y-7.8967
X10.0787Y-9.937
X10.0797Y-3.0472
X10.0825Y-7.6551
X10.0834Y-8.591
X10.0866Y-9.6772
X10.0876Y-8.0541
X10.0928Y-8.5245
X10.0937Y-10.9529
X10.0972Y-10.0528
X10.0974Y-7.7687
X10.0974Y-13.2343
X10.0994Y-7.1289
X10.1001Y-12.0699
X10.1053Y-9.3096
X10.1063Y-6.315
X10.1102Y-3.5157
X10.1102Y-7.7244
X10.1116Y-9.7076
X10.1181Y-5.2441
X10.122Y-7.6152
X10.1299Y-4.4724
X10.1299Y-5.6024
X10.1299Y-6.0433
X10.1309Y-6.7541
X10.1339Y-3.9528
X10.1339Y-3.6073
X10.1368Y-4.1841
X10.1373Y-7.2849
X10.1378Y-8.4488
X10.1386Y-9.5829
X10.1417Y-9.1024
X10.1428Y-10.2181
X10.1467Y-4.9528
X10.1545Y-8.3021
X10.1575Y-7.1181
X10.1594Y-3.2756
X10.1634Y-10.3807
X10.1649Y-4.3324
X10.1654Y-3.1388
X10.1673Y-9.8494
X10.1683Y-2.5924
X10.1683Y-2.7372
X10.1687Y-8.1943
X10.1703Y-9.2663
X10.1734Y-6.5973
X10.1748Y-5.1604
X10.1748Y-12.0797
X10.1772Y-4.7067
X10.1781Y-9.3203
X10.1845Y-6.8593
X10.1865Y-3.5096
X10.187Y-1.7037
X10.188Y-10.123
X10.1895Y-9.532
X10.1928Y-6.7756
X10.1934Y-4.1335
X10.1969Y-7.3632
X10.1988Y-9.6663
X10.2008Y-3.189
X10.2008Y-3.5866
X10.2018Y-3.4301
X10.2047Y-15.373
X10.2052Y-3.0739
X10.2052Y-3.3435
X10.2052Y-5.0448
X10.2087Y-9.9951
X10.2101Y-5.2426
X10.2125Y-2.4717
X10.2175Y-6.5196
X10.2205Y-11.4882
X10.2224Y-0.7569
X10.2265Y-2.7574
X10.2303Y-9.0945
X10.2323Y-5.7096
X10.2397Y-10.6844
X10.2402Y-11.315
X10.2402Y-11.7431
X10.2437Y-7.5769
X10.2468Y-6.0426
X10.248Y-9.1319
X10.251Y-1.7525
X10.252Y-2.7874
X10.252Y-3.1801
X10.252Y-4.8071
X10.2533Y-8.783
X10.2559Y-9.3555
X10.2564Y-3.7753
X10.2581Y-7.6997
X10.2598Y-10.2923
X10.2618Y-7.3199
X10.2628Y-10.3356
X10.2687Y-7.3789
X10.2707Y-2.2825
X10.2785Y-8.2096
X10.2795Y-3.0039
X10.2815Y-2.0364
X10.2894Y-9.6644
X10.2963Y-3.8224
X10.2982Y-2.9192
X10.2982Y-12.5699
X10.3028Y-7.5523
X10.3041Y-2.7139
X10.31Y-12.0591
X10.311Y-8.4606
X10.313Y-1.7047
X10.315Y-7.1654
X10.3224Y-4.6692
X10.3238Y-11.8701
X10.3268Y-2.8268
X10.3376Y-2.1791
X10.3421Y-6.032
X10.3425Y-10.2776
X10.344Y-4.7672
X10.3454Y-3.7376
X10.3459Y-4.3355
X10.3459Y-6.5876
X10.3465Y-4.94
X10.3504Y-2.0787
X10.3514Y-0.7028
X10.353Y-5.9456
X10.353Y-7.4646
X10.3556Y-9.0171
X10.3612Y-9.3238
X10.3725Y-3.3428
X10.3799Y-4.2106
X10.3799Y-5.2372
X10.3801Y-3.3014
X10.3807Y-5.4127
X10.3829Y-4.0581
X10.3839Y-6.7466
X10.3848Y-2.1388
X10.3865Y-3.7336
X10.3868Y-3.997
X10.3927Y-3.0236
X10.3935Y-6.854
X10.3947Y-8.312
X10.3957Y-3.5669
X10.4006Y-7.5768
X10.4065Y-7.7707
X10.407Y-6.0052
X10.4075Y-1.7047
X10.4098Y-6.2849
X10.4248Y-5.7988
X10.4272Y-13.6654
X10.4301Y-10.1417
X10.4331Y-9.4705
X10.4341Y-7.4911
X10.4449Y-2.0748
X10.4459Y-6.6368
X10.4469Y-11.8543
X10.4508Y-9.1801
X10.4547Y-14.5531
X10.4596Y-9.6978
X10.4626Y-9.0354
X10.471Y-4.7506
X10.4715Y-2.3091
X10.4735Y-4.7969
X10.4735Y-5.8376
X10.4774Y-8.5167
X10.4783Y-7.7057
X10.4823Y-3.1772
X10.499Y-10.935
X10.503Y-1.7362
X10.5049Y-0.7835
X10.5049Y-2.9134
X10.5079Y-12.3091
X10.509Y-8.3343
X10.5118Y-6.0443
X10.5148Y-10.6841
X10.5177Y-3.5059
X10.5217Y-7.5197
X10.5326Y-3.312
X10.5354Y-3.4035
X10.5453Y-2.9986
X10.5472Y-1.998
X10.5482Y-6.7884
X10.5561Y-2.2697
X10.56Y-4.2323
X10.56Y-11.4557
X10.561Y-4.313
X10.564Y-11.0679
X10.5662Y-9.9616
X10.5669Y-5.1673
X10.5689Y-10.0315
X10.5719Y-9.3406
X10.5738Y-4.9469
X10.5817Y-1.9035
X10.5837Y-10.2677
X10.5846Y-1.8376
X10.5846Y-10.5719
X10.5856Y-7.5925
X10.6033Y-1.7244
X10.6319Y-8.4783
X10.6329Y-5.6831
X10.6339Y-4.2402
X10.6368Y-5.8907
X10.6398Y-5.5217
X10.6417Y-3.4035
X10.6457Y-7.5089
X10.6467Y-4.4262
X10.6476Y-2.2077
X10.6476Y-3.252
X10.6481Y-5.3957
X10.6481Y-7.1924
X10.6516Y-3.5108
X10.6555Y-9.2224
X10.6555Y-9.3396
X10.6614Y-8.1791
X10.6643Y-6.5022
X10.6644Y-5.7431
X10.6644Y-8.8159
X10.6683Y-8.2874
X10.6688Y-3.9776
X10.6689Y-3.7146
X10.6695Y-2.1066
X10.6703Y-3.0616
X10.6781Y-2.9222
X10.6791Y-5.1919
X10.6791Y-10.1575
X10.689Y-7.5571
X10.6959Y-5.1299
X10.6967Y-11.9493
X10.7047Y-1.7283
X10.7096Y-6.8819
X10.7116Y-2.1575
X10.7215Y-5.437
X10.7215Y-8.4715
X10.7219Y-2.52
X10.7235Y-7.6928
X10.7283Y-4.2156
X10.7293Y-5.2638
X10.7293Y-6.0876
X10.731Y-6.258
X10.7343Y-7.3287
X10.7362Y-10.9331
X10.7372Y-2.0118
X10.7421Y-4.5807
X10.7431Y-12.6407
X10.749Y-4.3533
X10.7549Y-8.6152
X10.7569Y-7.5768
X10.7579Y-10.4409
X10.7588Y-5.0936
X10.7615Y-1.8564
X10.7648Y-6.4409
X10.7648Y-8.8346
X10.7657Y-5.7382
X10.7657Y-11.8002
X10.7677Y-1.1024
X10.7699Y-8.7582
X10.7702Y-6.8302
X10.7752Y-8.4715
X10.7756Y-7.7953
X10.7766Y-6.6545
X10.7769Y-5.8392
X10.7815Y-5.2146
X10.7829Y-5.4768
X10.7864Y-3.188
X10.7869Y-7.058
X10.7904Y-4.6692
X10.7904Y-6.9852
X10.7904Y-7.2398
X10.7943Y-4.5177
X10.7947Y-3.5407
X10.8061Y-12.4941
X10.8081Y-3.938
X10.813Y-2.5856
X10.813Y-10.3366
X10.815Y-9.9045
X10.8189Y-11.0787
X10.8193Y-7.741
X10.8219Y-4.7726
X10.8233Y-4.4141
X10.8233Y-6.9315
X10.8236Y-3.4999
X10.8307Y-7.4754
X10.8386Y-6.2953
X10.8386Y-12.0305
X10.8402Y-9.2806
X10.8402Y-9.4366
X10.8434Y-4.3363
X10.8455Y-6.7077
X10.8474Y-9.1919
X10.8474Y-12.8022
X10.8484Y-4.5846
X10.8494Y-7.3543
X10.8504Y-8.7913
X10.8543Y-5.2638
X10.8553Y-2.9222
X10.8553Y-4.9301
X10.8596Y-2.9916
X10.8652Y-9.0915
X10.8701Y-11.6486
X10.8725Y-1.9792
X10.8735Y-1.8163
X10.8735Y-1.8962
X10.875Y-10.9232
X10.876Y-8.1506
X10.8789Y-15.3484
X10.88Y-5.7454
X10.8814Y-10.0409
X10.8829Y-10.7579
X10.8848Y-5.6191
X10.8866Y-3.4984
X10.8898Y-11.5049
X10.8967Y-6.4823
X10.9006Y-3.123
X10.9045Y-9.3346
X10.9055Y-7.1329
X10.9065Y-0.9222
X10.9085Y-1.7008
X10.9112Y-4.5215
X10.9114Y-3.2421
X10.9134Y-7.7571
X10.9144Y-10.6427
X10.9173Y-7.5679
X10.9203Y-6.061
X10.9291Y-2.2667
X10.9331Y-6.3228
X10.935Y-11.2081
X10.935Y-12.0513
X10.935Y-13.3317
X10.937Y-2.1063
X10.9409Y-2.4281
X10.9412Y-2.9769
X10.9429Y-2.5797
X10.9448Y-2.7661
X10.9459Y-5.5167
X10.9469Y-0.9938
X10.9478Y-10.1604
X10.9528Y-7.3415
X10.9547Y-5.9664
X10.9547Y-5.7795
X10.9547Y-8.7982
X10.9567Y-3.5984
X10.9577Y-9.1614
X10.9636Y-5.8829
X10.9656Y-7.1299
X10.9724Y-4.7657
X10.9734Y-8.5896
X10.9748Y-9.3221
X10.9764Y-4.0591
X10.9774Y-10.3327
X10.9777Y-7.6742
X10.9779Y-3.1977
X10.9779Y-5.0003
X10.9793Y-8.2933
X10.9813Y-8.1457
X10.9813Y-14.5384
X10.9823Y-5.435
X10.9823Y-7.5866
X10.9823Y-8.7265
X10.9832Y-8.9393
X10.9833Y-5.5935
X10.9833Y-6.1299
X10.9869Y-5.2039
X10.9882Y-3.8258
X10.9921Y-7.4931
X10.9951Y-13.7106
X10.9976Y-4.2894
X10.9982Y-5.9908
X11.0Y-6.6762
X11.0039Y-10.064
X11.0059Y-5.1073
X11.0089Y-3.1299
X11.0098Y-6.8199
X11.0108Y-2.2136
X11.0108Y-9.9075
X11.0138Y-9.2303
X11.0148Y-1.9646
X11.0207Y-6.4803
X11.0325Y-2.3829
X11.033Y-2.9525
X11.0344Y-2.0778
X11.0344Y-3.9478
X11.0384Y-4.7746
X11.0512Y-0.814
X11.0522Y-6.876
X11.062Y-2.5354
X11.065Y-2.6929
X11.065Y-8.5374
X11.0669Y-8.622
X11.0699Y-5.2028
X11.0699Y-8.1919
X11.0709Y-6.0581
X11.0719Y-8.2874
X11.0738Y-6.626
X11.0797Y-3.4045
X11.0856Y-12.3091
X11.0876Y-12.0236
X11.0876Y-12.813
X11.0886Y-10.6309
X11.0886Y-3.7753
X11.0886Y-8.7831
X11.0906Y-11.0758
X11.0913Y-1.7909
X11.0925Y-10.8898
X11.0965Y-0.9341
X11.1024Y-12.624
X11.1102Y-11.7028
X11.1112Y-5.685
X11.1211Y-7.6978
X11.125Y-13.0856
X11.1324Y-4.175
X11.1324Y-9.2627
X11.1339Y-9.0591
X11.1346Y-3.0634
X11.1358Y-2.9902
X11.1358Y-10.4449
X11.1398Y-4.3996
X11.1437Y-11.8809
X11.1545Y-7.3445
X11.1575Y-9.9124
X11.1594Y-2.815
X11.1596Y-3.3068
X11.1634Y-7.6112
X11.1673Y-9.6772
X11.1683Y-7.4734
X11.1713Y-2.6319
X11.1765Y-8.8611
X11.1789Y-9.2628
X11.186Y-13.3189
X11.187Y-1.1919
X11.187Y-5.8858
X11.189Y-13.7254
X11.1909Y-3.1398
X11.1939Y-5.2539
X11.1969Y-1.7943
X11.1969Y-9.1467
X11.1978Y-4.3947
X11.1988Y-2.2234
X11.2037Y-7.6693
X11.2047Y-2.3455
X11.2047Y-10.8937
X11.2087Y-5.128
X11.2087Y-8.1575
X11.2087Y-10.4488
X11.2106Y-9.4685
X11.2116Y-8.2963
X11.2116Y-8.5945
X11.2136Y-6.2707
X11.2175Y-3.7254
X11.2254Y-4.7726
X11.2254Y-6.8317
X11.2254Y-10.1722
X11.2274Y-8.4616
X11.2303Y-3.3047
X11.2362Y-5.753
X11.2392Y-10.0217
X11.2411Y-6.0827
X11.2431Y-4.937
X11.2441Y-6.6378
X11.2451Y-15.3573
X11.2539Y-12.9862
X11.2569Y-6.8809
X11.2569Y-7.3455
X11.2598Y-4.0502
X11.2608Y-9.0148
X11.2648Y-3.9291
X11.2648Y-4.2047
X11.2746Y-6.4921
X11.2749Y-3.5639
X11.2825Y-3.2077
X11.2869Y-2.8299
X11.2874Y-7.7323
X11.2918Y-3.7074
X11.2923Y-5.2441
X11.3022Y-5.5
X11.3061Y-5.7795
X11.3071Y-9.5817
X11.312Y-1.7864
X11.3189Y-0.9163
X11.3228Y-9.2923
X11.3258Y-0.814
X11.3268Y-7.0581
X11.3304Y-3.0022
X11.3376Y-1.9154
X11.3396Y-9.374
X11.3415Y-7.5197
X11.3533Y-11.5069
X11.3543Y-12.3514
X11.3583Y-6.8809
X11.3612Y-1.4764
X11.3631Y-6.4059
X11.3652Y-7.4764
X11.3671Y-10.6486
X11.372Y-3.1033
X11.3774Y-3.8258
X11.3848Y-1.2028
X11.3856Y-1.0635
X11.3858Y-14.5482
X11.3868Y-12.6211
X11.3871Y-7.267
X11.3888Y-4.3366
X11.3917Y-7.6427
X11.3947Y-11.8317
X11.4035Y-6.8002
X11.4055Y-2.0305
X11.4055Y-4.6929
X11.4065Y-8.4734
X11.4094Y-9.1585
X11.4114Y-2.3317
X11.4134Y-2.1959
X11.4173Y-1.7884
X11.4242Y-11.0758
X11.4261Y-1.5993
X11.435Y-4.0413
X11.438Y-6.6289
X11.44Y-4.2136
X11.4414Y-1.5521
X11.4414Y-12.9145
X11.4498Y-2.7569
X11.4508Y-5.1152
X11.4557Y-1.9557
X11.4626Y-7.7313
X11.4636Y-3.2441
X11.4656Y-8.565
X11.4656Y-0.8581
X11.4744Y-10.0404
X11.4774Y-2.561
X11.4774Y-2.6024
X11.4783Y-5.438
X11.4813Y-3.5374
X11.4843Y-5.1949
X11.4852Y-2.6368
X11.4872Y-4.3504
X11.4921Y-3.9715
X11.4931Y-5.3386
X11.4931Y-9.4656
X11.498Y-6.4843
X11.5Y-8.7175
X11.501Y-1.8406
X11.5039Y-9.372
X11.5069Y-13.0561
X11.5079Y-2.5285
X11.5098Y-6.2913
X11.5138Y-2.6604
X11.5148Y-2.377
X11.5177Y-10.1624
X11.5207Y-7.3376
X11.5276Y-8.2874
X11.5354Y-9.2785
X11.5413Y-2.5581
X11.5422Y-7.7137
X11.5433Y-2.6358
X11.5446Y-8.4947
X11.5471Y-2.9405
X11.5472Y-1.7795
X11.5472Y-2.5974
X11.5481Y-8.1221
X11.5502Y-7.563
X11.5534Y-4.248
X11.5581Y-3.1693
X11.5608Y-5.105
X11.561Y-1.9547
X11.563Y-1.1161
X11.564Y-6.0433
X11.5689Y-3.7834
X11.5699Y-0.8445
X11.5719Y-9.8947
X11.5807Y-9.1575
X11.5817Y-8.1732
X11.5827Y-0.9823
X11.5846Y-5.8671
X11.5906Y-15.3612
X11.5925Y-2.4134
X11.5925Y-2.6398
X11.5935Y-2.6762
X11.5955Y-2.563
X11.596Y-2.7298
X11.5965Y-2.5295
X11.5965Y-2.6004
X11.5965Y-6.6181
X11.5984Y-3.565
X11.6028Y-6.0931
X11.6053Y-9.0098
X11.6063Y-4.0591
X11.6106Y-2.9831
X11.6122Y-2.2077
X11.6122Y-7.8199
X11.6142Y-1.9941
X11.6142Y-4.9409
X11.6142Y-9.497
X11.6152Y-5.6683
X11.6161Y-10.2982
X11.6191Y-6.4852
X11.623Y-6.9715
X11.6299Y-8.7807
X11.6299Y-8.8819
X11.63Y-6.7514
X11.6309Y-9.6703
X11.6346Y-4.5506
X11.6348Y-13.7362
X11.6437Y-10.811
X11.6506Y-2.0325
X11.6516Y-3.877
X11.6526Y-2.5906
X11.6535Y-2.5217
X11.6545Y-2.561
X11.6545Y-2.625
X11.6565Y-0.6171
X11.6565Y-2.6624
X11.6575Y-4.8287
X11.6673Y-12.6407
X11.67Y-3.3465
X11.6752Y-5.8071
X11.6762Y-12.0236
X11.6811Y-3.1644
X11.6845Y-3.5694
X11.685Y-13.3996
X11.689Y-2.6752
X11.69Y-2.5197
X11.6949Y-7.9971
X11.7077Y-10.6329
X11.7106Y-3.9449
X11.711Y-6.8809
X11.7116Y-7.4055
X11.7175Y-2.6565
X11.7185Y-6.4941
X11.7224Y-2.5305
X11.7231Y-6.0629
X11.7303Y-2.563
X11.7303Y-12.4852
X11.7343Y-11.5571
X11.7352Y-11.812
X11.7392Y-10.9567
X11.7431Y-2.624
X11.7441Y-2.5896
X11.745Y-11.1046
X11.749Y-4.0404
X11.7505Y-8.6358
X11.7505Y-9.4659
X11.7506Y-3.3466
X11.7543Y-12.8641
X11.7549Y-9.0187
X11.7579Y-1.752
X11.7637Y-5.8792
X11.7687Y-3.0374
X11.7687Y-3.5305
X11.7721Y-4.6353
X11.7726Y-3.2352
X11.7726Y-5.6683
X11.7736Y-3.4232
X11.7756Y-7.8189
X11.7772Y-11.9333
X11.7788Y-4.3309
X11.7848Y-5.1838
X11.7854Y-13.0344
X11.7874Y-4.4341
X11.7874Y-6.2687
X11.7913Y-2.6821
X11.7923Y-9.9075
X11.7943Y-7.2943
X11.8012Y-8.7372
X11.8021Y-8.1615
X11.8051Y-9.2795
X11.8061Y-2.6467
X11.811Y-7.8179
X11.811Y-8.3002
X11.812Y-9.5423
X11.812Y-10.0906
X11.813Y-4.814
X11.8159Y-8.4695
X11.8169Y-2.6102
X11.8199Y-2.435
X11.8209Y-7.6073
X11.8268Y-2.5748
X11.8278Y-6.812
X11.8278Y-7.9872
X11.8287Y-11.2536
X11.8307Y-12.5974
X11.8327Y-3.3484
X11.8366Y-2.5423
X11.8374Y-7.6841
X11.8376Y-9.7087
X11.8386Y-12.249
X11.8386Y-12.813
X11.8396Y-4.7057
X11.8401Y-12.1249
X11.8406Y-0.6024
X11.8406Y-2.7904
X11.8435Y-1.8041
X11.8445Y-1.3494
X11.8445Y-2.6319
X11.8458Y-3.4626
X11.8474Y-9.0128
X11.8496Y-5.1222
X11.8503Y-5.7902
X11.8563Y-1.5768
X11.8573Y-4.0591
X11.8605Y-9.326
X11.8672Y-4.446
X11.8672Y-4.9134
X11.8687Y-7.7227
X11.8711Y-13.4419
X11.872Y-2.5404
X11.8731Y-3.5095
X11.8733Y-8.688
X11.8799Y-2.6319
X11.8819Y-3.0945
X11.8819Y-10.7451
X11.8828Y-5.2499
X11.8829Y-5.9566
X11.8868Y-2.5719
X11.8868Y-3.061
X11.8888Y-10.4882
X11.889Y-9.2989
X11.8898Y-5.6329
X11.8907Y-7.5604
X11.8966Y-10.3111
X11.8976Y-11.0295
X11.9Y-6.6344
X11.9006Y-11.3789
X11.9015Y-3.3534
X11.9016Y-2.6043
X11.9045Y-3.2018
X11.905Y-3.7146
X11.905Y-3.9775
X11.905Y-6.9315
X11.9055Y-5.7707
X11.9067Y-10.2147
X11.9085Y-3.2343
X11.9114Y-4.0581
X11.9124Y-3.0256
X11.9154Y-6.4292
X11.9173Y-2.6388
X11.9183Y-12.0335
X11.9193Y-5.1093
X11.9228Y-10.3827
X11.9232Y-5.8297
X11.9272Y-9.1565
X11.9341Y-3.128
X11.935Y-8.5469
X11.937Y-2.6722
X11.937Y-11.8661
X11.939Y-2.9911
X11.94Y-13.123
X11.9409Y-3.1693
X11.9429Y-8.1221
X11.9433Y-8.6468
X11.9449Y-5.9114
X11.9459Y-7.4488
X11.9488Y-12.186
X11.9489Y-7.7499
X11.9515Y-6.9393
X11.9518Y-3.2569
X11.9563Y-7.5483
X11.9567Y-2.4154
X11.9596Y-4.8179
X11.9596Y-11.2096
X11.9631Y-5.0557
X11.9649Y-8.8011
X11.9724Y-4.9547
X11.9724Y-9.1063
X11.973Y-9.4604
X11.9754Y-7.8041
X11.9768Y-3.5352
X11.9783Y-4.3957
X11.9803Y-3.0305
X11.9813Y-1.2726
X11.9833Y-3.1358
X11.9872Y-9.8878
X11.9902Y-11.812
X11.9908Y-7.8888
X11.9921Y-3.1683
X11.9936Y-8.6002
X11.9961Y-3.251
X11.997Y-12.0236
X11.998Y-0.5965
X11.9985Y-6.0539
X12.0045Y-3.8216
X12.0049Y-9.6604
X12.0059Y-14.5778
X12.0079Y-4.6634
X12.0079Y-5.1517
X12.0091Y-4.1335
X12.0108Y-0.8868
X12.0117Y-6.0122
X12.0128Y-3.065
X12.0128Y-8.3012
X12.0138Y-10.8169
X12.0138Y-12.6073
X12.0148Y-1.7795
X12.0148Y-10.1791
X12.0187Y-5.2195
X12.0217Y-3.1132
X12.0271Y-7.6669
X12.0272Y-4.4855
X12.0285Y-8.1713
X12.0315Y-6.7096
X12.0325Y-5.7628
X12.033Y-4.2347
X12.0384Y-3.247
X12.0394Y-3.2008
X12.0467Y-4.3339
X12.0472Y-13.7362
X12.0502Y-12.1555
X12.0565Y-1.3239
X12.0595Y-1.5393
X12.0595Y-4.5863
X12.061Y-5.6339
X12.063Y-10.9646
X12.0669Y-6.4911
X12.0669Y-9.4069
X12.0738Y-15.3652
X12.0852Y-8.8189
X12.0866Y-6.8376
X12.0906Y-3.4823
X12.0915Y-6.9459
X12.0945Y-6.2928
X12.0965Y-7.7795
X12.1024Y-1.6949
X12.1036Y-5.9604
X12.1043Y-9.1545
X12.1093Y-7.5197
X12.1161Y-2.4252
X12.1171Y-3.9518
X12.1195Y-3.7348
X12.1201Y-1.7618
X12.1211Y-4.3957
X12.127Y-4.0669
X12.1329Y-4.9488
X12.1378Y-4.7638
X12.1378Y-8.5325
X12.1398Y-3.0069
X12.1407Y-2.7884
X12.1427Y-4.5837
X12.1457Y-4.3346
X12.1476Y-5.6663
X12.1535Y-12.3189
X12.1545Y-1.0541
X12.1555Y-3.8888
X12.1555Y-9.5748
X12.1565Y-5.06
X12.1565Y-5.5512
X12.1624Y-0.6841
X12.1663Y-3.4035
X12.1683Y-8.7687
X12.1762Y-5.8671
X12.1772Y-6.7776
X12.1804Y-6.434
X12.185Y-6.3946
X12.187Y-6.5915
X12.189Y-5.1781
X12.1909Y-7.6211
X12.1919Y-0.5984
X12.1919Y-10.6585
X12.2037Y-9.3809
X12.2047Y-5.7657
X12.2141Y-1.5138
X12.2141Y-2.6883
X12.2141Y-2.8449
X12.2141Y-4.2851
X12.2195Y-1.7717
X12.2254Y-5.062
X12.2548Y-1.2811
X12.2549Y-8.5069
X12.2549Y-11.8199
X12.2615Y-4.7165
X12.2628Y-11.4281
X12.2746Y-4.0669
X12.2767Y-9.7925
X12.2785Y-10.6565
X12.2904Y-6.8297
X12.2943Y-5.8415
X12.2978Y-0.8703
X12.3031Y-4.31
X12.3081Y-8.7579
X12.3091Y-5.5659
X12.314Y-4.4035
X12.314Y-13.0679
X12.3238Y-5.0694
X12.3248Y-10.1772
X12.3259Y-4.8599
X12.3268Y-14.5778
X12.3278Y-9.563
X12.3297Y-9.1654
X12.3346Y-7.4961
X12.3366Y-7.624
X12.3366Y-10.9951
X12.3435Y-6.5974
X12.3435Y-7.9793
X12.3445Y-8.5089
X12.3514Y-8.1831
X12.3524Y-7.7569
X12.3593Y-3.0167
X12.3602Y-8.2972
X12.3686Y-6.2928
X12.374Y-3.4213
X12.377Y-2.8627
X12.389Y-1.3128
X12.3898Y-5.7264
X12.3937Y-9.8878
X12.3976Y-1.2131
X12.3994Y-3.4812
X12.4006Y-3.2697
X12.4006Y-5.6053
X12.4114Y-6.5039
X12.4134Y-6.938
X12.4147Y-8.7984
X12.4159Y-3.0897
X12.4163Y-4.3927
X12.4203Y-11.312
X12.4217Y-3.7753
X12.4242Y-6.0984
X12.4262Y-11.8199
X12.4281Y-2.2008
X12.4301Y-4.0699
X12.4341Y-3.3622
X12.439Y-4.3317
X12.4408Y-0.8921
X12.4469Y-3.1998
X12.4469Y-5.8356
X12.4613Y-1.6029
X12.4636Y-5.4173
X12.4656Y-9.0187
X12.4685Y-6.2894
X12.4695Y-6.747
X12.4705Y-9.6457
X12.4715Y-9.3907
X12.4744Y-10.9291
X12.4775Y-0.8126
X12.4783Y-7.0432
X12.4823Y-1.9508
X12.4823Y-9.1378
X12.4833Y-12.6201
X12.4843Y-1.8396
X12.4843Y-5.2549
X12.4909Y-3.5687
X12.4921Y-2.0404
X12.4945Y-8.6481
X12.4961Y-2.123
X12.4961Y-4.2617
X12.5059Y-3.0591
X12.5079Y-1.1298
X12.5098Y-2.6516
X12.5157Y-2.8586
X12.5157Y-7.9665
X12.5159Y-3.5086
X12.5226Y-6.0472
X12.5231Y-4.5863
X12.5231Y-9.2483
X12.5266Y-8.1811
X12.5266Y-12.8957
X12.5276Y-10.2146
X12.5305Y-4.3986
X12.5393Y-8.4467
X12.5413Y-9.3789
X12.5453Y-3.5758
X12.5463Y-7.7638
X12.5466Y-8.8446
X12.5531Y-7.6112
X12.5561Y-7.4409
X12.5561Y-10.7274
X12.5596Y-1.3114
X12.562Y-7.373
X12.564Y-13.31
X12.5641Y-2.5536
X12.5659Y-8.3051
X12.5689Y-5.1545
X12.5709Y-7.1398
X12.5717Y-2.7912
X12.5728Y-11.7972
X12.5738Y-4.0531
X12.5739Y-1.4354
X12.5743Y-2.2789
X12.5748Y-6.5915
X12.5837Y-7.499
X12.5886Y-6.4921
X12.5891Y-8.5956
X12.5893Y-1.3929
X12.5906Y-4.3268
X12.5925Y-11.5187
X12.5945Y-9.8976
X12.5945Y-13.7274
X12.5955Y-1.8356
X12.5994Y-1.9075
X12.5994Y-5.8789
X12.6014Y-6.938
X12.6073Y-6.8612
X12.6102Y-1.1614
X12.6122Y-12.2323
X12.6171Y-2.5925
X12.6171Y-3.8898
X12.6211Y-4.5335
X12.6211Y-8.1811
X12.622Y-2.4961
X12.626Y-1.6467
X12.626Y-7.2434
X12.6299Y-5.7382
X12.6314Y-10.3666
X12.6314Y-11.1252
X12.6319Y-3.2156
X12.6348Y-2.4281
X12.6388Y-5.3012
X12.6437Y-3.4921
X12.6444Y-0.8543
X12.6476Y-12.0317
X12.6476Y-9.6191
X12.6506Y-9.5837
X12.6519Y-4.299
X12.6526Y-5.4252
X12.6545Y-8.0069
X12.659Y-11.9742
X12.6604Y-5.5433
X12.6634Y-3.5837
X12.6634Y-6.2894
X12.6654Y-8.561
X12.6673Y-8.8553
X12.6689Y-7.632
X12.6728Y-5.1909
X12.6732Y-4.0679
X12.6742Y-7.8553
X12.6747Y-9.3312
X12.6767Y-7.7283
X12.6776Y-4.3998
X12.6776Y-1.7939
X12.678Y-3.8383
X12.6791Y-8.6978
X12.6811Y-0.9921
X12.6821Y-8.3809
X12.6831Y-9.8701
X12.688Y-1.1762
X12.6898Y-4.2779
X12.6909Y-5.9557
X12.6929Y-10.5335
X12.6939Y-11.327
X12.7Y-7.6942
X12.7008Y-3.3898
X12.7028Y-3.7598
X12.7116Y-9.1358
X12.7136Y-1.6742
X12.7175Y-1.9646
X12.719Y-6.9631
X12.719Y-7.2505
X12.7244Y-7.5089
X12.7293Y-1.9134
X12.7303Y-12.1998
X12.7313Y-5.252
X12.7391Y-13.3332
X12.7392Y-2.8504
X12.7411Y-7.372
X12.7451Y-6.1053
X12.7461Y-10.249
X12.748Y-4.1949
X12.7539Y-12.6339
X12.7579Y-9.9961
X12.7628Y-2.3248
X12.7628Y-7.5522
X12.7638Y-0.9836
X12.7638Y-7.1535
X12.7712Y-2.5215
X12.7736Y-2.4262
X12.7805Y-13.1801
X12.7834Y-6.8351
X12.7852Y-9.6345
X12.7893Y-2.6893
X12.7894Y-1.6722
X12.7894Y-12.8671
X12.7904Y-8.5413
X12.7904Y-9.9469
X12.7923Y-6.626
X12.7943Y-4.1289
X12.7952Y-5.1517
X12.7955Y-1.5402
X12.7967Y-1.2862
X12.7984Y-1.4671
X12.8053Y-7.6814
X12.8135Y-2.7652
X12.8179Y-1.1713
X12.8189Y-10.9508
X12.8238Y-1.1014
X12.8248Y-3.3898
X12.8268Y-3.9134
X12.8268Y-7.9636
X12.8287Y-4.5787
X12.8287Y-11.8494
X12.8307Y-8.3179
X12.8322Y-12.042
X12.8346Y-3.4537
X12.8366Y-5.7165
X12.8406Y-5.6073
X12.8524Y-5.8563
X12.8524Y-9.0157
X12.8533Y-3.2156
X12.8541Y-2.8318
X12.8543Y-8.8707
X12.8544Y-6.9631
X12.8563Y-11.3061
X12.8573Y-3.5778
X12.8583Y-1.9232
X12.8588Y-5.3347
X12.8593Y-5.5167
X12.862Y-4.3661
X12.8652Y-2.6732
X12.8659Y-6.7924
X12.8681Y-1.6722
X12.8681Y-2.4045
X12.8691Y-4.1949
X12.8701Y-3.7618
X12.8711Y-6.6545
X12.8721Y-5.1739
X12.873Y-10.4656
X12.877Y-6.2785
X12.878Y-2.3238
X12.878Y-14.5827
X12.8809Y-11.685
X12.8809Y-5.1317
X12.8829Y-7.4951
X12.8868Y-8.6319
X12.8869Y-9.4288
X12.8888Y-10.2343
X12.8947Y-5.2382
X12.8967Y-2.5367
X12.9016Y-9.8602
X12.9035Y-2.7215
X12.9045Y-2.6181
X12.9045Y-9.6516
X12.9051Y-2.8617
X12.9065Y-7.3091
X12.9065Y-12.1545
X12.9085Y-6.9429
X12.9085Y-9.9281
X12.9094Y-5.4075
X12.9094Y-6.8524
X12.9114Y-6.5148
X12.9134Y-7.7746
X12.9173Y-1.1339
X12.9213Y-4.3268
X12.9232Y-2.9154
X12.9346Y-2.3635
X12.9429Y-8.3386
X12.9449Y-9.2303
X12.9469Y-5.1767
X12.9469Y-6.0315
X12.9567Y-8.1457
X12.9567Y-9.3711
X12.9606Y-4.3652
X12.9616Y-2.4911
X12.9645Y-2.2366
X12.9813Y-1.731
X12.9852Y-2.4212
X12.9872Y-13.0226
X12.9902Y-4.5069
X12.9931Y-7.6555
X13.0Y-4.3012
X13.003Y-7.1496
X13.003Y-7.3041
X13.0118Y-7.0226
X13.0138Y-2.6112
X13.0138Y-2.7116
X13.0148Y-4.6634
X13.0187Y-10.622
X13.0226Y-9.7736
X13.0266Y-13.6909
X13.0276Y-12.6378
X13.0289Y-7.87
X13.0295Y-8.4951
X13.0305Y-3.2156
X13.0305Y-8.9409
X13.0325Y-10.0807
X13.0325Y-10.9587
X13.0354Y-7.4646
X13.0394Y-1.122
X13.0394Y-1.5551
X13.0394Y-4.1053
X13.0404Y-5.9813
X13.0423Y-3.0581
X13.0423Y-3.3228
X13.0443Y-8.0728
X13.0453Y-11.8789
X13.0512Y-5.5453
X13.0581Y-9.2667
X13.062Y-5.7835
X13.063Y-6.8071
X13.065Y-11.4675
X13.0669Y-12.2707
X13.088Y-3.6913
X13.1004Y-6.7028
X13.1112Y-9.3691
X13.123Y-4.2037
X13.1289Y-7.6142
X13.1319Y-6.0
X13.1423Y-4.3921
X13.1447Y-5.5443
X13.1486Y-8.3366
X13.1565Y-8.1053
X13.1594Y-4.6654
X13.1614Y-2.9341
X13.1614Y-14.6171
X13.1639Y-2.2853
X13.1683Y-5.752
X13.1732Y-4.9104
X13.1742Y-4.4872
X13.1752Y-4.7953
X13.1806Y-8.7904
X13.2136Y-4.5778
X13.2195Y-4.2982
X13.2195Y-7.439
X13.2224Y-7.5463
X13.2323Y-9.1939
X13.2343Y-7.6417
X13.2402Y-5.0207
X13.2413Y-5.4053
X13.2421Y-6.8563
X13.2451Y-4.8071
X13.2461Y-11.8661
X13.252Y-4.0955
X13.2539Y-3.44
X13.2679Y-8.7818
X13.2707Y-11.2352
X13.2707Y-12.1762
X13.2884Y-6.6024
X13.2957Y-6.9315
X13.2957Y-7.117
X13.3002Y-9.8829
X13.3022Y-12.6191
X13.3031Y-6.7687
X13.3031Y-8.5728
X13.3046Y-8.6358
X13.311Y-10.2244
X13.315Y-10.9508
X13.3169Y-8.1703
X13.3238Y-8.3406
X13.3248Y-1.4232
X13.3248Y-1.5492
X13.3248Y-2.0443
X13.3248Y-2.1703
X13.3248Y-2.7067
X13.3248Y-2.8327
X13.3248Y-8.4675
X13.3258Y-4.6407
X13.3263Y-8.8731
X13.3278Y-1.5886
X13.3278Y-1.6476
X13.3278Y-2.2096
X13.3278Y-2.2687
X13.3278Y-2.872
X13.3278Y-2.9311
X13.3287Y-3.4941
X13.3307Y-1.1959
X13.3312Y-7.2378
X13.3317Y-1.7667
X13.3317Y-2.3878
X13.3317Y-3.0502
X13.337Y-5.4711
X13.3406Y-1.7264
X13.3406Y-2.3474
X13.3406Y-3.0098
X13.3445Y-9.186
X13.3459Y-4.8033
X13.3484Y-7.3593
X13.3494Y-7.1457
X13.3514Y-8.5197
X13.3524Y-1.3917
X13.3524Y-1.5295
X13.3524Y-2.0128
X13.3524Y-2.1506
X13.3524Y-2.6752
X13.3524Y-2.813
X13.3543Y-4.9705
X13.3563Y-7.5039
X13.3583Y-4.8907
X13.3593Y-1.7982
X13.3593Y-2.4193
X13.3593Y-3.0817
X13.3602Y-1.4321
X13.3602Y-2.0531
X13.3602Y-2.7156
X13.3632Y-1.5807
X13.3632Y-1.6407
X13.3632Y-2.2018
X13.3632Y-2.2618
X13.3632Y-2.8642
X13.3632Y-2.9242
X13.3661Y-8.6526
X13.3671Y-9.0541
X13.3701Y-7.9892
X13.374Y-1.7096
X13.374Y-2.3307
X13.374Y-2.9931
X13.375Y-7.7608
X13.3789Y-13.5443
X13.3839Y-1.5177
X13.3839Y-2.1388
X13.3839Y-2.8012
X13.3898Y-1.3829
X13.3898Y-1.8937
X13.3898Y-2.0039
X13.3898Y-2.6663
X13.3898Y-12.8031
X13.3927Y-1.4429
X13.3927Y-2.064
X13.3927Y-2.7264
X13.3947Y-0.9783
X13.3996Y-1.5778
X13.3996Y-1.6378
X13.3996Y-2.1988
X13.3996Y-2.2589
X13.3996Y-2.8612
X13.3996Y-2.9213
X13.4016Y-1.7982
X13.4016Y-2.4193
X13.4016Y-3.0817
X13.4016Y-8.5827
X13.4065Y-10.0679
X13.4114Y-1.7087
X13.4114Y-2.3297
X13.4114Y-2.9921
X13.4163Y-1.5089
X13.4163Y-2.1299
X13.4163Y-2.7923
X13.4242Y-1.3652
X13.4242Y-1.9862
X13.4242Y-2.6486
X13.4291Y-1.4488
X13.4291Y-2.0699
X13.4291Y-2.7323
X13.4291Y-11.2146
X13.4331Y-13.0167
X13.4341Y-1.5738
X13.4341Y-2.1949
X13.4341Y-2.8573
X13.437Y-1.6368
X13.437Y-2.2579
X13.437Y-2.9203
X13.437Y-10.3504
X13.4448Y-6.1612
X13.4459Y-1.7923
X13.4459Y-2.4134
X13.4459Y-3.0758
X13.4459Y-10.6624
X13.4476Y-3.5096
X13.4508Y-1.5207
X13.4508Y-2.1417
X13.4508Y-2.8041
X13.4508Y-11.561
X13.4508Y-11.938
X13.4547Y-1.7136
X13.4547Y-2.3346
X13.4547Y-2.997
X13.4587Y-1.3563
X13.4587Y-1.9774
X13.4587Y-2.6398
X13.4587Y-9.873
X13.4616Y-1.3898
X13.4616Y-2.0108
X13.4616Y-2.6732
X13.4636Y-1.4242
X13.4636Y-2.0453
X13.4636Y-2.7077
X13.4646Y-1.626
X13.4646Y-2.247
X13.4646Y-2.9094
X13.4665Y-1.4587
X13.4665Y-1.5679
X13.4665Y-2.0797
X13.4665Y-2.189
X13.4665Y-2.7421
X13.4665Y-2.8514
X13.4715Y-10.9498
X13.4813Y-1.7756
X13.4813Y-2.3967
X13.4813Y-3.0591
X13.4823Y-1.5344
X13.4823Y-2.1555
X13.4823Y-2.8179
X13.4931Y-1.7333
X13.4931Y-2.3543
X13.4931Y-3.0167
X13.4941Y-1.3396
X13.4941Y-1.9606
X13.4941Y-2.623
X13.4961Y-1.6299
X13.4961Y-2.251
X13.4961Y-2.9134
X13.497Y-1.4685
X13.497Y-1.563
X13.497Y-2.0896
X13.497Y-2.1841
X13.497Y-2.752
X13.497Y-2.8465
T3
X6.811Y-0.6693
X6.8456Y-0.5858
X6.8456Y-0.7528
X6.9291Y-0.5512
X6.9291Y-0.7874
X7.0127Y-0.5858
X7.0127Y-0.7528
X7.0472Y-0.6693
X7.4705Y-15.7087
X7.5051Y-15.6251
X7.5051Y-15.7922
X7.5886Y-15.5906
X7.5886Y-15.8268
X7.6721Y-15.6251
X7.6721Y-15.7922
X7.7067Y-15.7087
X12.5492Y-15.7087
X12.5838Y-15.6251
X12.5838Y-15.7922
X12.6673Y-15.5906
X12.6673Y-15.8268
X12.7508Y-15.6251
X12.7508Y-15.7922
X12.7854Y-15.7087
X13.189Y-0.6693
X13.2236Y-0.5858
X13.2236Y-0.7528
X13.3071Y-0.5512
X13.3071Y-0.7874
X13.3906Y-0.5858
X13.3906Y-0.7528
X13.4252Y-0.6693
T4
X7.7108Y-0.7239
X7.9384Y-0.7239
X12.3404Y-0.7239
X12.5679Y-0.7239
T5
X8.2441Y-1.4055
X8.2441Y-1.5055
X8.2441Y-1.6055
X8.5441Y-1.4055
X8.5441Y-1.5055
X8.5441Y-1.6055
T6
X7.0079Y-1.7921
X7.0079Y-1.9921
X7.0079Y-2.1921
X7.0079Y-2.4614
X7.0079Y-2.6614
X7.0079Y-2.8614
X7.1654Y-3.5402
X7.1654Y-3.7402
X7.1654Y-3.9402
X7.1654Y-4.4102
X7.1654Y-4.6102
X7.1654Y-4.8102
X7.1654Y-5.2567
X7.1654Y-5.4567
X7.1654Y-5.6567
X7.1654Y-6.1031
X7.1654Y-6.3031
X7.1654Y-6.5031
X7.1654Y-6.9496
X7.1654Y-7.1496
X7.1654Y-7.3496
X7.1654Y-7.7961
X7.1654Y-7.9961
X7.1654Y-8.1961
X7.1654Y-8.6425
X7.1654Y-8.8425
X7.1654Y-9.0425
X7.1654Y-9.489
X7.1654Y-9.689
X7.1654Y-9.889
X7.5984Y-1.7921
X7.5984Y-1.9921
X7.5984Y-2.1921
X7.5984Y-2.4614
X7.5984Y-2.6614
X7.5984Y-2.8614
X8.0118Y-3.5638
X8.0118Y-3.7638
X8.0118Y-3.9638
X8.0118Y-4.4102
X8.0118Y-4.6102
X8.0118Y-4.8102
X8.0118Y-5.2567
X8.0118Y-5.4567
X8.0118Y-5.6567
X8.0118Y-6.1031
X8.0118Y-6.3031
X8.0118Y-6.5031
X8.0118Y-6.9496
X8.0118Y-7.1496
X8.0118Y-7.3496
X8.0118Y-7.7961
X8.0118Y-7.9961
X8.0118Y-8.1961
X8.0118Y-8.6425
X8.0118Y-8.8425
X8.0118Y-9.0425
X8.0118Y-9.489
X8.0118Y-9.689
X8.0118Y-9.889
X8.189Y-1.7921
X8.189Y-1.9921
X8.189Y-2.1921
X8.189Y-2.4614
X8.189Y-2.6614
X8.189Y-2.8614
X8.7795Y-1.7921
X8.7795Y-1.9921
X8.7795Y-2.1921
X8.7795Y-2.4614
X8.7795Y-2.6614
X8.7795Y-2.8614
X8.8583Y-3.5638
X8.8583Y-3.7638
X8.8583Y-3.9638
X8.8583Y-4.4102
X8.8583Y-4.6102
X8.8583Y-4.8102
X8.8583Y-5.2567
X8.8583Y-5.4567
X8.8583Y-5.6567
X8.8583Y-6.1031
X8.8583Y-6.3031
X8.8583Y-6.5031
X8.8583Y-6.9496
X8.8583Y-7.1496
X8.8583Y-7.3496
X8.8583Y-7.7961
X8.8583Y-7.9961
X8.8583Y-8.1961
X8.8583Y-8.6425
X8.8583Y-8.8425
X8.8583Y-9.0425
X8.8583Y-9.489
X8.8583Y-9.689
X8.8583Y-9.889
X9.7047Y-3.5638
X9.7047Y-3.7638
X9.7047Y-3.9638
X9.7047Y-4.4102
X9.7047Y-4.6102
X9.7047Y-4.8102
X9.7047Y-5.2567
X9.7047Y-5.4567
X9.7047Y-5.6567
X9.7047Y-6.1031
X9.7047Y-6.3031
X9.7047Y-6.5031
X9.7047Y-6.9496
X9.7047Y-7.1496
X9.7047Y-7.3496
X9.7047Y-7.7961
X9.7047Y-7.9961
X9.7047Y-8.1961
X9.7047Y-8.6425
X9.7047Y-8.8425
X9.7047Y-9.0425
X9.7047Y-9.489
X9.7047Y-9.689
X9.7047Y-9.889
X10.5512Y-3.5638
X10.5512Y-3.7638
X10.5512Y-3.9638
X10.5512Y-4.4102
X10.5512Y-4.6102
X10.5512Y-4.8102
X10.5512Y-5.2567
X10.5512Y-5.4567
X10.5512Y-5.6567
X10.5512Y-6.1031
X10.5512Y-6.3031
X10.5512Y-6.5031
X10.5512Y-6.9496
X10.5512Y-7.1496
X10.5512Y-7.3496
X10.5512Y-7.7961
X10.5512Y-7.9961
X10.5512Y-8.1961
X10.5512Y-8.6425
X10.5512Y-8.8425
X10.5512Y-9.0425
X10.5512Y-9.489
X10.5512Y-9.689
X10.5512Y-9.889
X11.3976Y-3.5638
X11.3976Y-3.7638
X11.3976Y-3.9638
X11.3976Y-4.4102
X11.3976Y-4.6102
X11.3976Y-4.8102
X11.3976Y-5.2567
X11.3976Y-5.4567
X11.3976Y-5.6567
X11.3976Y-6.1031
X11.3976Y-6.3031
X11.3976Y-6.5031
X11.3976Y-6.9496
X11.3976Y-7.1496
X11.3976Y-7.3496
X11.3976Y-7.7961
X11.3976Y-7.9961
X11.3976Y-8.1961
X11.3976Y-8.6425
X11.3976Y-8.8425
X11.3976Y-9.0425
X11.3976Y-9.489
X11.3976Y-9.689
X11.3976Y-9.889
X12.2441Y-3.5638
X12.2441Y-3.7638
X12.2441Y-3.9638
X12.2441Y-4.4102
X12.2441Y-4.6102
X12.2441Y-4.8102
X12.2441Y-5.2567
X12.2441Y-5.4567
X12.2441Y-5.6567
X12.2441Y-6.1031
X12.2441Y-6.3031
X12.2441Y-6.5031
X12.2441Y-6.9496
X12.2441Y-7.1496
X12.2441Y-7.3496
X12.2441Y-7.7961
X12.2441Y-7.9961
X12.2441Y-8.1961
X12.2441Y-8.6425
X12.2441Y-8.8425
X12.2441Y-9.0425
X12.2441Y-9.489
X12.2441Y-9.689
X12.2441Y-9.889
X13.0906Y-3.5638
X13.0906Y-3.7638
X13.0906Y-3.9638
X13.0906Y-4.4102
X13.0906Y-4.6102
X13.0906Y-4.8102
X13.0906Y-5.2567
X13.0906Y-5.4567
X13.0906Y-5.6567
X13.0906Y-6.1031
X13.0906Y-6.3031
X13.0906Y-6.5031
X13.0906Y-6.9496
X13.0906Y-7.1496
X13.0906Y-7.3496
X13.0906Y-7.7961
X13.0906Y-7.9961
X13.0906Y-8.1961
X13.0906Y-8.6425
X13.0906Y-8.8425
X13.0906Y-9.0425
X13.0906Y-9.489
X13.0906Y-9.689
X13.0906Y-9.889
T7
X7.0669Y-10.3346
X7.0669Y-11.1811
X7.0669Y-12.0276
X7.1654Y-10.3346
X7.1654Y-11.1811
X7.1654Y-12.0276
X7.2638Y-10.3346
X7.2638Y-11.1811
X7.2638Y-12.0276
X7.9134Y-10.3346
X7.9134Y-11.1811
X7.9134Y-12.0276
X8.0118Y-10.3346
X8.0118Y-11.1811
X8.0118Y-12.0276
X8.1102Y-10.3346
X8.1102Y-11.1811
X8.1102Y-12.0276
X8.7598Y-10.3346
X8.7598Y-11.1811
X8.7598Y-12.0276
X8.8583Y-10.3346
X8.8583Y-11.1811
X8.8583Y-12.0276
X8.9567Y-10.3346
X8.9567Y-11.1811
X8.9567Y-12.0276
X9.5276Y-2.2134
X9.5276Y-2.3134
X9.5276Y-2.4134
X9.5276Y-2.5134
X9.5276Y-2.6134
X9.5276Y-2.7134
X9.5276Y-2.8134
X9.5276Y-2.9134
X9.6063Y-10.3346
X9.6063Y-11.1811
X9.6063Y-12.0276
X9.7047Y-10.3346
X9.7047Y-11.1811
X9.7047Y-12.0276
X9.8031Y-10.3346
X9.8031Y-11.1811
X9.8031Y-12.0276
X10.4528Y-10.3346
X10.4528Y-11.1811
X10.4528Y-12.0276
X10.5512Y-10.3346
X10.5512Y-11.1811
X10.5512Y-12.0276
X10.6496Y-10.3346
X10.6496Y-11.1811
X10.6496Y-12.0276
X10.8484Y-0.6102
X10.8484Y-0.7102
X11.0787Y-0.6102
X11.0787Y-0.7102
X11.2992Y-10.3346
X11.2992Y-11.1811
X11.2992Y-12.0276
X11.3012Y-0.6102
X11.3012Y-0.7102
X11.3976Y-10.3346
X11.3976Y-11.1811
X11.3976Y-12.0276
X11.4961Y-10.3346
X11.4961Y-11.1811
X11.4961Y-12.0276
X11.5177Y-0.6102
X11.5177Y-0.7102
X12.1457Y-10.3346
X12.1457Y-11.1811
X12.1457Y-12.0276
X12.2441Y-10.3346
X12.2441Y-11.1811
X12.2441Y-12.0276
X12.3425Y-10.3346
X12.3425Y-11.1811
X12.3425Y-12.0276
X12.9921Y-10.3346
X12.9921Y-11.1811
X12.9921Y-12.0276
X13.0906Y-10.3346
X13.0906Y-11.1811
X13.0906Y-12.0276
X13.189Y-10.3346
X13.189Y-11.1811
X13.189Y-12.0276
T8
X7.2933Y-1.2146
X7.2933Y-1.4705
X7.4705Y-1.2146
X7.4705Y-1.4705
T9
X7.0331Y-12.81
X7.0331Y-15.5955
X7.1217Y-12.81
X7.2083Y-12.81
X7.2083Y-15.5955
X7.2969Y-12.81
X7.8795Y-12.81
X7.8795Y-15.5955
X7.9681Y-12.81
X8.0547Y-12.81
X8.0547Y-15.5955
X8.1433Y-12.81
X8.378Y-0.9694
X8.4764Y-0.5757
X8.4764Y-1.056
X8.6732Y-0.9694
X8.726Y-12.81
X8.726Y-15.5955
X8.8146Y-12.81
X8.8701Y-0.5757
X8.8701Y-1.056
X8.9012Y-12.81
X8.9012Y-15.5955
X8.9685Y-0.9694
X8.9898Y-12.81
X9.1654Y-0.9694
X9.2638Y-0.5757
X9.2638Y-1.056
X9.4606Y-0.9694
X9.5724Y-12.81
X9.5724Y-15.5955
X9.6575Y-0.5757
X9.6575Y-1.056
X9.661Y-12.81
X9.7476Y-12.81
X9.7476Y-15.5955
X9.7559Y-0.9694
X9.8362Y-12.81
X9.9528Y-0.9694
X10.0512Y-0.5757
X10.0512Y-1.056
X10.248Y-0.9694
X10.4189Y-12.81
X10.4189Y-15.5955
X10.4449Y-0.5757
X10.4449Y-1.056
X10.5075Y-12.81
X10.5433Y-0.9694
X10.5941Y-12.81
X10.5941Y-15.5955
X10.6827Y-12.81
X11.2654Y-12.81
X11.2654Y-15.5955
X11.3539Y-12.81
X11.4406Y-12.81
X11.4406Y-15.5955
X11.5291Y-12.81
X12.1118Y-12.81
X12.1118Y-15.5955
X12.2004Y-12.81
X12.287Y-12.81
X12.287Y-15.5955
X12.3756Y-12.81
X12.9583Y-12.81
X12.9583Y-15.5955
X13.0469Y-12.81
X13.1335Y-12.81
X13.1335Y-15.5955
X13.222Y-12.81
T10
X7.165Y-13.2197
X7.165Y-15.0831
X8.0114Y-13.2197
X8.0114Y-15.0831
X8.8579Y-13.2197
X8.8579Y-15.0831
X9.7043Y-13.2197
X9.7043Y-15.0831
X10.5508Y-13.2197
X10.5508Y-15.0831
X11.3972Y-13.2197
X11.3972Y-15.0831
X12.2437Y-13.2197
X12.2437Y-15.0831
X13.0902Y-13.2197
X13.0902Y-15.0831
T11
X6.9291Y-0.6693
X7.5886Y-15.7087
X12.6673Y-15.7087
X13.3071Y-0.6693
T2
G00X7.6545Y-0.5948
M15
G01X7.6545Y-0.5633
M16
G05
G00X7.6545Y-0.7653
M15
G01X7.6545Y-0.7219
M16
G05
G00X7.9947Y-0.5948
M15
G01X7.9947Y-0.5633
M16
G05
G00X7.9947Y-0.7653
M15
G01X7.9947Y-0.7219
M16
G05
G00X12.2841Y-0.5948
M15
G01X12.2841Y-0.5633
M16
G05
G00X12.2841Y-0.7653
M15
G01X12.2841Y-0.7219
M16
G05
G00X12.6242Y-0.5948
M15
G01X12.6242Y-0.5633
M16
G05
G00X12.6242Y-0.7653
M15
G01X12.6242Y-0.7219
M16
G05
T5
G00X11.6969Y-0.8621
M15
G01X11.6969Y-0.9487
M16
G05
G00X11.9291Y-0.7952
M15
G01X11.8425Y-0.7952
M16
G05
G00X11.937Y-1.0235
M15
G01X11.8346Y-1.0235
M16
G05
T7
G00X12.1693Y-2.5197
M15
G01X12.1693Y-2.5984
M16
G05
G00X12.3583Y-2.5197
M15
G01X12.3583Y-2.5984
M16
G05
G00X12.6417Y-2.0472
M15
G01X12.6417Y-2.126
M16
G05
G00X12.6417Y-2.9921
M15
G01X12.6417Y-3.0709
M16
G05
G00X12.8307Y-2.0472
M15
G01X12.8307Y-2.126
M16
G05
G00X12.8307Y-2.9921
M15
G01X12.8307Y-3.0709
M16
G05
G00X13.1142Y-2.5197
M15
G01X13.1142Y-2.5984
M16
G05
G00X13.3031Y-2.5197
M15
G01X13.3031Y-2.5984
M16
G05
T8
G00X6.9921Y-10.6299
M15
G01X6.9646Y-10.6299
M16
G05
G00X6.9921Y-11.4764
M15
G01X6.9646Y-11.4764
M16
G05
G00X6.9921Y-12.3228
M15
G01X6.9646Y-12.3228
M16
G05
G00X7.3661Y-10.6299
M15
G01X7.3386Y-10.6299
M16
G05
G00X7.3661Y-11.4764
M15
G01X7.3386Y-11.4764
M16
G05
G00X7.3661Y-12.3228
M15
G01X7.3386Y-12.3228
M16
G05
G00X7.8386Y-10.6299
M15
G01X7.811Y-10.6299
M16
G05
G00X7.8386Y-11.4764
M15
G01X7.811Y-11.4764
M16
G05
G00X7.8386Y-12.3228
M15
G01X7.811Y-12.3228
M16
G05
G00X8.2126Y-10.6299
M15
G01X8.185Y-10.6299
M16
G05
G00X8.2126Y-11.4764
M15
G01X8.185Y-11.4764
M16
G05
G00X8.2126Y-12.3228
M15
G01X8.185Y-12.3228
M16
G05
G00X8.685Y-10.6299
M15
G01X8.6575Y-10.6299
M16
G05
G00X8.685Y-11.4764
M15
G01X8.6575Y-11.4764
M16
G05
G00X8.685Y-12.3228
M15
G01X8.6575Y-12.3228
M16
G05
G00X9.0591Y-10.6299
M15
G01X9.0315Y-10.6299
M16
G05
G00X9.0591Y-11.4764
M15
G01X9.0315Y-11.4764
M16
G05
G00X9.0591Y-12.3228
M15
G01X9.0315Y-12.3228
M16
G05
G00X9.5315Y-10.6299
M15
G01X9.5039Y-10.6299
M16
G05
G00X9.5315Y-11.4764
M15
G01X9.5039Y-11.4764
M16
G05
G00X9.5315Y-12.3228
M15
G01X9.5039Y-12.3228
M16
G05
G00X9.9055Y-10.6299
M15
G01X9.878Y-10.6299
M16
G05
G00X9.9055Y-11.4764
M15
G01X9.878Y-11.4764
M16
G05
G00X9.9055Y-12.3228
M15
G01X9.878Y-12.3228
M16
G05
G00X10.378Y-10.6299
M15
G01X10.3504Y-10.6299
M16
G05
G00X10.378Y-11.4764
M15
G01X10.3504Y-11.4764
M16
G05
G00X10.378Y-12.3228
M15
G01X10.3504Y-12.3228
M16
G05
G00X10.752Y-10.6299
M15
G01X10.7244Y-10.6299
M16
G05
G00X10.752Y-11.4764
M15
G01X10.7244Y-11.4764
M16
G05
G00X10.752Y-12.3228
M15
G01X10.7244Y-12.3228
M16
G05
G00X11.2244Y-10.6299
M15
G01X11.1969Y-10.6299
M16
G05
G00X11.2244Y-11.4764
M15
G01X11.1969Y-11.4764
M16
G05
G00X11.2244Y-12.3228
M15
G01X11.1969Y-12.3228
M16
G05
G00X11.5984Y-10.6299
M15
G01X11.5709Y-10.6299
M16
G05
G00X11.5984Y-11.4764
M15
G01X11.5709Y-11.4764
M16
G05
G00X11.5984Y-12.3228
M15
G01X11.5709Y-12.3228
M16
G05
G00X12.0709Y-10.6299
M15
G01X12.0433Y-10.6299
M16
G05
G00X12.0709Y-11.4764
M15
G01X12.0433Y-11.4764
M16
G05
G00X12.0709Y-12.3228
M15
G01X12.0433Y-12.3228
M16
G05
G00X12.4449Y-10.6299
M15
G01X12.4173Y-10.6299
M16
G05
G00X12.4449Y-11.4764
M15
G01X12.4173Y-11.4764
M16
G05
G00X12.4449Y-12.3228
M15
G01X12.4173Y-12.3228
M16
G05
G00X12.9173Y-10.6299
M15
G01X12.8898Y-10.6299
M16
G05
G00X12.9173Y-11.4764
M15
G01X12.8898Y-11.4764
M16
G05
G00X12.9173Y-12.3228
M15
G01X12.8898Y-12.3228
M16
G05
G00X13.2913Y-10.6299
M15
G01X13.2638Y-10.6299
M16
G05
G00X13.2913Y-11.4764
M15
G01X13.2638Y-11.4764
M16
G05
G00X13.2913Y-12.3228
M15
G01X13.2638Y-12.3228
M16
G05
T0
M30
