%TF.GenerationSoftware,KiCad,Pcbnew,7.99.0-1990-g812c56bdc7*%
%TF.CreationDate,2023-08-03T23:21:48+02:00*%
%TF.ProjectId,esp32_midi,65737033-325f-46d6-9964-692e6b696361,rev?*%
%TF.SameCoordinates,Original*%
%TF.FileFunction,Legend,Bot*%
%TF.FilePolarity,Positive*%
%FSLAX46Y46*%
G04 Gerber Fmt 4.6, Leading zero omitted, Abs format (unit mm)*
G04 Created by KiCad (PCBNEW 7.99.0-1990-g812c56bdc7) date 2023-08-03 23:21:48*
%MOMM*%
%LPD*%
G01*
G04 APERTURE LIST*
G04 Aperture macros list*
%AMRoundRect*
0 Rectangle with rounded corners*
0 $1 Rounding radius*
0 $2 $3 $4 $5 $6 $7 $8 $9 X,Y pos of 4 corners*
0 Add a 4 corners polygon primitive as box body*
4,1,4,$2,$3,$4,$5,$6,$7,$8,$9,$2,$3,0*
0 Add four circle primitives for the rounded corners*
1,1,$1+$1,$2,$3*
1,1,$1+$1,$4,$5*
1,1,$1+$1,$6,$7*
1,1,$1+$1,$8,$9*
0 Add four rect primitives between the rounded corners*
20,1,$1+$1,$2,$3,$4,$5,0*
20,1,$1+$1,$4,$5,$6,$7,0*
20,1,$1+$1,$6,$7,$8,$9,0*
20,1,$1+$1,$8,$9,$2,$3,0*%
G04 Aperture macros list end*
%ADD10C,1.524000*%
%ADD11R,1.750000X1.750000*%
%ADD12C,1.750000*%
%ADD13C,2.700000*%
%ADD14R,1.800000X1.800000*%
%ADD15C,1.800000*%
%ADD16RoundRect,0.500000X-1.000000X0.500000X-1.000000X-0.500000X1.000000X-0.500000X1.000000X0.500000X0*%
%ADD17C,0.900000*%
%ADD18C,8.000000*%
%ADD19R,1.700000X1.700000*%
%ADD20O,1.700000X1.700000*%
%ADD21RoundRect,0.550000X-0.550000X-1.550000X0.550000X-1.550000X0.550000X1.550000X-0.550000X1.550000X0*%
%ADD22C,0.650000*%
%ADD23O,1.000000X2.100000*%
%ADD24O,1.000000X1.800000*%
%ADD25R,1.600000X1.600000*%
%ADD26O,1.600000X1.600000*%
%ADD27C,2.000000*%
%ADD28R,4.400000X1.800000*%
%ADD29O,4.000000X1.800000*%
%ADD30O,1.800000X4.000000*%
%ADD31C,0.800000*%
G04 APERTURE END LIST*
%LPC*%
D10*
%TO.C,SW26*%
X182000000Y-133520000D03*
X182000000Y-138600000D03*
X182000000Y-143680000D03*
%TD*%
%TO.C,SW31*%
X289500000Y-133520000D03*
X289500000Y-138600000D03*
X289500000Y-143680000D03*
%TD*%
%TO.C,SW60*%
X225000000Y-219520000D03*
X225000000Y-224600000D03*
X225000000Y-229680000D03*
%TD*%
%TO.C,SW6*%
X178000000Y-62520000D03*
X178000000Y-67600000D03*
X178000000Y-72680000D03*
%TD*%
%TO.C,SW52*%
X225000000Y-198020000D03*
X225000000Y-203100000D03*
X225000000Y-208180000D03*
%TD*%
D11*
%TO.C,R16*%
X178640000Y-325375000D03*
D12*
X180890000Y-325375000D03*
X178640000Y-396125000D03*
X183090000Y-325375000D03*
X185340000Y-325375000D03*
X183090000Y-396125000D03*
D13*
X181990000Y-335780000D03*
X181990000Y-383110000D03*
%TD*%
D10*
%TO.C,SW12*%
X225000000Y-90520000D03*
X225000000Y-95600000D03*
X225000000Y-100680000D03*
%TD*%
%TO.C,SW14*%
X268000000Y-90520000D03*
X268000000Y-95600000D03*
X268000000Y-100680000D03*
%TD*%
%TO.C,SW37*%
X246500000Y-155020000D03*
X246500000Y-160100000D03*
X246500000Y-165180000D03*
%TD*%
D14*
%TO.C,R31*%
X335000000Y-262500000D03*
D15*
X332500000Y-262500000D03*
X330000000Y-262500000D03*
D16*
X337250000Y-270000000D03*
X327750000Y-270000000D03*
%TD*%
D10*
%TO.C,SW33*%
X332500000Y-133520000D03*
X332500000Y-138600000D03*
X332500000Y-143680000D03*
%TD*%
%TO.C,SW36*%
X225000000Y-155020000D03*
X225000000Y-160100000D03*
X225000000Y-165180000D03*
%TD*%
D17*
%TO.C,H4*%
X318750000Y-399000000D03*
X319628680Y-396878680D03*
X319628680Y-401121320D03*
X321750000Y-396000000D03*
D18*
X321750000Y-399000000D03*
D17*
X321750000Y-402000000D03*
X323871320Y-396878680D03*
X323871320Y-401121320D03*
X324750000Y-399000000D03*
%TD*%
D10*
%TO.C,SW29*%
X246500000Y-133520000D03*
X246500000Y-138600000D03*
X246500000Y-143680000D03*
%TD*%
D14*
%TO.C,R26*%
X227500000Y-262500000D03*
D15*
X225000000Y-262500000D03*
X222500000Y-262500000D03*
D16*
X229750000Y-270000000D03*
X220250000Y-270000000D03*
%TD*%
D19*
%TO.C,SW79*%
X281400000Y-15500000D03*
D20*
X281400000Y-18040000D03*
%TD*%
D14*
%TO.C,R47*%
X335000000Y-305500000D03*
D15*
X332500000Y-305500000D03*
X330000000Y-305500000D03*
D16*
X337250000Y-313000000D03*
X327750000Y-313000000D03*
%TD*%
D10*
%TO.C,SW63*%
X289500000Y-219520000D03*
X289500000Y-224600000D03*
X289500000Y-229680000D03*
%TD*%
%TO.C,SW10*%
X182000000Y-89920000D03*
X182000000Y-95000000D03*
X182000000Y-100080000D03*
%TD*%
D14*
%TO.C,R29*%
X292000000Y-262500000D03*
D15*
X289500000Y-262500000D03*
X287000000Y-262500000D03*
D16*
X294250000Y-270000000D03*
X284750000Y-270000000D03*
%TD*%
D21*
%TO.C,SW74*%
X313900000Y-65000000D03*
X309100000Y-65000000D03*
%TD*%
D22*
%TO.C,USBC1*%
X319225000Y-18387500D03*
X313445000Y-18387500D03*
D23*
X320655000Y-18887500D03*
D24*
X320655000Y-14707500D03*
X312015000Y-14707500D03*
D23*
X312015000Y-18887500D03*
%TD*%
D10*
%TO.C,SW7*%
X193000000Y-62520000D03*
X193000000Y-67600000D03*
X193000000Y-72680000D03*
%TD*%
D14*
%TO.C,R39*%
X335000000Y-284000000D03*
D15*
X332500000Y-284000000D03*
X330000000Y-284000000D03*
D16*
X337250000Y-291500000D03*
X327750000Y-291500000D03*
%TD*%
D10*
%TO.C,SW61*%
X246500000Y-219520000D03*
X246500000Y-224600000D03*
X246500000Y-229680000D03*
%TD*%
%TO.C,SW42*%
X182000000Y-176520000D03*
X182000000Y-181600000D03*
X182000000Y-186680000D03*
%TD*%
D14*
%TO.C,R38*%
X313500000Y-284000000D03*
D15*
X311000000Y-284000000D03*
X308500000Y-284000000D03*
D16*
X315750000Y-291500000D03*
X306250000Y-291500000D03*
%TD*%
D11*
%TO.C,R17*%
X200140000Y-325375000D03*
D12*
X202390000Y-325375000D03*
X200140000Y-396125000D03*
X204590000Y-325375000D03*
X206840000Y-325375000D03*
X204590000Y-396125000D03*
D13*
X203490000Y-335780000D03*
X203490000Y-383110000D03*
%TD*%
D10*
%TO.C,SW2*%
X178000000Y-45520000D03*
X178000000Y-50600000D03*
X178000000Y-55680000D03*
%TD*%
D14*
%TO.C,R25*%
X206000000Y-262500000D03*
D15*
X203500000Y-262500000D03*
X201000000Y-262500000D03*
D16*
X208250000Y-270000000D03*
X198750000Y-270000000D03*
%TD*%
D25*
%TO.C,U4*%
X209400000Y-35700000D03*
D26*
X209400000Y-38240000D03*
X209400000Y-40780000D03*
X217020000Y-40780000D03*
X217020000Y-38240000D03*
X217020000Y-35700000D03*
%TD*%
D10*
%TO.C,SW38*%
X268000000Y-155020000D03*
X268000000Y-160100000D03*
X268000000Y-165180000D03*
%TD*%
%TO.C,SW50*%
X182000000Y-198020000D03*
X182000000Y-203100000D03*
X182000000Y-208180000D03*
%TD*%
%TO.C,SW73*%
X332500000Y-241020000D03*
X332500000Y-246100000D03*
X332500000Y-251180000D03*
%TD*%
%TO.C,SW48*%
X311000000Y-176520000D03*
X311000000Y-181600000D03*
X311000000Y-186680000D03*
%TD*%
%TO.C,SW32*%
X311000000Y-133520000D03*
X311000000Y-138600000D03*
X311000000Y-143680000D03*
%TD*%
%TO.C,SW72*%
X311000000Y-241020000D03*
X311000000Y-246100000D03*
X311000000Y-251180000D03*
%TD*%
D14*
%TO.C,R46*%
X313500000Y-305500000D03*
D15*
X311000000Y-305500000D03*
X308500000Y-305500000D03*
D16*
X315750000Y-313000000D03*
X306250000Y-313000000D03*
%TD*%
D19*
%TO.C,SW81*%
X292550000Y-15500000D03*
D20*
X292550000Y-18040000D03*
%TD*%
D10*
%TO.C,SW35*%
X203500000Y-155020000D03*
X203500000Y-160100000D03*
X203500000Y-165180000D03*
%TD*%
%TO.C,SW13*%
X246500000Y-90520000D03*
X246500000Y-95600000D03*
X246500000Y-100680000D03*
%TD*%
D11*
%TO.C,R22*%
X307640000Y-325375000D03*
D12*
X309890000Y-325375000D03*
X307640000Y-396125000D03*
X312090000Y-325375000D03*
X314340000Y-325375000D03*
X312090000Y-396125000D03*
D13*
X310990000Y-335780000D03*
X310990000Y-383110000D03*
%TD*%
D10*
%TO.C,SW69*%
X246500000Y-241020000D03*
X246500000Y-246100000D03*
X246500000Y-251180000D03*
%TD*%
D14*
%TO.C,R44*%
X270500000Y-305500000D03*
D15*
X268000000Y-305500000D03*
X265500000Y-305500000D03*
D16*
X272750000Y-313000000D03*
X263250000Y-313000000D03*
%TD*%
D27*
%TO.C,J4*%
X252800000Y-24622500D03*
X260300000Y-24622500D03*
X267800000Y-24622500D03*
X255300000Y-26822500D03*
X265300000Y-26822500D03*
X265300000Y-14622500D03*
X255300000Y-14622500D03*
%TD*%
D19*
%TO.C,J1*%
X242000000Y-74000000D03*
D20*
X242000000Y-71460000D03*
X242000000Y-68920000D03*
X242000000Y-66380000D03*
X242000000Y-63840000D03*
X242000000Y-61300000D03*
X242000000Y-58760000D03*
X242000000Y-56220000D03*
%TD*%
D14*
%TO.C,R45*%
X292000000Y-305500000D03*
D15*
X289500000Y-305500000D03*
X287000000Y-305500000D03*
D16*
X294250000Y-313000000D03*
X284750000Y-313000000D03*
%TD*%
D10*
%TO.C,SW49*%
X332500000Y-176520000D03*
X332500000Y-181600000D03*
X332500000Y-186680000D03*
%TD*%
%TO.C,SW21*%
X246500000Y-112020000D03*
X246500000Y-117100000D03*
X246500000Y-122180000D03*
%TD*%
D19*
%TO.C,SW80*%
X287050000Y-15500000D03*
D20*
X287050000Y-18040000D03*
%TD*%
D10*
%TO.C,SW68*%
X225000000Y-241020000D03*
X225000000Y-246100000D03*
X225000000Y-251180000D03*
%TD*%
D14*
%TO.C,R34*%
X227500000Y-284000000D03*
D15*
X225000000Y-284000000D03*
X222500000Y-284000000D03*
D16*
X229750000Y-291500000D03*
X220250000Y-291500000D03*
%TD*%
D21*
%TO.C,SW75*%
X325900000Y-53000000D03*
X321100000Y-53000000D03*
%TD*%
D14*
%TO.C,R30*%
X313500000Y-262500000D03*
D15*
X311000000Y-262500000D03*
X308500000Y-262500000D03*
D16*
X315750000Y-270000000D03*
X306250000Y-270000000D03*
%TD*%
D22*
%TO.C,USBC2*%
X201635000Y-18387500D03*
X195855000Y-18387500D03*
D23*
X203065000Y-18887500D03*
D24*
X203065000Y-14707500D03*
X194425000Y-14707500D03*
D23*
X194425000Y-18887500D03*
%TD*%
D10*
%TO.C,SW58*%
X182000000Y-219520000D03*
X182000000Y-224600000D03*
X182000000Y-229680000D03*
%TD*%
D17*
%TO.C,H2*%
X335000000Y-17000000D03*
X335878680Y-14878680D03*
X335878680Y-19121320D03*
X338000000Y-14000000D03*
D18*
X338000000Y-17000000D03*
D17*
X338000000Y-20000000D03*
X340121320Y-14878680D03*
X340121320Y-19121320D03*
X341000000Y-17000000D03*
%TD*%
D10*
%TO.C,SW30*%
X268000000Y-133520000D03*
X268000000Y-138600000D03*
X268000000Y-143680000D03*
%TD*%
%TO.C,SW46*%
X268000000Y-176520000D03*
X268000000Y-181600000D03*
X268000000Y-186680000D03*
%TD*%
%TO.C,SW55*%
X289500000Y-198020000D03*
X289500000Y-203100000D03*
X289500000Y-208180000D03*
%TD*%
%TO.C,SW45*%
X246500000Y-176520000D03*
X246500000Y-181600000D03*
X246500000Y-186680000D03*
%TD*%
%TO.C,SW56*%
X311000000Y-198020000D03*
X311000000Y-203100000D03*
X311000000Y-208180000D03*
%TD*%
%TO.C,SW57*%
X332500000Y-198020000D03*
X332500000Y-203100000D03*
X332500000Y-208180000D03*
%TD*%
%TO.C,SW34*%
X182000000Y-155020000D03*
X182000000Y-160100000D03*
X182000000Y-165180000D03*
%TD*%
%TO.C,SW71*%
X289500000Y-241020000D03*
X289500000Y-246100000D03*
X289500000Y-251180000D03*
%TD*%
%TO.C,SW25*%
X332500000Y-112020000D03*
X332500000Y-117100000D03*
X332500000Y-122180000D03*
%TD*%
%TO.C,SW41*%
X332500000Y-155020000D03*
X332500000Y-160100000D03*
X332500000Y-165180000D03*
%TD*%
%TO.C,SW4*%
X208000000Y-45520000D03*
X208000000Y-50600000D03*
X208000000Y-55680000D03*
%TD*%
%TO.C,SW24*%
X311000000Y-112020000D03*
X311000000Y-117100000D03*
X311000000Y-122180000D03*
%TD*%
D28*
%TO.C,J2*%
X301900000Y-25997500D03*
D29*
X301900000Y-20197500D03*
D30*
X297100000Y-22997500D03*
%TD*%
D10*
%TO.C,SW44*%
X225000000Y-176520000D03*
X225000000Y-181600000D03*
X225000000Y-186680000D03*
%TD*%
D14*
%TO.C,R43*%
X249000000Y-305500000D03*
D15*
X246500000Y-305500000D03*
X244000000Y-305500000D03*
D16*
X251250000Y-313000000D03*
X241750000Y-313000000D03*
%TD*%
D10*
%TO.C,SW16*%
X311000000Y-90520000D03*
X311000000Y-95600000D03*
X311000000Y-100680000D03*
%TD*%
D21*
%TO.C,SW77*%
X325900000Y-77000000D03*
X321100000Y-77000000D03*
%TD*%
D14*
%TO.C,R42*%
X227500000Y-305500000D03*
D15*
X225000000Y-305500000D03*
X222500000Y-305500000D03*
D16*
X229750000Y-313000000D03*
X220250000Y-313000000D03*
%TD*%
D10*
%TO.C,SW5*%
X223000000Y-45520000D03*
X223000000Y-50600000D03*
X223000000Y-55680000D03*
%TD*%
%TO.C,SW59*%
X203500000Y-219520000D03*
X203500000Y-224600000D03*
X203500000Y-229680000D03*
%TD*%
D14*
%TO.C,R35*%
X249000000Y-284000000D03*
D15*
X246500000Y-284000000D03*
X244000000Y-284000000D03*
D16*
X251250000Y-291500000D03*
X241750000Y-291500000D03*
%TD*%
D10*
%TO.C,SW39*%
X289500000Y-155020000D03*
X289500000Y-160100000D03*
X289500000Y-165180000D03*
%TD*%
%TO.C,SW19*%
X203500000Y-112020000D03*
X203500000Y-117100000D03*
X203500000Y-122180000D03*
%TD*%
%TO.C,SW53*%
X246500000Y-198020000D03*
X246500000Y-203100000D03*
X246500000Y-208180000D03*
%TD*%
D27*
%TO.C,J5*%
X212800000Y-24622500D03*
X220300000Y-24622500D03*
X227800000Y-24622500D03*
X215300000Y-26822500D03*
X225300000Y-26822500D03*
X225300000Y-14622500D03*
X215300000Y-14622500D03*
%TD*%
D14*
%TO.C,R37*%
X292000000Y-284000000D03*
D15*
X289500000Y-284000000D03*
X287000000Y-284000000D03*
D16*
X294250000Y-291500000D03*
X284750000Y-291500000D03*
%TD*%
D10*
%TO.C,SW22*%
X268000000Y-112020000D03*
X268000000Y-117100000D03*
X268000000Y-122180000D03*
%TD*%
D11*
%TO.C,R21*%
X286140000Y-325375000D03*
D12*
X288390000Y-325375000D03*
X286140000Y-396125000D03*
X290590000Y-325375000D03*
X292840000Y-325375000D03*
X290590000Y-396125000D03*
D13*
X289490000Y-335780000D03*
X289490000Y-383110000D03*
%TD*%
D10*
%TO.C,SW40*%
X311000000Y-155020000D03*
X311000000Y-160100000D03*
X311000000Y-165180000D03*
%TD*%
%TO.C,SW70*%
X268000000Y-241020000D03*
X268000000Y-246100000D03*
X268000000Y-251180000D03*
%TD*%
%TO.C,SW67*%
X203500000Y-241020000D03*
X203500000Y-246100000D03*
X203500000Y-251180000D03*
%TD*%
%TO.C,SW3*%
X193000000Y-45520000D03*
X193000000Y-50600000D03*
X193000000Y-55680000D03*
%TD*%
%TO.C,SW27*%
X203500000Y-133520000D03*
X203500000Y-138600000D03*
X203500000Y-143680000D03*
%TD*%
D14*
%TO.C,R36*%
X270500000Y-284000000D03*
D15*
X268000000Y-284000000D03*
X265500000Y-284000000D03*
D16*
X272750000Y-291500000D03*
X263250000Y-291500000D03*
%TD*%
D10*
%TO.C,SW54*%
X268000000Y-198020000D03*
X268000000Y-203100000D03*
X268000000Y-208180000D03*
%TD*%
D17*
%TO.C,H1*%
X173000000Y-17000000D03*
X173878680Y-14878680D03*
X173878680Y-19121320D03*
X176000000Y-14000000D03*
D18*
X176000000Y-17000000D03*
D17*
X176000000Y-20000000D03*
X178121320Y-14878680D03*
X178121320Y-19121320D03*
X179000000Y-17000000D03*
%TD*%
D10*
%TO.C,SW20*%
X225000000Y-112020000D03*
X225000000Y-117100000D03*
X225000000Y-122180000D03*
%TD*%
D17*
%TO.C,H3*%
X189750000Y-399000000D03*
X190628680Y-396878680D03*
X190628680Y-401121320D03*
X192750000Y-396000000D03*
D18*
X192750000Y-399000000D03*
D17*
X192750000Y-402000000D03*
X194871320Y-396878680D03*
X194871320Y-401121320D03*
X195750000Y-399000000D03*
%TD*%
D10*
%TO.C,SW17*%
X332500000Y-90520000D03*
X332500000Y-95600000D03*
X332500000Y-100680000D03*
%TD*%
%TO.C,SW15*%
X289500000Y-90520000D03*
X289500000Y-95600000D03*
X289500000Y-100680000D03*
%TD*%
D11*
%TO.C,R20*%
X264640000Y-325375000D03*
D12*
X266890000Y-325375000D03*
X264640000Y-396125000D03*
X269090000Y-325375000D03*
X271340000Y-325375000D03*
X269090000Y-396125000D03*
D13*
X267990000Y-335780000D03*
X267990000Y-383110000D03*
%TD*%
D19*
%TO.C,SW78*%
X275550000Y-15500000D03*
D20*
X275550000Y-18040000D03*
%TD*%
D10*
%TO.C,SW18*%
X182000000Y-112020000D03*
X182000000Y-117100000D03*
X182000000Y-122180000D03*
%TD*%
%TO.C,SW66*%
X182000000Y-241020000D03*
X182000000Y-246100000D03*
X182000000Y-251180000D03*
%TD*%
D11*
%TO.C,R23*%
X329140000Y-325375000D03*
D12*
X331390000Y-325375000D03*
X329140000Y-396125000D03*
X333590000Y-325375000D03*
X335840000Y-325375000D03*
X333590000Y-396125000D03*
D13*
X332490000Y-335780000D03*
X332490000Y-383110000D03*
%TD*%
D10*
%TO.C,SW47*%
X289500000Y-176520000D03*
X289500000Y-181600000D03*
X289500000Y-186680000D03*
%TD*%
D14*
%TO.C,R28*%
X270500000Y-262500000D03*
D15*
X268000000Y-262500000D03*
X265500000Y-262500000D03*
D16*
X272750000Y-270000000D03*
X263250000Y-270000000D03*
%TD*%
D14*
%TO.C,R33*%
X206000000Y-284000000D03*
D15*
X203500000Y-284000000D03*
X201000000Y-284000000D03*
D16*
X208250000Y-291500000D03*
X198750000Y-291500000D03*
%TD*%
D11*
%TO.C,R18*%
X221640000Y-325375000D03*
D12*
X223890000Y-325375000D03*
X221640000Y-396125000D03*
X226090000Y-325375000D03*
X228340000Y-325375000D03*
X226090000Y-396125000D03*
D13*
X224990000Y-335780000D03*
X224990000Y-383110000D03*
%TD*%
D14*
%TO.C,R40*%
X184500000Y-305500000D03*
D15*
X182000000Y-305500000D03*
X179500000Y-305500000D03*
D16*
X186750000Y-313000000D03*
X177250000Y-313000000D03*
%TD*%
D10*
%TO.C,SW62*%
X268000000Y-219520000D03*
X268000000Y-224600000D03*
X268000000Y-229680000D03*
%TD*%
%TO.C,SW8*%
X208000000Y-62520000D03*
X208000000Y-67600000D03*
X208000000Y-72680000D03*
%TD*%
%TO.C,SW65*%
X332500000Y-219520000D03*
X332500000Y-224600000D03*
X332500000Y-229680000D03*
%TD*%
%TO.C,SW51*%
X203500000Y-198020000D03*
X203500000Y-203100000D03*
X203500000Y-208180000D03*
%TD*%
%TO.C,SW23*%
X289500000Y-112020000D03*
X289500000Y-117100000D03*
X289500000Y-122180000D03*
%TD*%
D14*
%TO.C,R24*%
X184500000Y-262500000D03*
D15*
X182000000Y-262500000D03*
X179500000Y-262500000D03*
D16*
X186750000Y-270000000D03*
X177250000Y-270000000D03*
%TD*%
D10*
%TO.C,SW28*%
X225000000Y-133520000D03*
X225000000Y-138600000D03*
X225000000Y-143680000D03*
%TD*%
D14*
%TO.C,R32*%
X184500000Y-284000000D03*
D15*
X182000000Y-284000000D03*
X179500000Y-284000000D03*
D16*
X186750000Y-291500000D03*
X177250000Y-291500000D03*
%TD*%
D10*
%TO.C,SW43*%
X203500000Y-176520000D03*
X203500000Y-181600000D03*
X203500000Y-186680000D03*
%TD*%
%TO.C,SW11*%
X203500000Y-90520000D03*
X203500000Y-95600000D03*
X203500000Y-100680000D03*
%TD*%
D11*
%TO.C,R19*%
X243140000Y-325375000D03*
D12*
X245390000Y-325375000D03*
X243140000Y-396125000D03*
X247590000Y-325375000D03*
X249840000Y-325375000D03*
X247590000Y-396125000D03*
D13*
X246490000Y-335780000D03*
X246490000Y-383110000D03*
%TD*%
D10*
%TO.C,SW9*%
X223000000Y-62520000D03*
X223000000Y-67600000D03*
X223000000Y-72680000D03*
%TD*%
D14*
%TO.C,R27*%
X249000000Y-262500000D03*
D15*
X246500000Y-262500000D03*
X244000000Y-262500000D03*
D16*
X251250000Y-270000000D03*
X241750000Y-270000000D03*
%TD*%
D10*
%TO.C,SW64*%
X311000000Y-219520000D03*
X311000000Y-224600000D03*
X311000000Y-229680000D03*
%TD*%
D14*
%TO.C,R41*%
X206000000Y-305500000D03*
D15*
X203500000Y-305500000D03*
X201000000Y-305500000D03*
D16*
X208250000Y-313000000D03*
X198750000Y-313000000D03*
%TD*%
D27*
%TO.C,SW1*%
X185250000Y-37350000D03*
X185250000Y-30850000D03*
X189750000Y-37350000D03*
X189750000Y-30850000D03*
%TD*%
D21*
%TO.C,SW76*%
X337900000Y-65000000D03*
X333100000Y-65000000D03*
%TD*%
D27*
%TO.C,J6*%
X232800000Y-24622500D03*
X240300000Y-24622500D03*
X247800000Y-24622500D03*
X235300000Y-26822500D03*
X245300000Y-26822500D03*
X245300000Y-14622500D03*
X235300000Y-14622500D03*
%TD*%
D31*
X260500000Y-237629000D03*
X191674000Y-127078000D03*
X224058000Y-235898000D03*
X219100000Y-114130000D03*
X259336000Y-133162000D03*
X189669000Y-153621000D03*
X261692000Y-191829000D03*
X209225000Y-184221000D03*
X189938000Y-196821000D03*
X324998000Y-130854000D03*
X273987000Y-179272000D03*
X278249000Y-151547000D03*
X274075000Y-183891000D03*
X220232000Y-173329000D03*
X325035000Y-32669100D03*
X262785000Y-110121000D03*
X321789000Y-193852000D03*
X215550000Y-62509400D03*
X264338000Y-152533000D03*
X193142000Y-116464000D03*
X317700000Y-28695900D03*
X216762000Y-282931000D03*
X189650000Y-173623000D03*
X328850000Y-131488000D03*
X204089000Y-191446000D03*
X313078000Y-123442000D03*
X197838000Y-244886000D03*
X311442000Y-119798000D03*
X324848000Y-68309000D03*
X278838000Y-127008000D03*
X231431000Y-62135700D03*
X278834000Y-194925000D03*
X212348000Y-117003000D03*
X300997000Y-147071000D03*
X232826000Y-131575000D03*
X305489000Y-194739000D03*
X317401000Y-108248000D03*
X207062000Y-59575000D03*
X263750000Y-171364000D03*
X299012000Y-117737000D03*
X204349000Y-49526200D03*
X221354000Y-131785000D03*
X211146000Y-121761000D03*
X218988000Y-107612000D03*
X301822000Y-133348000D03*
X275342000Y-235728000D03*
X301825000Y-151297000D03*
X289193000Y-27012600D03*
X311272000Y-32539200D03*
X235557000Y-107861000D03*
X322322000Y-108658000D03*
X247437000Y-235728000D03*
X194941000Y-48438700D03*
X310238000Y-108842000D03*
X193792000Y-264193000D03*
X257925000Y-210874429D03*
X191169000Y-62366200D03*
X236617000Y-172277000D03*
X296418000Y-85000800D03*
X313025000Y-128762000D03*
X282762000Y-106044000D03*
X192725000Y-33550000D03*
X231250000Y-262525000D03*
X228475000Y-231400000D03*
X206600000Y-237825000D03*
X181325000Y-174750000D03*
X252225000Y-150250000D03*
X324925000Y-168300000D03*
X300850000Y-66850000D03*
X191625000Y-133325000D03*
X321650000Y-91025000D03*
X174250000Y-230875000D03*
X202925000Y-80800000D03*
X270800000Y-207750000D03*
X213200000Y-29600000D03*
X173925000Y-166850000D03*
X267250000Y-191000000D03*
X245925000Y-107325000D03*
X207575000Y-95750000D03*
X245475000Y-147350000D03*
X294150000Y-232600000D03*
X241700000Y-155125000D03*
X303775000Y-122375000D03*
X207500000Y-122150000D03*
X301925000Y-65325000D03*
X322650000Y-95500000D03*
X230700000Y-78650000D03*
X236700000Y-47325000D03*
X279650000Y-173225000D03*
X323800000Y-106550000D03*
X303775000Y-284725000D03*
X217350000Y-31375000D03*
X196000000Y-172350000D03*
X177450000Y-219400000D03*
X241575000Y-210400000D03*
X323725000Y-155075000D03*
X267075000Y-271375000D03*
X315250000Y-165200000D03*
X317400000Y-53925000D03*
X270875000Y-145875000D03*
X221850000Y-40900000D03*
X340400000Y-218000000D03*
X214975000Y-96325000D03*
X188150000Y-112200000D03*
X193450000Y-37125000D03*
X289350000Y-194125000D03*
X192525000Y-224950000D03*
X342000000Y-41300000D03*
X174225000Y-39475000D03*
X339700000Y-59200000D03*
X208525000Y-100400000D03*
X340100000Y-35125000D03*
X330975000Y-81675000D03*
X300550000Y-85050000D03*
X233800000Y-234350000D03*
X293700000Y-28350000D03*
X227550000Y-328900000D03*
X196950000Y-63100000D03*
X294550000Y-66050000D03*
X317900000Y-202350000D03*
X272525000Y-154625000D03*
X188450000Y-49475000D03*
X336150000Y-194100000D03*
X254600000Y-144925000D03*
X302300000Y-66150000D03*
X312775000Y-331925000D03*
X189850000Y-75575000D03*
X312175000Y-173475000D03*
X338550000Y-88750000D03*
X222000000Y-328300000D03*
X265000000Y-240550000D03*
X319375000Y-102950000D03*
X264325000Y-197375000D03*
X309025000Y-86450000D03*
X200675000Y-112850000D03*
X334300000Y-74525000D03*
X327175000Y-296800000D03*
X230750000Y-67425000D03*
X284700000Y-207200000D03*
X327900000Y-174050000D03*
X339150000Y-38850000D03*
X338525000Y-56125000D03*
X339425000Y-55925000D03*
X304175000Y-198225000D03*
X295125000Y-164725000D03*
X278475000Y-149425000D03*
X253450000Y-154025000D03*
X274800000Y-281400000D03*
X201000000Y-45875000D03*
X208050000Y-265925000D03*
X296075000Y-15675000D03*
X277900000Y-61675000D03*
X334625000Y-113975000D03*
X286700000Y-196400000D03*
X200500000Y-79225000D03*
X216075000Y-229525000D03*
X273025000Y-110575000D03*
X247275000Y-153425000D03*
X202475000Y-74175000D03*
X197025000Y-60375000D03*
X275300000Y-159900000D03*
X219025000Y-208875000D03*
X212575000Y-208325000D03*
X241600000Y-110600000D03*
X210350000Y-54800000D03*
X195775000Y-73950000D03*
X339325000Y-45675000D03*
X215775000Y-76875000D03*
X196275000Y-305600000D03*
X324200000Y-181700000D03*
X172025000Y-122125000D03*
X268250000Y-109550000D03*
X299100000Y-198600000D03*
X338200000Y-278150000D03*
X199075000Y-195650000D03*
X253425000Y-213850000D03*
X314300000Y-86900000D03*
X338525000Y-40350000D03*
X227850000Y-166575000D03*
X275575000Y-186800000D03*
X197775000Y-45525000D03*
X320925000Y-61675000D03*
X212750000Y-81025000D03*
X313350000Y-279275000D03*
X299850000Y-235700000D03*
X270450000Y-82600000D03*
X285625000Y-390075000D03*
X218650000Y-51150000D03*
X307850000Y-44750000D03*
X331850000Y-291275000D03*
X321150000Y-88700000D03*
X189150000Y-305725000D03*
X228975000Y-265400000D03*
X216300000Y-28800000D03*
X281225000Y-210500000D03*
X176375000Y-89800000D03*
X219500000Y-211100000D03*
X310525000Y-128575000D03*
X300850000Y-34275000D03*
X192475000Y-244175000D03*
X326450000Y-229000000D03*
X249025000Y-67700000D03*
X252475000Y-240675000D03*
X195475000Y-327275000D03*
X215675000Y-211525000D03*
X319075000Y-187275000D03*
X210900000Y-59350000D03*
X172175000Y-82050000D03*
X219125000Y-45350000D03*
X234725000Y-390575000D03*
X221300000Y-265475000D03*
X246025000Y-268825000D03*
X319925000Y-46625000D03*
X291150000Y-196375000D03*
X173550000Y-332025000D03*
X257475000Y-106275000D03*
X340350000Y-41600000D03*
X204250000Y-291150000D03*
X225625000Y-279575000D03*
X192950000Y-109500000D03*
X273250000Y-265200000D03*
X274700000Y-251575000D03*
X172600000Y-66225000D03*
X184200000Y-174800000D03*
X270075000Y-144350000D03*
X339325000Y-61450000D03*
X291625000Y-89850000D03*
X320225000Y-174275000D03*
X301975000Y-266400000D03*
X190200000Y-263925000D03*
X179750000Y-202500000D03*
X262000000Y-182000000D03*
X239425000Y-110775000D03*
X270400000Y-190725000D03*
X309382000Y-163423000D03*
X296900000Y-67950000D03*
X233975000Y-137625000D03*
X278950000Y-138050000D03*
X295050000Y-261575000D03*
X304750000Y-15150000D03*
X287500000Y-23275000D03*
X285175000Y-214925000D03*
X300650000Y-64575000D03*
X205675000Y-330200000D03*
X272075000Y-54800000D03*
X340775000Y-38325000D03*
X277075000Y-43200000D03*
X319400000Y-167425000D03*
X339200000Y-126250000D03*
X252375000Y-325325000D03*
X281425000Y-86475000D03*
X284150000Y-30275000D03*
X199600000Y-130175000D03*
X265975000Y-58650000D03*
X339150000Y-71450000D03*
X324850000Y-326825000D03*
X325800000Y-99400000D03*
X326875000Y-106550000D03*
X330775000Y-248250000D03*
X291925000Y-240425000D03*
X290975000Y-49675000D03*
X296075000Y-67625000D03*
X261900000Y-214900000D03*
X250650000Y-333050000D03*
X325600000Y-278150000D03*
X213500000Y-38050000D03*
X239825000Y-84300000D03*
X251025000Y-107600000D03*
X178750000Y-213800000D03*
X272725000Y-51100000D03*
X195375000Y-217375000D03*
X178275000Y-237050000D03*
X322150000Y-250700000D03*
X326900000Y-95550000D03*
X326625000Y-140125000D03*
X310375000Y-45000000D03*
X186000000Y-41550000D03*
X190425000Y-41600000D03*
X283550000Y-193325000D03*
X313750000Y-197025000D03*
X198600000Y-133550000D03*
X320800000Y-145750000D03*
X233525000Y-168875000D03*
X198350000Y-105825000D03*
X315375000Y-111575000D03*
X273725000Y-169025000D03*
X255825000Y-346450000D03*
X213050000Y-96300000D03*
X236700000Y-65600000D03*
X232250000Y-238125000D03*
X318925000Y-272475000D03*
X228175000Y-129800000D03*
X221625000Y-241300000D03*
X320025000Y-48450000D03*
X329100000Y-206900000D03*
X259000000Y-187025000D03*
X256475000Y-197325000D03*
X342425000Y-60875000D03*
X341975000Y-51950000D03*
X261150000Y-51725000D03*
X308700000Y-312900000D03*
X302700000Y-67025000D03*
X275725000Y-74225000D03*
X340350000Y-55850000D03*
X220500000Y-151425000D03*
X243125000Y-127550000D03*
X339825000Y-344025000D03*
X282475000Y-195525000D03*
X239250000Y-175950000D03*
X336650000Y-87375000D03*
X306350000Y-143100000D03*
X218325000Y-58950000D03*
X326600000Y-48850000D03*
X248750000Y-217600000D03*
X290000000Y-45425000D03*
X230000000Y-196175000D03*
X184300000Y-177675000D03*
X198900000Y-102900000D03*
X192875000Y-174775000D03*
X284600000Y-59575000D03*
X221900000Y-236950000D03*
X290525000Y-168375000D03*
X181925000Y-82525000D03*
X342000000Y-57075000D03*
X281050000Y-216850000D03*
X339150000Y-35350000D03*
X203350000Y-32675000D03*
X238900000Y-38100000D03*
X205500000Y-77550000D03*
X177225000Y-153075000D03*
X303700000Y-61350000D03*
X267150000Y-89050000D03*
X322875000Y-232050000D03*
X192625000Y-241550000D03*
X282850000Y-75950000D03*
X207800000Y-19850000D03*
X324450000Y-61625000D03*
X338250000Y-207525000D03*
X320025000Y-149325000D03*
X295000000Y-50650000D03*
X228975000Y-219100000D03*
X206775000Y-33158481D03*
X188200000Y-241000000D03*
X342450000Y-54750000D03*
X194600000Y-90350000D03*
X210900000Y-258750000D03*
X249225000Y-258025000D03*
X228375000Y-27775000D03*
X254500000Y-231200000D03*
X300925000Y-228925000D03*
X294950000Y-198625000D03*
X294175000Y-207600000D03*
X245050000Y-29375000D03*
X276775000Y-164650000D03*
X255975000Y-168300000D03*
X212775000Y-168300000D03*
X186000000Y-129825000D03*
X289850000Y-59225000D03*
X265450000Y-233175000D03*
X337525000Y-167700000D03*
X199375000Y-125700000D03*
X207000000Y-174550000D03*
X247050000Y-255500000D03*
X326550000Y-287175000D03*
X236625000Y-44250000D03*
X334475000Y-146100000D03*
X227800000Y-192650000D03*
X294550000Y-168100000D03*
X322050000Y-220925000D03*
X340350000Y-57375000D03*
X305800000Y-81300000D03*
X275600000Y-223300000D03*
X339500000Y-219775000D03*
X319850000Y-292575000D03*
X175025000Y-132075000D03*
X297750000Y-64275000D03*
X230900000Y-75675000D03*
X341650000Y-303225000D03*
X308350000Y-76375000D03*
X271250000Y-258000000D03*
X232625000Y-212300000D03*
X222925000Y-213575000D03*
X273700000Y-198000000D03*
X270100000Y-107700000D03*
X281625000Y-325450000D03*
X284700000Y-265400000D03*
X326925000Y-169025000D03*
X286825000Y-133200000D03*
X318850000Y-193325000D03*
X230600000Y-34525000D03*
X196025000Y-197125000D03*
X268850000Y-46675000D03*
X247650000Y-237650000D03*
X323575000Y-72400000D03*
X190850000Y-300700000D03*
X329225000Y-63275000D03*
X251700000Y-32250000D03*
X255423689Y-240760122D03*
X300825000Y-45825000D03*
X230150000Y-198525000D03*
X197450000Y-181650000D03*
X342050000Y-39825000D03*
X237850000Y-66625000D03*
X251050000Y-77500000D03*
X271675000Y-130300000D03*
X340350000Y-74200000D03*
X252700000Y-70475000D03*
X219550000Y-296425000D03*
X272325000Y-138100000D03*
X209750000Y-224775000D03*
X188850000Y-335075000D03*
X178775000Y-341375000D03*
X261350000Y-245475000D03*
X342750000Y-34025000D03*
X315675000Y-55900000D03*
X172600000Y-75025000D03*
X196200000Y-116575000D03*
X205375000Y-152025000D03*
X184325000Y-221525000D03*
X298925000Y-89675000D03*
X189575000Y-17225000D03*
X277025000Y-23425000D03*
X286025000Y-228975000D03*
X209125000Y-138800000D03*
X308925000Y-17375000D03*
X279275000Y-348250000D03*
X263175000Y-236825000D03*
X334300000Y-371275000D03*
X222400000Y-175375000D03*
X274650000Y-65675000D03*
X328250000Y-74050000D03*
X237900000Y-19475000D03*
X240300000Y-51275000D03*
X191825000Y-112425000D03*
X340400000Y-45675000D03*
X300025000Y-256300000D03*
X244850000Y-141000000D03*
X335775000Y-188950000D03*
X187075000Y-105825000D03*
X316150000Y-148225000D03*
X334650000Y-121800000D03*
X279500000Y-255625000D03*
X292275000Y-331625000D03*
X292100000Y-221425000D03*
X221275000Y-192650000D03*
X342050000Y-55600000D03*
X330500000Y-178375000D03*
X292800000Y-210500000D03*
X283325000Y-186550000D03*
X235625000Y-158475000D03*
X312775000Y-111850000D03*
X298575000Y-229075000D03*
X209025000Y-112600000D03*
X230975000Y-72925000D03*
X209025000Y-207875000D03*
X276250000Y-207025000D03*
X180225000Y-368775000D03*
X231550000Y-320225000D03*
X331500000Y-140850000D03*
X302400000Y-146575000D03*
X259752859Y-70037626D03*
X222650000Y-183375000D03*
X236575000Y-273975000D03*
X326575000Y-90875000D03*
X223100000Y-224875000D03*
X320575000Y-207800000D03*
X319125000Y-338075000D03*
X272025000Y-174800000D03*
X340525000Y-255725000D03*
X303425000Y-189200000D03*
X234050000Y-192650000D03*
X204475000Y-119025000D03*
X231250000Y-187950000D03*
X220925000Y-320050000D03*
X318550000Y-238225000D03*
X272700000Y-277700000D03*
X311475000Y-290275000D03*
X339725000Y-197125000D03*
X285925000Y-186575000D03*
X307875000Y-111650000D03*
X330950000Y-215775000D03*
X291525000Y-66100000D03*
X225150000Y-46450000D03*
X245125000Y-280150000D03*
X270875000Y-223925000D03*
X284400000Y-45575000D03*
X306500000Y-164875000D03*
X329875000Y-330775000D03*
X302550000Y-103075000D03*
X237225000Y-234350000D03*
X327875000Y-176350000D03*
X204025000Y-72875000D03*
X226575000Y-46100000D03*
X243725000Y-116850000D03*
X187975000Y-73625000D03*
X202997000Y-174710000D03*
X341300000Y-57350000D03*
X287325000Y-45375000D03*
X219150000Y-54425000D03*
X279675000Y-56225000D03*
X201350000Y-116825000D03*
X245275000Y-237725000D03*
X297375000Y-270075000D03*
X299773000Y-207302000D03*
X270175000Y-149625000D03*
X294950000Y-56075000D03*
X335625000Y-116275000D03*
X333025000Y-237975000D03*
X275725000Y-125225000D03*
X341750000Y-76125000D03*
X342825000Y-55475000D03*
X340400000Y-78275000D03*
X269325000Y-43800000D03*
X284450000Y-56475000D03*
X317750000Y-67350000D03*
X293300000Y-65975000D03*
X330875000Y-347750000D03*
X234925000Y-230250000D03*
X341650000Y-38625000D03*
X223650000Y-189700000D03*
X237875000Y-78975000D03*
X328000000Y-197475000D03*
X289425000Y-300525000D03*
X319800000Y-109900000D03*
X230600000Y-101300000D03*
X197300000Y-116650000D03*
X231225000Y-390275000D03*
X201250000Y-96750000D03*
X319625000Y-190475000D03*
X183500000Y-312725000D03*
X257725153Y-125800153D03*
X340975000Y-50450000D03*
X289800000Y-232625000D03*
X250775000Y-195950000D03*
X222350000Y-178050000D03*
X221650000Y-106475000D03*
X186775000Y-279800000D03*
X295950000Y-98475000D03*
X278925000Y-369275000D03*
X267925000Y-172425000D03*
X294450000Y-61300000D03*
X309275000Y-149025000D03*
X296575000Y-305400000D03*
X285600000Y-168600000D03*
X321750000Y-224925000D03*
X173575000Y-175400000D03*
X216300000Y-218100000D03*
X213175000Y-350700000D03*
X286125000Y-99800000D03*
X341525000Y-61300000D03*
X254025000Y-390575000D03*
X180900000Y-128075000D03*
X338450000Y-39350000D03*
X222575000Y-102975000D03*
X326850000Y-42475000D03*
X246050000Y-130100000D03*
X250575000Y-110900000D03*
X330550000Y-66325000D03*
X230175000Y-258350000D03*
X230925000Y-237550000D03*
X290825000Y-70025000D03*
X259300000Y-253875000D03*
X300150000Y-66300000D03*
X331200000Y-104275000D03*
X208950000Y-219550000D03*
X246625000Y-63100000D03*
X217750000Y-170350000D03*
X193650000Y-97350000D03*
X293300000Y-45200000D03*
X325750000Y-86100000D03*
X202975000Y-106500000D03*
X277300000Y-192225000D03*
X248700000Y-177300000D03*
X305150000Y-320225000D03*
X321900000Y-103325000D03*
X236825000Y-84100000D03*
X264350000Y-43300000D03*
X274175000Y-114750000D03*
X341850000Y-250775000D03*
X201125000Y-171700000D03*
X171700000Y-112425000D03*
X288375000Y-292275000D03*
X291225000Y-217550000D03*
X327100000Y-59025000D03*
X262900000Y-52800000D03*
X326975000Y-265825000D03*
X303200000Y-67875000D03*
X284750000Y-240500000D03*
X200550000Y-73050000D03*
X333475000Y-193400000D03*
X316850000Y-277600000D03*
X304950000Y-370275000D03*
X321650000Y-159750000D03*
X288400000Y-313725000D03*
X224850000Y-88250000D03*
X187450000Y-109000000D03*
X225250000Y-84625000D03*
X325850000Y-116300000D03*
X239575000Y-217750000D03*
X199375000Y-82750000D03*
X212050000Y-299550000D03*
X321925000Y-199525000D03*
X234850000Y-115450000D03*
X300125000Y-215125000D03*
X222550000Y-157325000D03*
X313550000Y-216125000D03*
X189275000Y-328775000D03*
X212675000Y-102475000D03*
X304100000Y-231300000D03*
X337900000Y-171925000D03*
X237825000Y-321775000D03*
X198000000Y-217125000D03*
X306000000Y-348900000D03*
X342050000Y-37050000D03*
X196850000Y-186800000D03*
X300725000Y-119525000D03*
X205275000Y-217200000D03*
X310000000Y-146450000D03*
X258500000Y-119550000D03*
X267000000Y-153525000D03*
X262800000Y-125475000D03*
X342750000Y-49800000D03*
X291700000Y-131950000D03*
X231025000Y-88750000D03*
X263725000Y-103075000D03*
X319900000Y-348675000D03*
X238890165Y-37487116D03*
X258050000Y-83200000D03*
X177650000Y-167525000D03*
X317300000Y-51825000D03*
X278700000Y-121050000D03*
X234450000Y-237575000D03*
X288725000Y-270475000D03*
X215575000Y-126700000D03*
X341100000Y-69400000D03*
X183975000Y-157275000D03*
X235175000Y-63975000D03*
X241175000Y-17400000D03*
X222100000Y-195750000D03*
X228375000Y-125750000D03*
X281200000Y-153875000D03*
X251575000Y-67650000D03*
X327825000Y-308725000D03*
X248225000Y-195750000D03*
X293375000Y-192100000D03*
X278975000Y-155700000D03*
X210300000Y-95650000D03*
X254250000Y-249975000D03*
X183725000Y-151000000D03*
X251775000Y-233475000D03*
X295225000Y-177075000D03*
X341750000Y-43525000D03*
X319750000Y-164900000D03*
X324175000Y-59050000D03*
X280725000Y-174650000D03*
X337875000Y-320525000D03*
X339150000Y-51125000D03*
X213700000Y-137975000D03*
X326050000Y-145200000D03*
X186875000Y-100275000D03*
X187975000Y-90400000D03*
X199775000Y-28875000D03*
X197950000Y-219775000D03*
X291900000Y-100875000D03*
X243450000Y-233875000D03*
X327375000Y-259950000D03*
X223525000Y-168375000D03*
X298300000Y-65775000D03*
X302275000Y-289025000D03*
X328200000Y-109900000D03*
X283450000Y-71500000D03*
X205075000Y-168200000D03*
X301800000Y-78600000D03*
X251925000Y-36050000D03*
X284150000Y-149500000D03*
X297450000Y-100200000D03*
X219175000Y-66325000D03*
X287200000Y-243375000D03*
X342725000Y-76625000D03*
X294775000Y-228850000D03*
X184700000Y-167275000D03*
X313950000Y-210750000D03*
X340100000Y-67725000D03*
X256000000Y-200575000D03*
X252725000Y-144525000D03*
X341750000Y-59300000D03*
X259524663Y-165598000D03*
X186050000Y-217975000D03*
X289650000Y-172725000D03*
X267900000Y-50750000D03*
X203725000Y-313175000D03*
X270550000Y-89175000D03*
X254925000Y-110850000D03*
X281050000Y-68400000D03*
X325575000Y-29750000D03*
X278875000Y-210650000D03*
X316625000Y-229075000D03*
X281100000Y-219000000D03*
X212225000Y-165075000D03*
X198300000Y-278800000D03*
X342050000Y-69650000D03*
X330025000Y-194450000D03*
X313525000Y-167575000D03*
X320350000Y-310700000D03*
X304550000Y-300025000D03*
X256025000Y-77400000D03*
X202550000Y-205525000D03*
X342800000Y-41400000D03*
X300225000Y-61850000D03*
X268775000Y-48350000D03*
X321025000Y-134650000D03*
X195150000Y-133325000D03*
X289700000Y-119200000D03*
X295925000Y-51625000D03*
X237475000Y-87650000D03*
X190275000Y-81500000D03*
X189525000Y-55075000D03*
X339250000Y-190600000D03*
X234575000Y-69050000D03*
X237575000Y-51550000D03*
X328800000Y-234450000D03*
X211450000Y-112325000D03*
X171625000Y-105650000D03*
X280975000Y-64400000D03*
X290575000Y-107025000D03*
X300025000Y-242375000D03*
X322350000Y-151275000D03*
X222275000Y-81600000D03*
X220925000Y-112200000D03*
X259125000Y-87125000D03*
X277225000Y-270325000D03*
X258775000Y-257125000D03*
X246600000Y-32525000D03*
X245150000Y-110600000D03*
X253250000Y-305600000D03*
X331225000Y-151925000D03*
X241000000Y-258600000D03*
X215900000Y-326725000D03*
X273500000Y-28000000D03*
X239975000Y-334075000D03*
X281175000Y-208075000D03*
X200250000Y-87750000D03*
X236025000Y-219375000D03*
X300425000Y-173025000D03*
X278975000Y-142075000D03*
X234225000Y-127425000D03*
X341100000Y-284850000D03*
X253850000Y-332300000D03*
X284125000Y-338300000D03*
X282000000Y-320650000D03*
X331900000Y-311675000D03*
X317650000Y-77700000D03*
X303275000Y-333325000D03*
X208325000Y-165125000D03*
X294450000Y-67050000D03*
X184550000Y-58125000D03*
X300000000Y-198575000D03*
X320600000Y-63400000D03*
X241675000Y-28175000D03*
X341925000Y-35300000D03*
X173375000Y-56825000D03*
X194775000Y-102900000D03*
X194075000Y-240025000D03*
X245025000Y-190025000D03*
X261575000Y-319275000D03*
X299750000Y-221925000D03*
X227075000Y-72800000D03*
X302950000Y-232575000D03*
X339425000Y-41675000D03*
X212175000Y-295575000D03*
X331675000Y-235375000D03*
X239700000Y-47200000D03*
X257100000Y-193425000D03*
X319175000Y-210950000D03*
X342825000Y-72300000D03*
X288986000Y-97175000D03*
X342050000Y-72425000D03*
X231950000Y-224525000D03*
X321575000Y-140800000D03*
X192050000Y-178375000D03*
X272875000Y-321075000D03*
X266775000Y-44100000D03*
X327775000Y-245150000D03*
X270050000Y-215350000D03*
X332750000Y-170250000D03*
X235750000Y-162000000D03*
X222700000Y-29450000D03*
X341925000Y-51075000D03*
X220550000Y-58900000D03*
X200325000Y-133400000D03*
X220175000Y-19300000D03*
X339700000Y-43425000D03*
X193600000Y-219850000D03*
X194150000Y-208425000D03*
X301550000Y-64525000D03*
X224950000Y-195575000D03*
X189250000Y-116125000D03*
X340975000Y-67275000D03*
X340100000Y-325200000D03*
X181475000Y-291200000D03*
X236275000Y-246300000D03*
X238862000Y-33250901D03*
X240125000Y-87075000D03*
X213575000Y-47300000D03*
X325725000Y-27975000D03*
X308300000Y-121000000D03*
X179775000Y-199950000D03*
X201075000Y-119100000D03*
X304325000Y-32325000D03*
X192100000Y-69725000D03*
X294525000Y-65100000D03*
X246900000Y-233925000D03*
X200350000Y-219700000D03*
X302475000Y-82150000D03*
X183825000Y-199950000D03*
X340650000Y-76000000D03*
X301750000Y-66850000D03*
X339350000Y-68975000D03*
X341300000Y-74175000D03*
X330275000Y-181600000D03*
X278950000Y-192700000D03*
X241825000Y-308850000D03*
X199050000Y-174575000D03*
X186350000Y-231400000D03*
X299525000Y-251650000D03*
X308025000Y-103300000D03*
X341850000Y-50225000D03*
X259850000Y-231000000D03*
X318675000Y-197200000D03*
X314975000Y-142375000D03*
X341925000Y-67900000D03*
X244850000Y-70300000D03*
X183150000Y-23100000D03*
X278075000Y-258075000D03*
X288075000Y-191000000D03*
X288500000Y-174775000D03*
X340400000Y-61450000D03*
X237750000Y-230250000D03*
X281275000Y-168300000D03*
X250275000Y-81775000D03*
X267600000Y-86450000D03*
X298275000Y-66650000D03*
X235825000Y-56875000D03*
X174325000Y-322400000D03*
X226000000Y-81525000D03*
X216800000Y-208825000D03*
X309550000Y-167425000D03*
X299025000Y-143975000D03*
X268825000Y-260800000D03*
X338850000Y-43850000D03*
X230075000Y-278350000D03*
X322600000Y-86100000D03*
X284825000Y-159275000D03*
X231925000Y-253975000D03*
X340175000Y-69250000D03*
X208400000Y-229250000D03*
X324050000Y-253900000D03*
X323950000Y-320900000D03*
X250900000Y-76175000D03*
X251025000Y-262550000D03*
X329200000Y-110875000D03*
X250200000Y-308450000D03*
X308725000Y-26775000D03*
X340175000Y-36650000D03*
X321250000Y-244325000D03*
X323750000Y-260325000D03*
X217025000Y-145400000D03*
X268875000Y-192850000D03*
X260400000Y-80775000D03*
X338525000Y-41850000D03*
X207575000Y-106425000D03*
X265025000Y-190275000D03*
X270650000Y-234250000D03*
X331350000Y-301725000D03*
X340100000Y-50900000D03*
X327700000Y-250450000D03*
X184000000Y-108900000D03*
X245625000Y-259100000D03*
X296550000Y-147500000D03*
X311275000Y-216075000D03*
X184500000Y-103200000D03*
X182000000Y-27300000D03*
X274525000Y-100025000D03*
X249675000Y-127575000D03*
X260875000Y-57975000D03*
X289200000Y-369525000D03*
X337825000Y-251025000D03*
X215250000Y-78875000D03*
X176750000Y-224800000D03*
X243225000Y-230075000D03*
X264175000Y-192450000D03*
X327775000Y-66500000D03*
X189700000Y-187425000D03*
X233650000Y-19675000D03*
X308750000Y-98775000D03*
X237700000Y-334275000D03*
X278025000Y-140125000D03*
X273225000Y-192450000D03*
X309975000Y-238275000D03*
X196300000Y-149700000D03*
X250500000Y-36500000D03*
X318275000Y-111725000D03*
X320700000Y-41825000D03*
X297475000Y-188100000D03*
X306075000Y-308750000D03*
X176275000Y-146425000D03*
X230400000Y-81725000D03*
X305125000Y-210850000D03*
X190350000Y-165125000D03*
X340100000Y-48100000D03*
X179500000Y-33300000D03*
X190500000Y-312175000D03*
X340175000Y-52425000D03*
X325850000Y-300975000D03*
X176400000Y-104025000D03*
X173975000Y-28200000D03*
X284200000Y-348625000D03*
X275975000Y-230925000D03*
X189000000Y-319900000D03*
X339700000Y-76025000D03*
X221577000Y-99624900D03*
X338450000Y-51925000D03*
X242975000Y-195900000D03*
X257325000Y-171554428D03*
X208725000Y-320350000D03*
X326475000Y-81675000D03*
X303500000Y-309525000D03*
X192625000Y-182350000D03*
X205425000Y-119025000D03*
X282950000Y-111750000D03*
X205575000Y-233025000D03*
X205725000Y-299375000D03*
X221500000Y-84625000D03*
X221350000Y-125550000D03*
X339300000Y-124225000D03*
X340350000Y-40075000D03*
X327075000Y-159475000D03*
X191775000Y-220200000D03*
X303250000Y-75975000D03*
X290175000Y-281325000D03*
X308375000Y-70825000D03*
X259200000Y-390475000D03*
X271900000Y-43900000D03*
X235825000Y-369275000D03*
X229450000Y-333325000D03*
X271225000Y-74225000D03*
X302850000Y-148075000D03*
X198700000Y-154275000D03*
X225250000Y-79100000D03*
X178375000Y-240625000D03*
X279550000Y-129725000D03*
X298925000Y-77150000D03*
X210000000Y-155025000D03*
X254525000Y-29075000D03*
X212675000Y-155325000D03*
X254775000Y-81025000D03*
X252200000Y-90250000D03*
X300700000Y-325450000D03*
X294475000Y-67975000D03*
X236725000Y-81400000D03*
X180100000Y-107725000D03*
X218712000Y-196262000D03*
X296925000Y-64000000D03*
X260100000Y-287400000D03*
X340650000Y-59175000D03*
X243325000Y-192900000D03*
X233950000Y-38775000D03*
X252350000Y-190825000D03*
X187875000Y-221925000D03*
X227450000Y-242225000D03*
X272500000Y-107075000D03*
X322125000Y-212875000D03*
X218350000Y-308050000D03*
X251425000Y-246175000D03*
X216925000Y-149700000D03*
X251900000Y-59350000D03*
X338450000Y-71950000D03*
X272650000Y-186150000D03*
X337075000Y-309275000D03*
X327525000Y-133050000D03*
X327750000Y-69125000D03*
X202115000Y-60909800D03*
X306400000Y-278500000D03*
X227175000Y-209425000D03*
X341525000Y-78125000D03*
X207800000Y-79800000D03*
X298050000Y-293550000D03*
X291925000Y-135600000D03*
X189850000Y-229025000D03*
X299400000Y-159225000D03*
X326450000Y-148750000D03*
X273450000Y-299725000D03*
X279400000Y-169575000D03*
X185050000Y-229700000D03*
X208125000Y-332600000D03*
X215600000Y-189125000D03*
X242100000Y-49600000D03*
X330575000Y-118450000D03*
X313525000Y-202675000D03*
X266675000Y-277750000D03*
X258250000Y-250175000D03*
X172050000Y-99800000D03*
X284575000Y-194800000D03*
X260300000Y-231950000D03*
X284925000Y-94625000D03*
X288575000Y-37500000D03*
X218375000Y-241325000D03*
X276475000Y-142725000D03*
X194900000Y-213475000D03*
X296100000Y-122650000D03*
X227875000Y-339150000D03*
X178975000Y-130650000D03*
X296800000Y-340350000D03*
X222475000Y-78750000D03*
X252650000Y-196175000D03*
X216000000Y-232175000D03*
X222350000Y-171875000D03*
X336350000Y-174150000D03*
X338450000Y-68750000D03*
X324625000Y-334775000D03*
X285925000Y-174775000D03*
X297950000Y-317125000D03*
X324850000Y-42475000D03*
X228125000Y-151375000D03*
X315725000Y-103375000D03*
X193075000Y-172700000D03*
X223175000Y-129725000D03*
X227450000Y-121100000D03*
X239200000Y-146475000D03*
X272325000Y-215175000D03*
X268325000Y-281125000D03*
X227000000Y-213425000D03*
X248600000Y-175350000D03*
X264050000Y-90600000D03*
X341850000Y-34450000D03*
X190250000Y-68100000D03*
X338450000Y-215075000D03*
X340225000Y-24850000D03*
X341300000Y-262900000D03*
X281575000Y-312650000D03*
X275100000Y-189875000D03*
X216625000Y-196450000D03*
X259050000Y-245525000D03*
X309075000Y-222725000D03*
X300700000Y-311125000D03*
X292050000Y-164700000D03*
X342750000Y-66625000D03*
X175875000Y-279800000D03*
X341100000Y-36800000D03*
X224925000Y-369400000D03*
X242300000Y-150225000D03*
X309300000Y-172150000D03*
X265325000Y-168575000D03*
X338600000Y-30375000D03*
X210275000Y-31050000D03*
X305175000Y-45200000D03*
X333975000Y-211750000D03*
X260600000Y-261425000D03*
X182950000Y-74250000D03*
X339525000Y-229975000D03*
X315575000Y-154900000D03*
X313175000Y-232800000D03*
X203450000Y-68025000D03*
X285575000Y-125400000D03*
X339125000Y-216400000D03*
X262700000Y-261050000D03*
X342725000Y-44025000D03*
X284775000Y-218300000D03*
X299400000Y-112625000D03*
X260100000Y-298275000D03*
X185700000Y-258875000D03*
X340650000Y-43400000D03*
X258403719Y-167570976D03*
X260675000Y-262525000D03*
X338525000Y-57625000D03*
X290450000Y-102650000D03*
X180350000Y-115650000D03*
X329100000Y-238025000D03*
X304600000Y-80475000D03*
X341975000Y-36175000D03*
X235925000Y-110800000D03*
X262925000Y-17850000D03*
X195000000Y-237000000D03*
X179675000Y-210075000D03*
X198675000Y-167175000D03*
X272850000Y-116350000D03*
X264850000Y-347100000D03*
X258200000Y-79725000D03*
X257401512Y-91625000D03*
X341850000Y-67050000D03*
X331100000Y-189600000D03*
X341100000Y-52575000D03*
X250575000Y-24750000D03*
X272525000Y-133700000D03*
X299575000Y-185275000D03*
X278250000Y-146800000D03*
X245525000Y-19550000D03*
X175625000Y-226725000D03*
X224775000Y-291750000D03*
X304725000Y-305400000D03*
X230825000Y-57975000D03*
X202550000Y-216950000D03*
X203425000Y-152025000D03*
X342175000Y-278125000D03*
X300750000Y-15300000D03*
X275550000Y-116450000D03*
X337075000Y-285375000D03*
X330275000Y-185525000D03*
X201650000Y-368675000D03*
X265675000Y-246325000D03*
X259650000Y-19225000D03*
X192850000Y-234125000D03*
X283400000Y-251775000D03*
X306675000Y-390275000D03*
X303125000Y-79450000D03*
X190425000Y-59150000D03*
X339350000Y-52150000D03*
X338625000Y-44875000D03*
X183200000Y-300250000D03*
X339325000Y-78275000D03*
X208443388Y-43619500D03*
X342825000Y-37300000D03*
X322925000Y-42525000D03*
X226625000Y-269600000D03*
X253525000Y-107550000D03*
X173925000Y-219350000D03*
X190175000Y-234075000D03*
X197575000Y-112875000D03*
X206900000Y-103000000D03*
X289225000Y-320575000D03*
X340975000Y-34675000D03*
X248450000Y-56500000D03*
X204475000Y-109875000D03*
X234200000Y-171775000D03*
X323200000Y-190725000D03*
X338450000Y-55125000D03*
X251800000Y-85600000D03*
X175550000Y-339100000D03*
X235700000Y-79025000D03*
X250900000Y-27300000D03*
X178175000Y-125175000D03*
X182829000Y-245482000D03*
X301800000Y-272925000D03*
X179100000Y-110700000D03*
X308175000Y-125700000D03*
X279925000Y-164600000D03*
X240375000Y-138050000D03*
X274650000Y-262550000D03*
X175775000Y-202775000D03*
X222700000Y-246025000D03*
X205850000Y-92575000D03*
X279200000Y-190325000D03*
X221650000Y-218525000D03*
X327900000Y-137350000D03*
X218525000Y-112125000D03*
X234750000Y-74875000D03*
X285125000Y-258375000D03*
X305000000Y-118450000D03*
X235525000Y-91400000D03*
X229500000Y-150925000D03*
X319300000Y-181350000D03*
X285525000Y-154500000D03*
X213675000Y-39325000D03*
X211225000Y-73325000D03*
X271500000Y-191950000D03*
X250000000Y-83175000D03*
X282575000Y-332375000D03*
X182825000Y-329600000D03*
X297625000Y-67475000D03*
X289275000Y-110150000D03*
X307125000Y-176425000D03*
X307750000Y-61600000D03*
X187900000Y-208600000D03*
X285400000Y-146125000D03*
X220175000Y-257700000D03*
X331325000Y-205050000D03*
X261725000Y-68932490D03*
X254650000Y-208600000D03*
X238950000Y-72650000D03*
X200700000Y-55175000D03*
X280700000Y-20675000D03*
X241775000Y-351575000D03*
X207675000Y-170050000D03*
X302575000Y-76850000D03*
X339425000Y-74275000D03*
X199300000Y-209175000D03*
X215150000Y-215250000D03*
X321700000Y-217450000D03*
X247500000Y-231125000D03*
X313050000Y-258500000D03*
X279100000Y-97175000D03*
X203075000Y-87200000D03*
X176650000Y-41125000D03*
X287175000Y-146800000D03*
X202475000Y-109775000D03*
X296787000Y-90662700D03*
X198350000Y-143675000D03*
X298425000Y-102625000D03*
X315625000Y-300225000D03*
X315825000Y-85400000D03*
X307250000Y-197600000D03*
X292625000Y-186375000D03*
X284250000Y-79750000D03*
X223875000Y-238125000D03*
X304925000Y-245375000D03*
X208825000Y-390775000D03*
X278925000Y-206900000D03*
X244725000Y-55225000D03*
X219075000Y-254175000D03*
X252175000Y-300975000D03*
X251000000Y-277550000D03*
X232650000Y-327175000D03*
X232975000Y-219025000D03*
X291175000Y-82400000D03*
X308775000Y-128525000D03*
X342800000Y-57175000D03*
X280275000Y-100275000D03*
X252375000Y-249575000D03*
X316775000Y-238525000D03*
X227225000Y-178375000D03*
X301150000Y-40050000D03*
X215550000Y-322200000D03*
X284700000Y-130250000D03*
X211350000Y-187150000D03*
X333550000Y-152400000D03*
X293650000Y-49650000D03*
X295750000Y-274600000D03*
X312650000Y-141375000D03*
X182100000Y-87800000D03*
X301175000Y-103100000D03*
X218925000Y-31050000D03*
X234225000Y-196150000D03*
X305075000Y-22525000D03*
X294200000Y-24950000D03*
X264025000Y-211125000D03*
X248025000Y-320800000D03*
X327825000Y-185650000D03*
X233025000Y-154750000D03*
X236200000Y-209100000D03*
X266825000Y-74000000D03*
X277600000Y-57575000D03*
X305625000Y-146375000D03*
X300050000Y-122275000D03*
X202800000Y-30450000D03*
X190450000Y-109100000D03*
X317050000Y-232100000D03*
X280375000Y-121275000D03*
X221325000Y-101250000D03*
X258275000Y-69525000D03*
X307100000Y-88450000D03*
X339150000Y-67950000D03*
X341650000Y-54400000D03*
X266900000Y-312650000D03*
X174825000Y-122625000D03*
X205625000Y-87825000D03*
X335850000Y-191675000D03*
X331025000Y-256050000D03*
X195025000Y-86800000D03*
X196600000Y-263175000D03*
X304100000Y-125850000D03*
X232025000Y-209375000D03*
X302200000Y-280150000D03*
X225200000Y-30350000D03*
X300500000Y-319975000D03*
X281175000Y-132150000D03*
X260825000Y-187425000D03*
X307450000Y-232525000D03*
X211125000Y-19725000D03*
X221172000Y-63322300D03*
X327100000Y-370400000D03*
X338525000Y-72950000D03*
X301925000Y-77750000D03*
X229225000Y-106800000D03*
X268575000Y-125650000D03*
X234325000Y-49100000D03*
X331025000Y-278350000D03*
X184575000Y-131200000D03*
X268225000Y-107500000D03*
X293150000Y-64975000D03*
X221975000Y-228975000D03*
X184750000Y-112525000D03*
X247525000Y-78750000D03*
X183875000Y-239950000D03*
X248225000Y-369400000D03*
X341225000Y-72575000D03*
X251325000Y-229500000D03*
X255875000Y-138425000D03*
X288025000Y-238100000D03*
X284400000Y-232325000D03*
X192250000Y-29525000D03*
X318200000Y-259450000D03*
X323350000Y-309875000D03*
X256475000Y-336150000D03*
X294800000Y-103100000D03*
X338850000Y-59625000D03*
X301525000Y-341425000D03*
X331275000Y-84400000D03*
X300000000Y-210825000D03*
X337900000Y-217750000D03*
X179850000Y-350450000D03*
X188025000Y-224375000D03*
X289175000Y-30550000D03*
X181800000Y-312150000D03*
X340775000Y-54100000D03*
X239500000Y-44275000D03*
X285125000Y-121225000D03*
X336300000Y-127525000D03*
X295000000Y-241225000D03*
X334175000Y-205875000D03*
X246225000Y-328675000D03*
X319250000Y-130925000D03*
X252125000Y-33825000D03*
X189025000Y-64125000D03*
X176875000Y-76575000D03*
X279625000Y-79500000D03*
X195225000Y-292700000D03*
X278800000Y-103100000D03*
X331775000Y-146900000D03*
X229000000Y-36400000D03*
X313925000Y-76625000D03*
X307400000Y-43050000D03*
X184475000Y-224825000D03*
X287075000Y-139700000D03*
X248375000Y-50250000D03*
X186225000Y-57225000D03*
X245700000Y-79025000D03*
X255725000Y-18825000D03*
X273175000Y-218825000D03*
X219775000Y-194725000D03*
X223600000Y-146175000D03*
X226600000Y-237175000D03*
X259900000Y-145025000D03*
X275475000Y-170375000D03*
X340775000Y-70925000D03*
X285850000Y-329850000D03*
X268225000Y-290975000D03*
X255750000Y-127725000D03*
X218625000Y-217975000D03*
X182350000Y-104950000D03*
X200700000Y-145425000D03*
X313300000Y-190400000D03*
X342725000Y-59800000D03*
X279750000Y-234450000D03*
X273425000Y-224400000D03*
X229325000Y-88175000D03*
X254200000Y-168150000D03*
X292475000Y-60375000D03*
X207125000Y-14750000D03*
X243425000Y-251750000D03*
X331800000Y-172900000D03*
X305125000Y-77850000D03*
X208850000Y-189950000D03*
X326150000Y-142425000D03*
X318175000Y-327550000D03*
X283750000Y-66850000D03*
X309650000Y-193575000D03*
X292350000Y-159800000D03*
X221325000Y-149225000D03*
X288850000Y-78825000D03*
X178400000Y-231675000D03*
X253825000Y-56950000D03*
X217125000Y-224600000D03*
X293875000Y-21450000D03*
X342825000Y-39700000D03*
X214650000Y-97825000D03*
X273425000Y-163600000D03*
X173575000Y-267325000D03*
X230500000Y-299300000D03*
X200100000Y-217100000D03*
X263825000Y-101525000D03*
X295975000Y-65800000D03*
X226800000Y-141275000D03*
X197925000Y-332600000D03*
X317100000Y-133475000D03*
X273850000Y-132450000D03*
X251002000Y-44023400D03*
X258275000Y-65848197D03*
X241000000Y-209425000D03*
X215825000Y-121325000D03*
X305275000Y-132575000D03*
X319900000Y-251400000D03*
X285125000Y-173525000D03*
X251450000Y-255600000D03*
X261575000Y-74148070D03*
X240925000Y-305225000D03*
X276875000Y-79325000D03*
X211050000Y-144975000D03*
X293575000Y-80500000D03*
X282850000Y-265300000D03*
X317050000Y-49550000D03*
X261950000Y-43300000D03*
X302750000Y-129775000D03*
X305150000Y-274750000D03*
X314800000Y-251150000D03*
X286000000Y-102875000D03*
X217825000Y-138150000D03*
X177950000Y-173675000D03*
X316150000Y-81275000D03*
X317075000Y-320550000D03*
X293000000Y-235675000D03*
X193150000Y-60375000D03*
X281650000Y-270025000D03*
X188600000Y-80075000D03*
X274875000Y-121225000D03*
X291775000Y-110500000D03*
X216350000Y-187100000D03*
X200175000Y-235625000D03*
X308775000Y-141000000D03*
X278200000Y-186475000D03*
X298075000Y-300025000D03*
X292300000Y-64225000D03*
X187350000Y-133025000D03*
X300675000Y-246600000D03*
X265300000Y-52700000D03*
X284775000Y-210725000D03*
X186325000Y-234275000D03*
X270450000Y-56075000D03*
X230250000Y-28200000D03*
X203975000Y-269750000D03*
X249600000Y-346450000D03*
X238325000Y-337475000D03*
X281850000Y-23725000D03*
X300425000Y-202875000D03*
X299500000Y-68125000D03*
X211600000Y-100175000D03*
X320075000Y-176225000D03*
X195375000Y-58550000D03*
X291550000Y-138125000D03*
X183825000Y-115150000D03*
X179500000Y-100800000D03*
X196600000Y-298200000D03*
X294550000Y-64250000D03*
X275300000Y-305575000D03*
X201525000Y-194400000D03*
X218625000Y-166850000D03*
X308550000Y-143925000D03*
X195700000Y-174750000D03*
X176000000Y-205825000D03*
X185250000Y-55025000D03*
X338425000Y-211850000D03*
X330900000Y-321000000D03*
X321325000Y-243425000D03*
X309675000Y-15200000D03*
X320850000Y-81675000D03*
X246625000Y-58500000D03*
X220550000Y-333675000D03*
X247450000Y-80825000D03*
X264925000Y-257600000D03*
X232900000Y-245325000D03*
X239025000Y-326875000D03*
X179600000Y-225775000D03*
X214550000Y-220550000D03*
X241250000Y-81850000D03*
X287975000Y-48650000D03*
X224650000Y-174675000D03*
X286575000Y-81475000D03*
X265350000Y-301100000D03*
X227000000Y-224475000D03*
X303575000Y-82725000D03*
X282200000Y-297250000D03*
X339600000Y-202925000D03*
X276975000Y-237100000D03*
X229325000Y-175825000D03*
X234875000Y-244250000D03*
X205550000Y-86100000D03*
X263650000Y-133025000D03*
X330675000Y-269800000D03*
X235800000Y-50725000D03*
X336600000Y-104025000D03*
X198575000Y-258600000D03*
X232900000Y-28475000D03*
X238250000Y-56175000D03*
X296350000Y-321075000D03*
X312625000Y-222450000D03*
X336450000Y-301400000D03*
X235200000Y-166325000D03*
X276100000Y-295875000D03*
X235475000Y-39350000D03*
X213800000Y-74675000D03*
X338450000Y-36150000D03*
X266825000Y-19900000D03*
X277375000Y-153950000D03*
X293200000Y-66950000D03*
X196775000Y-320350000D03*
X201100000Y-115550000D03*
X195450000Y-349725000D03*
X227775000Y-351075000D03*
X255975000Y-155154733D03*
X275525000Y-233475000D03*
X276425000Y-273250000D03*
X185075000Y-215550000D03*
X307000000Y-173675000D03*
X241100000Y-100525000D03*
X340350000Y-72675000D03*
X315950000Y-110025000D03*
X175225000Y-300775000D03*
X320475000Y-98800000D03*
X250700000Y-187775000D03*
X311775000Y-103300000D03*
X248975000Y-181150000D03*
X173800000Y-239875000D03*
X300400000Y-65400000D03*
X296700000Y-80375000D03*
X234925000Y-81675000D03*
X233825000Y-121525000D03*
X256525000Y-181075000D03*
X185600000Y-116650000D03*
X202500000Y-237875000D03*
X295425000Y-245625000D03*
X217700000Y-245300000D03*
X198275000Y-339925000D03*
X263775000Y-54325000D03*
X190350000Y-168375000D03*
X261875000Y-306300000D03*
X265550000Y-369650000D03*
X339950000Y-71150000D03*
X191925000Y-258375000D03*
X192625000Y-147750000D03*
X333325000Y-106775000D03*
X186025000Y-88175000D03*
X212400000Y-219625000D03*
X339425000Y-40150000D03*
X274075000Y-177425000D03*
X245450000Y-86200000D03*
X338100000Y-259700000D03*
X185975000Y-237950000D03*
X275700000Y-133700000D03*
X312275000Y-148375000D03*
X324175000Y-191825000D03*
X191675000Y-79125000D03*
X315475000Y-287325000D03*
X278825000Y-262450000D03*
X300750000Y-70875000D03*
X321375000Y-137800000D03*
X243500000Y-87875000D03*
X245125000Y-332925000D03*
X314975000Y-83050000D03*
X284425000Y-111625000D03*
X242325000Y-237300000D03*
X280275000Y-52775000D03*
X308300000Y-216725000D03*
X305525000Y-207550000D03*
X341200000Y-330625000D03*
X338475000Y-117875000D03*
X268850000Y-268525000D03*
X316725000Y-171375000D03*
X313350000Y-193650000D03*
X327325000Y-219250000D03*
X265750000Y-229500000D03*
X234625000Y-102200000D03*
X285475000Y-254550000D03*
X287600000Y-236025000D03*
X288675000Y-189900000D03*
X174900000Y-33850000D03*
X276325000Y-389850000D03*
X207025000Y-125825000D03*
X199500000Y-90200000D03*
X252100000Y-319525000D03*
X339150000Y-54625000D03*
X330975000Y-227100000D03*
X241450000Y-300700000D03*
X171900000Y-118150000D03*
X331275000Y-77675000D03*
X294400000Y-390175000D03*
X242575000Y-106725000D03*
X180368000Y-244391000D03*
X205925000Y-96750000D03*
X204550000Y-205625000D03*
X299050000Y-86950000D03*
X319350000Y-299650000D03*
X207900000Y-217050000D03*
X248250000Y-168225000D03*
X276600000Y-292225000D03*
X283050000Y-301775000D03*
X277150000Y-82350000D03*
X287675000Y-20675000D03*
X271250000Y-131875000D03*
X188300000Y-244836000D03*
X339950000Y-38550000D03*
X193950000Y-165075000D03*
X173625000Y-53875000D03*
X293925000Y-251325000D03*
X174925000Y-111250000D03*
X224000000Y-140750000D03*
X280225000Y-60525000D03*
X212000000Y-77725000D03*
X281700000Y-281325000D03*
X308500000Y-110100000D03*
X201775000Y-141150000D03*
X308750000Y-243200000D03*
X226075000Y-217625000D03*
X199350000Y-85975000D03*
X262225000Y-301500000D03*
X278525000Y-181100000D03*
X257487653Y-185037653D03*
X255000000Y-259200000D03*
X273975000Y-80975000D03*
X278725000Y-218175000D03*
X242125000Y-256075000D03*
X263975000Y-76800000D03*
X251225000Y-266000000D03*
X304375000Y-79650000D03*
X230550000Y-102350000D03*
X342425000Y-45100000D03*
X240150000Y-233400000D03*
X278300000Y-91400000D03*
X217375000Y-66250000D03*
X341225000Y-39975000D03*
X260650000Y-185925000D03*
X284600000Y-276700000D03*
X281750000Y-276600000D03*
X197600000Y-177300000D03*
X240025000Y-107675000D03*
X318925000Y-189000000D03*
X204750000Y-140975000D03*
X224600000Y-59000000D03*
X291525000Y-65050000D03*
X311275000Y-300225000D03*
X236725000Y-150325000D03*
X289700000Y-51575000D03*
X258812653Y-242112653D03*
X270300000Y-86450000D03*
X293725000Y-153500000D03*
X282225000Y-144400000D03*
X187925000Y-59050000D03*
X328100000Y-28800000D03*
X277000000Y-181175000D03*
X199775000Y-232775000D03*
X244975000Y-175575000D03*
X325900000Y-211275000D03*
X188150000Y-47950000D03*
X304700000Y-82575000D03*
X222900000Y-120850000D03*
X342825000Y-53075000D03*
X268400000Y-131250000D03*
X341525000Y-45525000D03*
X297650000Y-164950000D03*
X298175000Y-278300000D03*
X243700000Y-168125000D03*
X187450000Y-144325000D03*
X174525000Y-256850000D03*
X268125000Y-57650000D03*
X233775000Y-293075000D03*
X270425000Y-112425000D03*
X192575000Y-96200000D03*
X214300000Y-170875000D03*
X322275000Y-29875000D03*
X237050000Y-188800000D03*
X277800000Y-53500000D03*
X284325000Y-133450000D03*
X249675000Y-212700000D03*
X300250000Y-193225000D03*
X330200000Y-109250000D03*
X261075000Y-208525000D03*
X328850000Y-153200000D03*
X206650000Y-342500000D03*
X338525000Y-74450000D03*
X273450000Y-145750000D03*
X191625000Y-108350000D03*
X195325000Y-144125000D03*
X231850000Y-190025000D03*
X342800000Y-74000000D03*
X218900000Y-233900000D03*
X342450000Y-71575000D03*
X174575000Y-306675000D03*
X318175000Y-207800000D03*
X234250000Y-258600000D03*
X254000000Y-237075000D03*
X258525000Y-236736386D03*
X339075000Y-181500000D03*
X305775000Y-82475000D03*
X268450000Y-254800000D03*
X201050000Y-62875000D03*
X295525000Y-348900000D03*
X316750000Y-245000000D03*
X208450000Y-58900000D03*
X254625000Y-180975000D03*
X172875000Y-283375000D03*
X312500000Y-109475000D03*
X341300000Y-41575000D03*
X230950000Y-31900000D03*
X214300000Y-102300000D03*
X278250000Y-223475000D03*
X321425000Y-203375000D03*
X338950000Y-233325000D03*
X217850000Y-304100000D03*
X195350000Y-130250000D03*
X292200000Y-238050000D03*
X262575000Y-55350000D03*
X314700000Y-145450000D03*
X245125000Y-67775000D03*
X336100000Y-233525000D03*
X244125000Y-77575000D03*
X320475000Y-65850000D03*
X242200000Y-265150000D03*
X250375000Y-74400000D03*
X283675000Y-189825000D03*
X318075000Y-153600000D03*
X209800000Y-232050000D03*
X303300000Y-80500000D03*
X188900000Y-124650000D03*
X277950000Y-65525000D03*
X328750000Y-211800000D03*
X222500000Y-233625000D03*
X304250000Y-111650000D03*
X218425000Y-263350000D03*
X276225000Y-277450000D03*
X211625000Y-154250000D03*
X232875000Y-298800000D03*
X305600000Y-170425000D03*
X266250000Y-80700000D03*
X212900000Y-336600000D03*
X302725000Y-305650000D03*
X232000000Y-54825000D03*
X221900000Y-154525000D03*
X315300000Y-176225000D03*
X338850000Y-76450000D03*
X188125000Y-122725000D03*
X318650000Y-90825000D03*
X240575000Y-262300000D03*
X335775000Y-109175000D03*
X342050000Y-52825000D03*
X338625000Y-77475000D03*
X268525000Y-237250000D03*
X283650000Y-245800000D03*
X216825000Y-165550000D03*
X327225000Y-190375000D03*
X341225000Y-55750000D03*
X342825000Y-69900000D03*
X296000000Y-64050000D03*
X236950000Y-71175000D03*
X286125000Y-106800000D03*
X289900000Y-55775000D03*
X210975000Y-279200000D03*
X323025000Y-49900000D03*
X213500000Y-91925000D03*
X254125000Y-172150000D03*
X227200000Y-77150000D03*
X305350000Y-79075000D03*
X292125000Y-46750000D03*
X323625000Y-187250000D03*
X179500000Y-176850000D03*
X219275000Y-201800000D03*
X333875000Y-140825000D03*
X266125000Y-216325000D03*
X213725000Y-224600000D03*
X175325000Y-107400000D03*
X190800000Y-65200000D03*
X278325000Y-232700000D03*
X242350000Y-186250000D03*
X275525000Y-325175000D03*
X279675000Y-251650000D03*
X299875000Y-67225000D03*
X323375000Y-133400000D03*
X247050000Y-51600000D03*
X220350000Y-30075000D03*
X279775000Y-49900000D03*
X211000000Y-229225000D03*
X226125000Y-20150000D03*
X266150000Y-195725000D03*
X297950000Y-65100000D03*
X302375000Y-81325000D03*
X240400000Y-116825000D03*
X304475000Y-251150000D03*
X240800000Y-217750000D03*
X193100000Y-155150000D03*
X195800000Y-80275000D03*
X256225000Y-204575000D03*
X270250000Y-140250000D03*
X251750000Y-83225000D03*
X295025000Y-143975000D03*
X222275000Y-219800000D03*
X192250000Y-92525000D03*
X240250000Y-231525000D03*
X200575000Y-189650000D03*
X324975000Y-104875000D03*
X177150000Y-86175000D03*
X291725000Y-66975000D03*
X292450000Y-67575000D03*
X296025000Y-65050000D03*
X313125000Y-242900000D03*
X292550000Y-258125000D03*
X303400000Y-150150000D03*
X270650000Y-237225000D03*
X201150000Y-36225000D03*
X207850000Y-308375000D03*
X200750000Y-212675000D03*
X316700000Y-159750000D03*
X326850000Y-61075000D03*
X303200000Y-301400000D03*
X302000000Y-143075000D03*
X215050000Y-340950000D03*
X238375000Y-32350000D03*
X341525000Y-270825000D03*
X299025000Y-82175000D03*
X334600000Y-124725000D03*
X281625000Y-305400000D03*
X175500000Y-100600000D03*
X196075000Y-55100000D03*
X219475000Y-64025000D03*
X341650000Y-71225000D03*
X308425000Y-116425000D03*
X191450000Y-240025000D03*
X339350000Y-36375000D03*
X198825000Y-77700000D03*
X334250000Y-118500000D03*
X216650000Y-19300000D03*
X270975000Y-210500000D03*
X324875000Y-216950000D03*
X320575000Y-115150000D03*
X232500000Y-303900000D03*
X200325000Y-116150000D03*
X173750000Y-61575000D03*
X203850000Y-171500000D03*
X309675000Y-270725000D03*
X224325000Y-170775000D03*
X313725000Y-207850000D03*
X330550000Y-68875000D03*
X205550000Y-235675000D03*
X298650000Y-44500000D03*
X199650000Y-229125000D03*
X307575000Y-191000000D03*
X287700000Y-179275000D03*
X185125000Y-171100000D03*
X196550000Y-153725000D03*
X240050000Y-101625000D03*
X255750000Y-120775000D03*
X209625000Y-327750000D03*
X215350000Y-91825000D03*
X242800000Y-102775000D03*
X221075000Y-299775000D03*
X216975000Y-109000000D03*
X173425000Y-48225000D03*
X339425000Y-57450000D03*
X252850000Y-63175000D03*
X325800000Y-202275000D03*
X296025000Y-66675000D03*
X316575000Y-137600000D03*
X259600000Y-291800000D03*
X289725000Y-215225000D03*
X193100000Y-160950000D03*
X309600000Y-131525000D03*
X218750000Y-71000000D03*
X291450000Y-255025000D03*
X341975000Y-68775000D03*
X228075000Y-171250000D03*
X194675000Y-230600000D03*
X213000000Y-178825000D03*
X277700000Y-160600000D03*
X329950000Y-114475000D03*
X237250000Y-28225000D03*
X250850000Y-130350000D03*
X311875000Y-270675000D03*
X342450000Y-38975000D03*
X339425000Y-72750000D03*
X195450000Y-78625000D03*
X295000000Y-125500000D03*
X323325000Y-48600000D03*
X199000000Y-110175000D03*
X243025000Y-39300000D03*
X294250000Y-149025000D03*
X342425000Y-77700000D03*
X219600000Y-286025000D03*
X216050000Y-58425000D03*
X313100000Y-370275000D03*
X212200000Y-211350000D03*
X221875000Y-88475000D03*
X246275000Y-33975000D03*
X274475000Y-317350000D03*
X339950000Y-54325000D03*
X341650000Y-293650000D03*
X317100000Y-46725000D03*
X294600000Y-90550000D03*
X263650000Y-106950000D03*
X304300000Y-76975000D03*
X339050000Y-186925000D03*
X327950000Y-165475000D03*
X342000000Y-73900000D03*
X232850000Y-175825000D03*
X215000000Y-128225000D03*
X226775000Y-228200000D03*
X198350000Y-150200000D03*
X181550000Y-125450000D03*
X282800000Y-230100000D03*
X238625000Y-58675000D03*
X326000000Y-87725000D03*
X203575000Y-129875000D03*
X252200000Y-37600000D03*
X305175000Y-258550000D03*
X231375000Y-146350000D03*
X175875000Y-82275000D03*
X220250000Y-278925000D03*
X338625000Y-60650000D03*
X236875000Y-186900000D03*
X173075000Y-209550000D03*
X205375000Y-212800000D03*
X307775000Y-100375000D03*
X201150000Y-92650000D03*
X213525000Y-369025000D03*
X290850000Y-129925000D03*
X326775000Y-67900000D03*
X183025000Y-236650000D03*
X336425000Y-122100000D03*
X286375000Y-164900000D03*
X329726000Y-43968100D03*
X322012000Y-45566100D03*
X312364000Y-22105400D03*
X321168000Y-21700000D03*
X256800000Y-196200000D03*
X260400000Y-70800000D03*
X259100000Y-91100000D03*
X262300000Y-71800000D03*
X260400000Y-122100000D03*
X255300000Y-253800000D03*
X257300000Y-153500000D03*
X256000000Y-252400000D03*
X257300000Y-113600000D03*
X257400000Y-100400000D03*
X256200000Y-245800000D03*
X254800000Y-194500000D03*
X257300000Y-142300000D03*
X257000000Y-133200000D03*
X255400000Y-90900000D03*
X259100000Y-81000000D03*
X256800000Y-89300000D03*
X257600000Y-231200000D03*
X261100000Y-76300000D03*
X257500000Y-214600000D03*
X256700000Y-160400000D03*
X258000000Y-180800000D03*
X319768000Y-35379400D03*
X331200000Y-28500000D03*
X250997000Y-45567300D03*
X331200000Y-39500000D03*
X310238000Y-38449300D03*
X302650000Y-163302000D03*
X215850000Y-100150000D03*
X315512000Y-95893700D03*
X197638000Y-68327700D03*
X309500000Y-162423000D03*
X270988000Y-101030000D03*
X322021000Y-97493700D03*
X324875000Y-252650000D03*
X293850000Y-96098100D03*
X303350000Y-206302000D03*
X205400000Y-98632800D03*
X304914000Y-97068200D03*
X211025000Y-70150900D03*
X260513000Y-95893700D03*
X293323000Y-206302000D03*
X229350000Y-98801900D03*
X281651000Y-95893700D03*
X327875000Y-252175000D03*
X276188000Y-48163500D03*
X314900000Y-30812100D03*
X319014000Y-33308500D03*
X324200000Y-24984100D03*
X320300000Y-29500000D03*
X276188000Y-46134600D03*
X271005000Y-53507100D03*
X273343000Y-47153600D03*
X255392000Y-60319400D03*
X258750000Y-43275000D03*
X251450000Y-38700000D03*
X314680000Y-33344500D03*
X325079000Y-37265500D03*
X306236000Y-33627400D03*
X306311000Y-39098900D03*
X276162000Y-50271900D03*
X316518000Y-40714000D03*
X325006000Y-39122000D03*
X239587000Y-29719300D03*
X193000000Y-341307000D03*
X234912000Y-329874000D03*
X290612000Y-328028000D03*
X277750000Y-338626000D03*
X235662000Y-263064000D03*
X320837000Y-263312000D03*
X191574000Y-284687000D03*
X234655000Y-286030000D03*
X277749000Y-284687000D03*
X320837000Y-282581000D03*
X191598000Y-305855000D03*
X235687000Y-305779000D03*
X277749000Y-306104000D03*
X321249000Y-305604000D03*
X286688000Y-71879200D03*
X272335000Y-64008400D03*
X196942000Y-37205600D03*
X196942000Y-43081900D03*
X202914000Y-42938900D03*
X212112000Y-45518800D03*
X199352000Y-44097700D03*
X183561000Y-65774400D03*
X215527000Y-66627700D03*
X209722000Y-65661300D03*
X199660000Y-60375000D03*
X208075000Y-85000800D03*
X187453000Y-86317300D03*
X212112000Y-85070800D03*
X217026000Y-89974900D03*
X227528000Y-88834700D03*
X274185000Y-89934300D03*
X286383000Y-90522000D03*
X274919000Y-88897600D03*
X298464000Y-85002400D03*
X317269000Y-90644700D03*
X314944000Y-88423400D03*
X304210000Y-89795000D03*
X214850000Y-108953000D03*
X232950000Y-112117000D03*
X212838000Y-113238000D03*
X293456000Y-107900000D03*
X275422000Y-110141000D03*
X301426000Y-112929000D03*
X322011000Y-111756000D03*
X299182000Y-110005000D03*
X321357000Y-109195000D03*
X208188000Y-128569000D03*
X188676000Y-131616000D03*
X237370000Y-133908000D03*
X211146000Y-128115000D03*
X211190000Y-133329000D03*
X236349000Y-134271000D03*
X293644000Y-129666000D03*
X273273000Y-129377000D03*
X321888000Y-131849000D03*
X299334000Y-131668000D03*
X208186000Y-148544000D03*
X187462000Y-151103000D03*
X213074000Y-152016000D03*
X213680000Y-151154000D03*
X230006000Y-153007000D03*
X294710000Y-154766000D03*
X273732000Y-148315000D03*
X298797000Y-149331000D03*
X297766000Y-153997000D03*
X189164000Y-176061000D03*
X189650000Y-171605000D03*
X215101000Y-176965000D03*
X212111000Y-176303000D03*
X226390000Y-174865000D03*
X295403000Y-171486000D03*
X273562000Y-173486000D03*
X323062000Y-176863000D03*
X297460000Y-174775000D03*
X188310000Y-191953000D03*
X213118000Y-196723000D03*
X293172000Y-195928000D03*
X274811000Y-196621000D03*
X321989000Y-196299000D03*
X322580000Y-195432000D03*
X300669000Y-195177000D03*
X188410000Y-219881000D03*
X207649000Y-218649000D03*
X189654000Y-218803000D03*
X231752000Y-217364000D03*
X213269000Y-217176000D03*
X293234000Y-215766000D03*
X273690000Y-215175000D03*
X317361000Y-219663000D03*
X301582000Y-220676000D03*
X298462000Y-219350000D03*
X318498000Y-214545000D03*
X208188000Y-235273000D03*
X187992000Y-235857000D03*
X213074000Y-241104000D03*
X234593000Y-240400000D03*
X212112000Y-240485000D03*
X275342000Y-239689000D03*
X278760000Y-236782000D03*
X321938000Y-237013000D03*
X298462000Y-240435000D03*
X319129000Y-64862400D03*
X324388000Y-64046600D03*
X327790000Y-72686900D03*
X326493000Y-71928100D03*
X325464000Y-70237300D03*
X229288000Y-45566100D03*
X223888000Y-104992000D03*
X334362000Y-58046300D03*
X243512000Y-172150000D03*
X240312000Y-121673000D03*
X282762000Y-235273000D03*
X235724000Y-155365000D03*
X200338000Y-164592000D03*
X181687000Y-59168700D03*
X290222000Y-40621400D03*
X318088000Y-234907000D03*
X321538000Y-304144000D03*
X270462000Y-182687000D03*
X274912000Y-112117000D03*
X333815000Y-111560000D03*
X278974000Y-227058000D03*
X271696000Y-303511000D03*
X237326000Y-305779000D03*
X196412000Y-302622000D03*
X278050000Y-25242500D03*
X252024000Y-51051300D03*
X197575000Y-109941000D03*
X327176000Y-130345000D03*
X185500000Y-62671000D03*
X216962000Y-44367600D03*
X273886000Y-139110000D03*
X219361000Y-62245900D03*
X239621000Y-171530000D03*
X229288000Y-62228500D03*
X240400000Y-228493000D03*
X319388000Y-57884200D03*
X291226000Y-21795900D03*
X326793000Y-172526000D03*
X191426000Y-121397000D03*
X204262000Y-193891000D03*
X239621000Y-191909000D03*
X276351000Y-145934000D03*
X219166000Y-74112900D03*
X219962000Y-121260000D03*
X307432000Y-151394000D03*
X302431000Y-259454000D03*
X251362000Y-54318000D03*
X310238000Y-72260300D03*
X319320000Y-70895900D03*
X320700000Y-183982000D03*
X218438000Y-192767000D03*
X218844000Y-148539000D03*
X223400000Y-114326000D03*
X205265000Y-56656600D03*
X303864000Y-128415000D03*
X218969000Y-214565000D03*
X222361000Y-205024000D03*
X304114000Y-240295000D03*
X219774000Y-159470000D03*
X327575000Y-64431700D03*
X212838000Y-248105000D03*
X215851000Y-244724000D03*
X303691000Y-191726000D03*
X222208000Y-199409000D03*
X258286000Y-208134000D03*
X262967000Y-151017000D03*
X253903000Y-77259700D03*
X262967000Y-189601000D03*
X263461000Y-84907200D03*
X260190000Y-192454000D03*
X262786550Y-167325000D03*
X294910000Y-75770400D03*
X256835448Y-246572147D03*
X256470000Y-255342000D03*
X252032000Y-259346000D03*
X257519653Y-243405653D03*
X253757000Y-82585100D03*
X280238000Y-74994100D03*
X253513000Y-75502600D03*
X275834000Y-75986300D03*
X287791000Y-76255000D03*
X240838000Y-251047000D03*
X268382000Y-253025000D03*
X267850000Y-76164400D03*
X260375000Y-44513800D03*
X199600000Y-24042800D03*
X255774000Y-58523700D03*
X211599000Y-43275000D03*
X277999000Y-70258600D03*
X307835000Y-94863300D03*
X310238000Y-68283400D03*
X256118000Y-218212000D03*
X259397000Y-62781100D03*
X322100000Y-25200000D03*
X315997000Y-22660400D03*
X316928000Y-20640500D03*
X319376000Y-36459900D03*
X255137000Y-324579000D03*
X217039000Y-331046000D03*
X299350000Y-331074000D03*
X255486000Y-327102000D03*
X298560000Y-326749000D03*
X323574000Y-338663000D03*
X239506000Y-251278000D03*
X258150000Y-263670000D03*
X236675000Y-267876000D03*
X213523000Y-264720000D03*
X254583000Y-262488000D03*
X215200000Y-264720000D03*
X302838000Y-263720000D03*
X257626000Y-259539000D03*
X322400000Y-267551000D03*
X302173000Y-261902000D03*
X236900000Y-291192000D03*
X212378000Y-287496000D03*
X215200000Y-287230000D03*
X251362000Y-287300000D03*
X300450000Y-285841000D03*
X255288000Y-279306000D03*
X322425000Y-287705000D03*
X298322000Y-282058000D03*
X256381000Y-278204000D03*
X258440000Y-306825000D03*
X254036000Y-303793000D03*
X260088000Y-271383000D03*
X251287000Y-250955000D03*
X276387000Y-255038000D03*
X236900000Y-311000000D03*
X212112000Y-302622000D03*
X255436000Y-306739000D03*
X215000000Y-307710000D03*
X300738000Y-307973000D03*
X256542000Y-306576000D03*
X325938000Y-305866000D03*
X299142000Y-303106000D03*
X203950000Y-46019800D03*
X193019000Y-49201600D03*
X219500000Y-41292500D03*
X203666000Y-37678400D03*
X205342000Y-46864900D03*
X229594000Y-52307100D03*
X231950000Y-59216000D03*
X208400000Y-60375000D03*
X189344000Y-62549700D03*
X201324000Y-60276100D03*
X200958000Y-58466700D03*
X216564000Y-63896900D03*
X192777000Y-89135900D03*
X214884000Y-88737600D03*
X215425000Y-86962000D03*
X233284000Y-88815100D03*
X219000000Y-93206200D03*
X258738000Y-89144800D03*
X259212000Y-84926100D03*
X300884000Y-87949600D03*
X301577000Y-89141700D03*
X276519000Y-88858700D03*
X317903000Y-89119300D03*
X302299000Y-85176100D03*
X259212000Y-78076600D03*
X271026000Y-77763400D03*
X217450000Y-112115000D03*
X195892000Y-112546000D03*
X232988000Y-110280000D03*
X217349000Y-107561000D03*
X221100000Y-108875000D03*
X258188000Y-110042000D03*
X305638000Y-107561000D03*
X258912000Y-104992000D03*
X262772000Y-94934700D03*
X261526000Y-97087800D03*
X305985000Y-110080000D03*
X279338000Y-108952000D03*
X305032000Y-104992000D03*
X326694000Y-110900000D03*
X262738000Y-121086000D03*
X265964000Y-120664000D03*
X267529000Y-84124000D03*
X263655000Y-83854700D03*
X195476000Y-127261000D03*
X215887000Y-132088000D03*
X218112000Y-132887000D03*
X241258000Y-131112000D03*
X258440000Y-131075000D03*
X219962000Y-132952000D03*
X305000000Y-130854000D03*
X259212000Y-128139000D03*
X279066000Y-132180000D03*
X300979000Y-130103000D03*
X326951000Y-131418000D03*
X301426000Y-124800000D03*
X191014000Y-156247000D03*
X218776000Y-157355000D03*
X260269000Y-153481000D03*
X220500000Y-152906000D03*
X304763000Y-153768000D03*
X262689000Y-153213000D03*
X305098000Y-152709000D03*
X279355000Y-152167000D03*
X252775000Y-171604000D03*
X252814000Y-165524000D03*
X264791000Y-147290000D03*
X263994000Y-174091000D03*
X201132000Y-173640000D03*
X216748000Y-175393000D03*
X235662000Y-177804000D03*
X215488000Y-178900000D03*
X258687000Y-174225000D03*
X219963000Y-176061000D03*
X258895939Y-172100061D03*
X303569000Y-176259000D03*
X274912000Y-176061000D03*
X302388000Y-176061000D03*
X302260000Y-168514000D03*
X324698000Y-173611000D03*
X192712000Y-196171000D03*
X215100000Y-194728000D03*
X240512000Y-196175000D03*
X217391000Y-193811000D03*
X220300000Y-195975000D03*
X256096000Y-194439000D03*
X260556000Y-195572000D03*
X303501000Y-196847000D03*
X277144000Y-114846000D03*
X283454000Y-83992200D03*
X255342000Y-165582000D03*
X266028000Y-121841000D03*
X278838000Y-81221400D03*
X266028000Y-148275000D03*
X301464000Y-196157000D03*
X277201000Y-197031000D03*
X302024000Y-192034000D03*
X325255000Y-195107000D03*
X330934000Y-199898000D03*
X315363000Y-78478700D03*
X256358000Y-216523000D03*
X341568000Y-89144800D03*
X314376000Y-72713800D03*
X277907000Y-75612500D03*
X192126000Y-217338000D03*
X213409000Y-215336000D03*
X216949000Y-214569000D03*
X233088000Y-216352000D03*
X254938000Y-217667000D03*
X220576000Y-215919000D03*
X254836000Y-219697000D03*
X304638000Y-218445000D03*
X278951000Y-221653000D03*
X303150000Y-217091000D03*
X319762000Y-218327000D03*
X303361000Y-219629000D03*
X217250000Y-238554000D03*
X195476000Y-234449000D03*
X240975000Y-238536000D03*
X216623000Y-235022000D03*
X256675000Y-236462595D03*
X220225000Y-239025000D03*
X306500000Y-238934000D03*
X258325000Y-235363312D03*
X282820000Y-77810300D03*
X285250000Y-83940400D03*
X266929000Y-211690000D03*
X286811000Y-94167900D03*
X283945000Y-235275000D03*
X301256000Y-236880000D03*
X301981000Y-236191000D03*
X327328000Y-239491000D03*
X293296000Y-74688900D03*
X317898000Y-72608400D03*
X329824000Y-61498800D03*
X294538000Y-69336300D03*
X281720000Y-45488900D03*
X328538000Y-60033900D03*
X329298000Y-56810200D03*
X290612000Y-39422100D03*
X254711000Y-54410300D03*
X177173000Y-60878700D03*
X263818000Y-94833900D03*
X270991000Y-94351800D03*
X302388000Y-101028000D03*
X302388000Y-94351800D03*
X177019000Y-116530000D03*
X332435000Y-93759400D03*
X219100000Y-118428000D03*
X203058000Y-115682000D03*
X231616000Y-116007000D03*
X247291000Y-118691000D03*
X262188000Y-118597000D03*
X274075000Y-118597000D03*
X295518000Y-115586000D03*
X306312000Y-116491000D03*
X318088000Y-116491000D03*
X305492000Y-113931000D03*
X338987000Y-122004000D03*
X182060000Y-131930000D03*
X215488000Y-134940000D03*
X211190000Y-137483000D03*
X270462000Y-137051000D03*
X263671000Y-137483000D03*
X338761000Y-138965000D03*
X326614000Y-135502000D03*
X336328000Y-137295000D03*
X184333000Y-160129000D03*
X188168000Y-157150000D03*
X197570000Y-158030000D03*
X209225000Y-162662000D03*
X195236000Y-159582000D03*
X252312000Y-161375000D03*
X246050000Y-157468000D03*
X264410000Y-159636000D03*
X270873000Y-165156000D03*
X272567000Y-158954000D03*
X288624000Y-162711000D03*
X314162000Y-159837000D03*
X307201000Y-159837000D03*
X174885000Y-180155000D03*
X337712000Y-176061000D03*
X272376000Y-195397000D03*
X289233000Y-184583000D03*
X326502000Y-176863000D03*
X316948000Y-178898000D03*
X338613000Y-183841000D03*
X323062000Y-184163000D03*
X184331000Y-204034000D03*
X337712000Y-180772000D03*
X197338000Y-200993000D03*
X208475000Y-203253000D03*
X304566000Y-200376000D03*
X297050000Y-203127000D03*
X337937000Y-219350000D03*
X174280000Y-223704000D03*
X255225000Y-221602000D03*
X260435000Y-223089000D03*
X251762000Y-235728000D03*
X263033000Y-229035000D03*
X273555000Y-222458000D03*
X283884000Y-225072000D03*
X281651000Y-223092000D03*
X295400000Y-225600000D03*
X295400000Y-223030000D03*
X306964000Y-224000000D03*
X318683000Y-224652000D03*
X303909000Y-223548000D03*
X326500000Y-225317000D03*
X315333000Y-223480000D03*
X338488000Y-225378000D03*
X334788000Y-223276000D03*
X337004000Y-223058000D03*
X178100000Y-245000000D03*
X195570000Y-244497000D03*
X209186000Y-247258000D03*
X220677000Y-246416000D03*
X209265000Y-243691000D03*
X240504000Y-243572000D03*
X254188000Y-246544000D03*
X311827000Y-248729000D03*
X324743000Y-244716000D03*
X180616000Y-60914700D03*
X341498000Y-156494000D03*
X200521000Y-50417600D03*
X212112000Y-50204300D03*
X183582000Y-56348700D03*
X230438000Y-54635200D03*
%LPD*%
M02*
